<svg width="634" height="457" viewBox="0 0 634 457" fill="none" xmlns="http://www.w3.org/2000/svg">
<g clip-path="url(#clip0)">
<path opacity="0.1" d="M6.8479 248.45C16.88 291.325 38.1174 328.387 71.6753 346.374C141.432 383.708 298.739 364.449 416.137 342.33C475.46 331.19 529.308 300.411 569.011 254.95L6.8479 248.45Z" fill="#3A0F5B"/>
<path opacity="0.1" d="M622.5 46.6367H558.083C556.607 46.6367 555.191 46.0504 554.148 45.0069C553.104 43.9633 552.518 42.548 552.518 41.0722C552.518 39.5964 553.104 38.181 554.148 37.1375C555.191 36.0939 556.607 35.5077 558.083 35.5077H569.219C567.773 35.4611 566.402 34.8541 565.396 33.8151C564.39 32.7761 563.827 31.3865 563.827 29.9403C563.827 28.494 564.39 27.1044 565.396 26.0654C566.402 25.0264 567.773 24.4194 569.219 24.3729H561.267C559.821 24.3263 558.451 23.7193 557.444 22.6803C556.438 21.6413 555.876 20.2518 555.876 18.8055C555.876 17.3592 556.438 15.9696 557.444 14.9306C558.451 13.8916 559.821 13.2847 561.267 13.2381H594.888C587.428 9.77111 578.708 7.30377 568.658 6.00943C476.982 -5.76096 444.251 2.02819 432.704 10.0542C418.46 19.9351 402.568 27.2042 385.584 30.7059C329.02 42.3723 223.238 56.4135 127.36 26.2104C79.7079 11.1868 44.295 36.5651 23.0634 78.9547H633.682C632.885 66.6354 630.498 55.2637 626.118 45.3019C625.111 46.1668 623.827 46.6406 622.5 46.6367Z" fill="#3A0F5B"/>
<path opacity="0.1" d="M1.38108 158.961C-1.09303 183.895 -0.253578 209.047 3.87755 233.761L569.444 254.447C585.189 236.338 598.408 216.179 608.74 194.521L1.38108 158.961ZM225.07 212.318H213.934C215.41 212.318 216.825 212.904 217.869 213.948C218.912 214.991 219.499 216.407 219.499 217.882C219.499 219.358 218.912 220.774 217.869 221.817C216.825 222.861 215.41 223.447 213.934 223.447H149.517C148.041 223.447 146.625 222.861 145.582 221.817C144.538 220.774 143.952 219.358 143.952 217.882C143.952 216.407 144.538 214.991 145.582 213.948C146.625 212.904 148.041 212.318 149.517 212.318H160.653C159.207 212.271 157.836 211.664 156.83 210.625C155.824 209.586 155.261 208.197 155.261 206.75C155.261 205.304 155.824 203.915 156.83 202.876C157.836 201.837 159.207 201.23 160.653 201.183H152.701C151.255 201.137 149.884 200.53 148.878 199.491C147.872 198.452 147.309 197.062 147.309 195.616C147.309 194.169 147.872 192.78 148.878 191.741C149.884 190.702 151.255 190.095 152.701 190.048H217.118C218.564 190.095 219.934 190.702 220.941 191.741C221.947 192.78 222.509 194.169 222.509 195.616C222.509 197.062 221.947 198.452 220.941 199.491C219.934 200.53 218.564 201.137 217.118 201.183H225.07C226.515 201.23 227.886 201.837 228.892 202.876C229.898 203.915 230.461 205.304 230.461 206.75C230.461 208.197 229.898 209.586 228.892 210.625C227.886 211.664 226.515 212.271 225.07 212.318Z" fill="#3A0F5B"/>
<path opacity="0.1" d="M633.711 79.3245L16.2503 94.348C8.73773 113.653 3.78524 135.466 1.47369 158.1H622.893C626.949 144.811 629.95 131.222 631.868 117.461C633.717 104.165 634.457 91.3029 633.711 79.3245ZM126.829 128.532H115.693C116.424 128.532 117.148 128.676 117.823 128.956C118.498 129.236 119.111 129.646 119.628 130.162C120.145 130.679 120.555 131.292 120.835 131.968C121.114 132.643 121.258 133.366 121.258 134.097C121.258 134.828 121.114 135.551 120.835 136.226C120.555 136.902 120.145 137.515 119.628 138.032C119.111 138.548 118.498 138.958 117.823 139.238C117.148 139.518 116.424 139.661 115.693 139.661H51.276C49.8001 139.661 48.3846 139.075 47.3409 138.032C46.2973 136.988 45.711 135.573 45.711 134.097C45.711 132.621 46.2973 131.206 47.3409 130.162C48.3846 129.119 49.8001 128.532 51.276 128.532H62.4119C60.9662 128.486 59.5954 127.879 58.5892 126.84C57.583 125.801 57.0205 124.411 57.0205 122.965C57.0205 121.519 57.583 120.129 58.5892 119.09C59.5954 118.051 60.9662 117.444 62.4119 117.398H54.4602C53.0145 117.351 51.6436 116.744 50.6375 115.705C49.6313 114.666 49.0687 113.277 49.0687 111.83C49.0687 110.384 49.6313 108.994 50.6375 107.955C51.6436 106.916 53.0145 106.309 54.4602 106.263H118.877C120.323 106.309 121.694 106.916 122.7 107.955C123.706 108.994 124.269 110.384 124.269 111.83C124.269 113.277 123.706 114.666 122.7 115.705C121.694 116.744 120.323 117.351 118.877 117.398H126.829C128.275 117.444 129.645 118.051 130.652 119.09C131.658 120.129 132.22 121.519 132.22 122.965C132.22 124.411 131.658 125.801 130.652 126.84C129.645 127.879 128.275 128.486 126.829 128.532Z" fill="#3A0F5B"/>
<path opacity="0.1" d="M325.709 457C437.041 457 527.293 452.116 527.293 446.091C527.293 440.065 437.041 435.181 325.709 435.181C214.377 435.181 124.124 440.065 124.124 446.091C124.124 452.116 214.377 457 325.709 457Z" fill="#3A0F5B"/>
<path d="M493.059 365.87C493.059 365.87 496.232 370.025 491.591 376.271C486.951 382.518 483.125 387.828 484.657 391.74C484.657 391.74 491.655 380.097 497.37 379.935C503.085 379.773 499.323 372.874 493.059 365.87Z" fill="#3A0F5B"/>
<path opacity="0.1" d="M493.059 365.87C493.333 366.273 493.551 366.71 493.706 367.171C499.266 373.706 502.224 379.802 496.885 379.952C491.903 380.097 485.934 388.995 484.506 391.243C484.552 391.418 484.608 391.589 484.674 391.757C484.674 391.757 491.672 380.114 497.387 379.952C503.103 379.79 499.323 372.874 493.059 365.87Z" fill="black"/>
<path d="M498.959 371.163C498.959 372.625 498.798 373.81 498.595 373.81C498.393 373.81 498.225 372.625 498.225 371.163C498.225 369.701 498.434 370.389 498.636 370.389C498.838 370.389 498.959 369.701 498.959 371.163Z" fill="#FFD037"/>
<path d="M500.982 372.908C499.699 373.608 498.584 374.029 498.486 373.85C498.387 373.671 499.352 372.96 500.635 372.261C501.918 371.562 501.41 372.07 501.508 372.261C501.606 372.452 502.265 372.209 500.982 372.908Z" fill="#FFD037"/>
<path d="M476.289 365.87C476.289 365.87 473.116 370.025 477.757 376.271C482.397 382.518 486.217 387.828 484.691 391.74C484.691 391.74 477.687 380.097 471.978 379.935C466.268 379.773 470.019 372.874 476.289 365.87Z" fill="#3A0F5B"/>
<path opacity="0.1" d="M476.289 365.87C476.013 366.271 475.795 366.709 475.642 367.171C470.082 373.706 467.118 379.802 472.463 379.952C477.439 380.097 483.443 388.995 484.842 391.243C484.795 391.416 484.738 391.584 484.674 391.757C484.674 391.757 477.67 380.114 471.961 379.952C466.251 379.79 470.019 372.874 476.289 365.87Z" fill="black"/>
<path d="M470.389 371.163C470.389 372.625 470.55 373.81 470.753 373.81C470.955 373.81 471.122 372.625 471.122 371.163C471.122 369.701 470.914 370.389 470.712 370.389C470.51 370.389 470.389 369.701 470.389 371.163Z" fill="#FFD037"/>
<path d="M468.36 372.908C469.643 373.608 470.764 374.029 470.863 373.85C470.961 373.671 469.996 372.96 468.713 372.261C467.43 371.562 467.938 372.07 467.84 372.261C467.742 372.452 467.077 372.209 468.36 372.908Z" fill="#FFD037"/>
<path d="M471.4 391.214C471.4 391.214 480.276 390.937 482.958 389.036C485.639 387.135 496.613 384.852 497.278 387.88C497.942 390.908 510.615 403.071 500.595 403.152C490.574 403.233 477.312 401.592 474.642 399.968C471.972 398.344 471.4 391.214 471.4 391.214Z" fill="#A8A8A8"/>
<path opacity="0.2" d="M500.768 402.118C490.747 402.199 477.485 400.558 474.815 398.934C472.781 397.692 471.972 393.248 471.7 391.203H471.406C471.406 391.203 471.983 398.356 474.636 399.986C477.288 401.615 490.568 403.25 500.589 403.169C503.478 403.169 504.484 402.118 504.426 400.592C504.021 401.528 502.918 402.1 500.768 402.118Z" fill="black"/>
<path d="M155.584 394.461C156.645 393.596 157.419 392.429 157.804 391.116C158.087 389.793 157.52 388.227 156.255 387.712C154.833 387.169 153.313 388.157 152.158 389.151C151.002 390.145 149.69 391.283 148.182 391.07C148.957 390.367 149.538 389.476 149.866 388.482C150.194 387.489 150.259 386.427 150.054 385.401C149.988 384.976 149.809 384.577 149.534 384.245C148.742 383.402 147.315 383.76 146.367 384.424C143.362 386.539 142.524 390.625 142.507 394.294C142.206 392.971 142.461 391.59 142.455 390.249C142.449 388.908 142.073 387.36 140.929 386.649C140.219 386.27 139.422 386.083 138.618 386.106C137.265 386.054 135.763 386.193 134.838 387.175C133.683 388.406 133.989 390.463 134.989 391.798C135.988 393.132 137.502 393.999 138.895 394.929C140.016 395.596 140.972 396.506 141.692 397.593C141.774 397.747 141.843 397.908 141.9 398.073H150.366C152.261 397.11 154.016 395.895 155.584 394.461Z" fill="#3A0F5B"/>
<path d="M88.3011 403.58C88.3011 403.58 80.176 376.011 89.821 355.724C93.9268 347.238 95.1678 337.649 93.3577 328.398C92.4646 324.017 91.1705 319.726 89.4916 315.582" stroke="#535461" stroke-width="2" stroke-miterlimit="10"/>
<path d="M95.4728 302.754C95.4728 306.134 89.3587 315.934 89.3587 315.934C89.3587 315.934 83.2389 306.111 83.2389 302.754C83.2878 301.164 83.9536 299.656 85.0955 298.549C86.2373 297.442 87.7653 296.823 89.3558 296.823C90.9463 296.823 92.4744 297.442 93.6162 298.549C94.758 299.656 95.4239 301.164 95.4728 302.754Z" fill="#3A0F5B"/>
<path d="M105.586 321.47C103.754 324.307 93.2883 329.207 93.2883 329.207C93.2883 329.207 93.479 317.651 95.3166 314.819C96.2196 313.506 97.5995 312.597 99.1626 312.285C100.726 311.973 102.349 312.283 103.687 313.15C105.024 314.016 105.971 315.37 106.326 316.924C106.681 318.478 106.415 320.109 105.586 321.47Z" fill="#3A0F5B"/>
<path d="M105.147 353.453C102.13 354.973 90.6243 353.921 90.6243 353.921C90.6243 353.921 96.6228 344.046 99.6394 342.526C100.359 342.145 101.147 341.912 101.958 341.839C102.769 341.766 103.586 341.856 104.361 342.103C105.137 342.351 105.856 342.75 106.475 343.278C107.094 343.806 107.602 344.453 107.969 345.18C108.335 345.907 108.553 346.699 108.609 347.512C108.665 348.324 108.558 349.139 108.296 349.909C108.033 350.68 107.619 351.39 107.078 351.998C106.538 352.607 105.881 353.101 105.147 353.453Z" fill="#3A0F5B"/>
<path d="M99.3619 377.577C96.6458 379.588 85.1285 380.466 85.1285 380.466C85.1285 380.466 89.3702 369.725 92.0632 367.714C92.7043 367.188 93.4456 366.798 94.2419 366.568C95.0382 366.338 95.8731 366.271 96.6958 366.373C97.5185 366.475 98.3119 366.744 99.0278 367.161C99.7438 367.579 100.367 368.138 100.861 368.804C101.354 369.47 101.707 370.23 101.898 371.037C102.089 371.843 102.114 372.68 101.972 373.497C101.829 374.313 101.523 375.093 101.07 375.787C100.617 376.482 100.028 377.077 99.3388 377.537L99.3619 377.577Z" fill="#3A0F5B"/>
<path d="M80.4476 329.86C82.8689 332.212 94.1608 334.656 94.1608 334.656C94.1608 334.656 91.3928 323.44 88.9599 321.083C88.3886 320.499 87.7062 320.035 86.953 319.72C86.1997 319.404 85.3908 319.242 84.574 319.243C83.7571 319.245 82.9489 319.41 82.1968 319.729C81.4448 320.047 80.7641 320.513 80.1951 321.099C79.626 321.685 79.1801 322.379 78.8835 323.14C78.5869 323.901 78.4456 324.714 78.4681 325.531C78.4905 326.347 78.6762 327.151 79.0142 327.894C79.3522 328.638 79.8356 329.306 80.436 329.86H80.4476Z" fill="#3A0F5B"/>
<path d="M74.0388 358.156C77.0554 359.676 88.5611 358.624 88.5611 358.624C88.5611 358.624 82.5627 348.755 79.5461 347.23C78.1015 346.538 76.4434 346.44 74.9275 346.957C73.4115 347.474 72.1587 348.565 71.4379 349.995C70.7171 351.425 70.5857 353.081 71.072 354.607C71.5583 356.132 72.6234 357.407 74.0388 358.156Z" fill="#3A0F5B"/>
<path d="M71.5888 386.516C74.3048 388.521 85.8163 389.405 85.8163 389.405C85.8163 389.405 81.5804 378.664 78.8817 376.653C77.5748 375.781 75.9827 375.445 74.435 375.715C72.8873 375.985 71.5027 376.839 70.5677 378.101C69.6327 379.364 69.2191 380.937 69.4124 382.496C69.6057 384.055 70.3911 385.48 71.6061 386.476L71.5888 386.516Z" fill="#3A0F5B"/>
<path d="M95.4728 302.754C95.4728 306.134 89.3587 315.934 89.3587 315.934C89.3587 315.934 83.2389 306.111 83.2389 302.754C83.2878 301.164 83.9536 299.656 85.0955 298.549C86.2373 297.442 87.7653 296.823 89.3558 296.823C90.9463 296.823 92.4744 297.442 93.6162 298.549C94.758 299.656 95.4239 301.164 95.4728 302.754Z" fill="#3A0F5B"/>
<path d="M105.586 321.47C103.754 324.307 93.2883 329.207 93.2883 329.207C93.2883 329.207 93.479 317.651 95.3166 314.819C96.2196 313.506 97.5995 312.597 99.1626 312.285C100.726 311.973 102.349 312.283 103.687 313.15C105.024 314.016 105.971 315.37 106.326 316.924C106.681 318.478 106.415 320.109 105.586 321.47Z" fill="#3A0F5B"/>
<path d="M105.147 353.453C102.13 354.973 90.6243 353.921 90.6243 353.921C90.6243 353.921 96.6228 344.046 99.6394 342.526C100.359 342.145 101.147 341.912 101.958 341.839C102.769 341.766 103.586 341.856 104.361 342.103C105.137 342.351 105.856 342.75 106.475 343.278C107.094 343.806 107.602 344.453 107.969 345.18C108.335 345.907 108.553 346.699 108.609 347.512C108.665 348.324 108.558 349.139 108.296 349.909C108.033 350.68 107.619 351.39 107.078 351.998C106.538 352.607 105.881 353.101 105.147 353.453Z" fill="#3A0F5B"/>
<path d="M99.3619 377.577C96.6458 379.588 85.1285 380.466 85.1285 380.466C85.1285 380.466 89.3702 369.725 92.0632 367.714C92.7043 367.188 93.4456 366.798 94.2419 366.568C95.0382 366.338 95.8731 366.271 96.6958 366.373C97.5185 366.475 98.3119 366.744 99.0278 367.161C99.7438 367.579 100.367 368.138 100.861 368.804C101.354 369.47 101.707 370.23 101.898 371.037C102.089 371.843 102.114 372.68 101.972 373.497C101.829 374.313 101.523 375.093 101.07 375.787C100.617 376.482 100.028 377.077 99.3388 377.537L99.3619 377.577Z" fill="#3A0F5B"/>
<path d="M80.4476 329.86C82.8689 332.212 94.1608 334.656 94.1608 334.656C94.1608 334.656 91.3928 323.44 88.9599 321.083C88.3886 320.499 87.7062 320.035 86.953 319.72C86.1997 319.404 85.3908 319.242 84.574 319.243C83.7571 319.245 82.9489 319.41 82.1968 319.729C81.4448 320.047 80.7641 320.513 80.1951 321.099C79.626 321.685 79.1801 322.379 78.8835 323.14C78.5869 323.901 78.4456 324.714 78.4681 325.531C78.4905 326.347 78.6762 327.151 79.0142 327.894C79.3522 328.638 79.8356 329.306 80.436 329.86H80.4476Z" fill="#3A0F5B"/>
<path d="M74.0388 358.156C77.0554 359.676 88.5611 358.624 88.5611 358.624C88.5611 358.624 82.5627 348.755 79.5461 347.23C78.1015 346.538 76.4434 346.44 74.9275 346.957C73.4115 347.474 72.1587 348.565 71.4379 349.995C70.7171 351.425 70.5857 353.081 71.072 354.607C71.5583 356.132 72.6234 357.407 74.0388 358.156Z" fill="#3A0F5B"/>
<path d="M71.5888 386.516C74.3048 388.521 85.8163 389.405 85.8163 389.405C85.8163 389.405 81.5804 378.664 78.8817 376.653C77.5748 375.781 75.9827 375.445 74.435 375.715C72.8873 375.985 71.5027 376.839 70.5677 378.101C69.6327 379.364 69.2191 380.937 69.4124 382.496C69.6057 384.055 70.3911 385.48 71.6061 386.476L71.5888 386.516Z" fill="#3A0F5B"/>
<path d="M69.0865 401.846C69.0865 401.846 78.9799 399.882 81.6151 397.264C84.2502 394.646 96.12 390.064 97.4376 393.335C98.7552 396.605 115.237 407.734 104.026 409.699C92.8145 411.663 77.6566 412.316 74.3626 411.005C71.0686 409.693 69.0865 401.846 69.0865 401.846Z" fill="#A8A8A8"/>
<path opacity="0.2" d="M104.043 408.474C92.8377 410.438 77.6739 411.091 74.3799 409.786C71.8719 408.786 70.1267 404.007 69.439 401.771L69.0865 401.846C69.0865 401.846 71.0686 409.699 74.3626 411.005C77.6566 412.311 92.8203 411.658 104.026 409.699C107.262 409.121 108.186 407.798 107.84 406.116C107.58 407.208 106.453 408.052 104.043 408.474Z" fill="black"/>
<path d="M418.546 151.38C421.65 147.913 420.436 142.51 420.436 142.51C420.436 142.51 405.792 105.194 404.169 104.784C402.545 104.373 398.471 94.9606 398.471 94.9606C398.471 94.9606 359.423 57.8466 358.019 57.8466C356.614 57.8466 342.358 47.5959 340.532 47.3936C338.706 47.1914 335.851 46.1628 332.8 44.5045C329.748 42.8461 298.831 44.7125 297.612 46.1455C296.393 47.5785 290.677 48.6071 290.677 48.6071C290.677 48.6071 279.085 49.2196 277.455 51.2709C275.826 53.3221 263.834 54.4085 263.834 54.4085C263.834 54.4085 257.934 56.6042 265.944 62.4345C263.378 62.839 260.379 63.151 257.333 63.3706C256.57 63.4226 255.796 63.4746 255.022 63.5151H254.565C254.054 61.9689 253.056 60.6292 251.722 59.6956C250.849 59.2219 249.948 58.8031 249.023 58.4417C247.591 57.6803 246.25 56.7595 245.024 55.697C239.095 50.9827 232.769 46.7912 226.116 43.1697C225.089 42.5267 223.943 42.0964 222.747 41.9042C220.268 41.6673 218.054 43.4066 215.627 43.9902C211.362 45.013 207.063 42.4127 202.677 42.3723C197.198 42.3203 192.211 46.5847 190.541 51.8429C189.923 53.7902 189.645 55.9571 188.31 57.4999C186.577 59.5165 183.647 59.8112 181.272 61.0073C179.551 61.9049 178.109 63.2568 177.102 64.9163C176.095 66.5758 175.563 68.4793 175.562 70.4201V70.4664C175.562 70.7726 175.562 71.0789 175.614 71.3851C175.886 73.8582 177.03 76.1407 177.868 78.4866C178.729 80.8904 179.273 83.3962 179.486 85.9407C179.489 85.9675 179.489 85.9947 179.486 86.0215C179.521 86.4434 179.55 86.8652 179.567 87.2928C179.567 87.3795 179.567 87.4719 179.567 87.5644C179.567 87.9688 179.567 88.3791 179.567 88.7894C179.567 90.9967 179.492 93.2213 179.498 95.4286V95.5442V96.5438C179.498 96.6247 179.498 96.7056 179.498 96.7865C179.498 97.0812 179.498 97.3644 179.532 97.6764V97.9884C179.532 98.26 179.573 98.5373 179.602 98.8089C179.602 98.9245 179.602 99.0458 179.631 99.1614C179.631 99.4272 179.694 99.6872 179.729 99.9473L179.781 100.317C179.821 100.577 179.867 100.837 179.914 101.097L179.983 101.455C180.041 101.733 180.11 102.033 180.18 102.287C180.208 102.386 180.226 102.478 180.249 102.576C180.353 102.962 180.468 103.331 180.596 103.686C181.461 106.112 182.889 108.298 184.764 110.065C186.639 111.832 188.906 113.129 191.379 113.85C192.31 114.107 193.274 114.227 194.24 114.208C195.973 114.168 197.632 113.63 198.66 112.446C198.915 112.735 199.163 113.024 199.429 113.312C203.198 117.411 207.9 120.541 213.136 122.435C218.372 124.33 223.988 124.935 229.508 124.198C235.027 123.461 240.287 121.404 244.843 118.201C249.398 114.998 253.114 110.745 255.675 105.801C256.281 105.668 256.882 105.546 257.489 105.431C258.541 105.234 259.599 105.049 260.662 104.853L261.685 104.691L262.089 104.622C267.29 103.801 272.341 103.252 275.959 102.888L261.662 104.662C261.662 104.662 258.194 121.31 257.195 123.153C256.195 124.996 260.662 128.07 260.662 128.07C260.662 128.07 264.528 132.785 264.528 134.224C264.528 135.663 269.001 139.76 270.22 142.013C270.375 142.299 270.57 142.562 270.798 142.793C269.895 143.143 269.062 143.649 268.336 144.29C265.51 146.965 266.452 151.657 265.158 155.332C264.349 157.644 262.656 159.516 261.026 161.336C260.441 161.93 259.95 162.61 259.57 163.353C259.358 163.844 259.227 164.367 259.182 164.901C259.154 165.197 259.142 165.494 259.148 165.791V165.895C259.148 166.126 259.148 166.351 259.194 166.577C259.194 166.675 259.194 166.773 259.194 166.872C259.477 169.287 260.298 171.621 260.546 174.037C260.795 176.452 260.494 178.885 260.991 181.236C261.163 182.056 261.431 182.853 261.789 183.611L253.513 192.857C253.513 192.857 253.461 193.313 253.444 194.064C246.544 199.791 235.876 210.596 239.685 220.124C240.101 221.168 240.486 222.168 240.84 223.123C238.038 224.909 237.113 227.029 241.314 229.144C241.979 229.479 242.62 229.768 243.25 230.028C245.406 236.356 246.249 238.118 249.861 233.455C250.248 232.946 250.699 232.299 251.19 231.6C256.276 231.496 259.217 229.144 259.217 229.144C259.217 229.144 273.451 228.324 277.132 230.583C278.975 231.739 283.309 231.97 287.146 231.941C287.095 236.074 287.288 240.207 287.724 244.318C287.724 244.318 287.112 261.745 288.741 265.438C290.371 269.13 291.273 275.486 291.273 275.486C291.273 275.486 288.539 281.634 290.163 284.916C291.787 288.199 288.741 292.914 288.741 292.914V305.008L289.897 304.927C289.81 305.741 289.701 306.597 289.556 307.411C289.221 309.301 288.718 310.994 287.944 311.543C285.91 313.005 285.707 320.788 285.707 320.788C285.707 320.788 282.454 330.224 283.061 331.865C283.668 333.506 279.2 336.782 280.218 339.244C281.235 341.706 283.315 357.284 285.124 361.779C286.933 366.275 281.437 365.061 281.437 365.061L283.061 376.745C283.061 376.745 284.69 388.637 283.471 389.457C282.252 390.278 275.236 396.224 280.062 399.708C280.437 399.98 280.819 400.228 281.217 400.465C281.239 401.005 281.225 401.545 281.177 402.083C281.084 403.002 280.853 403.736 280.339 403.816C278.906 404.025 276.057 405.458 275.456 404.845C274.855 404.233 271.411 406.394 267.943 407.099L267.464 407.174L262.962 406.018C256.449 403.537 249.299 403.273 242.62 405.267C242.62 405.267 239.355 405.775 237.772 408.214C236.968 409.462 236.616 411.219 237.333 413.669C239.505 420.915 254.317 423.411 254.317 423.411C254.317 423.411 259.448 424.468 265.614 425.867C265.412 425.867 265.204 425.867 264.996 425.867C263.294 425.855 261.65 426.481 260.387 427.623C259.125 428.764 258.336 430.337 258.177 432.031C258.018 433.725 258.5 435.418 259.527 436.774C260.555 438.13 262.054 439.052 263.728 439.358C265.402 439.663 267.13 439.33 268.571 438.424C270.011 437.518 271.06 436.105 271.509 434.464C271.959 432.823 271.777 431.072 270.999 429.559C270.221 428.045 268.904 426.878 267.308 426.288C274.242 427.883 281.922 429.825 285.043 431.194C287.366 432.069 289.747 432.783 292.168 433.332C292.288 434.766 292.862 436.125 293.807 437.21C294.752 438.295 296.018 439.051 297.422 439.367C298.826 439.683 300.294 439.542 301.613 438.966C302.932 438.39 304.033 437.408 304.755 436.163C314.192 438.134 323.282 439.804 323.282 439.804L338.463 440.052H338.567C336.778 440.064 335.066 440.785 333.808 442.057C332.549 443.328 331.846 445.047 331.852 446.836C331.858 448.625 332.573 450.338 333.84 451.601C335.108 452.864 336.824 453.573 338.613 453.573C340.402 453.573 342.119 452.864 343.386 451.601C344.653 450.338 345.368 448.625 345.374 446.836C345.38 445.047 344.677 443.328 343.418 442.057C342.16 440.785 340.448 440.064 338.659 440.052L361.642 440.428C361.366 441.363 361.295 442.347 361.434 443.312C361.572 444.277 361.917 445.201 362.445 446.02C362.973 446.84 363.672 447.536 364.493 448.062C365.315 448.587 366.24 448.929 367.206 449.065C368.171 449.2 369.155 449.126 370.089 448.847C371.024 448.569 371.887 448.092 372.62 447.449C373.354 446.807 373.94 446.014 374.339 445.124C374.738 444.234 374.941 443.269 374.933 442.294C374.932 441.737 374.862 441.182 374.725 440.642L394.998 440.971L399.043 436.522C399.269 436.089 399.404 435.616 399.441 435.129C399.563 433.667 398.806 431.448 393.628 430.506C393.247 430.437 382.683 430.605 373.35 430.761V427.097C373.35 427.097 373.09 425.081 372.928 422.706C372.882 422.007 372.841 421.279 372.824 420.562C373.352 420.924 373.938 421.192 374.558 421.354C378.424 421.972 383.711 410.693 383.711 410.693C383.711 410.693 383.711 404.337 384.931 399.211C386.15 394.086 388.398 376.861 388.398 376.861L393.287 356.157C393.287 356.157 395.31 313.918 394.293 312.277C393.275 310.636 395.518 307.764 395.518 307.764C395.518 307.764 397.142 298.744 394.703 295.67C392.264 292.596 396.124 289.516 396.124 289.516C396.124 289.516 397.141 278.855 394.293 274.758C391.444 270.661 395.627 267.79 395.627 267.79L396.645 251.183C400.915 246.878 404.775 221.251 404.983 215.715C405.037 212.599 405.729 209.528 407.018 206.69C407.018 206.69 409.861 202.385 410.271 199.513C410.681 196.641 413.738 190.701 413.738 190.701L419.026 171.015C421.158 163.075 420.615 157.204 419.199 153.021C418.991 152.432 418.772 151.894 418.546 151.38ZM323.016 152.536C326.269 154.587 325.252 155.199 326.269 156.43C327.286 157.661 326.472 157.453 325.657 159.504C324.842 161.555 325.455 160.943 325.859 163.197C326.264 165.45 326.067 165.45 326.067 165.45L327.084 165.595L325.668 175.111C323.357 176.62 322.299 179.509 321.82 182.49C320.456 180.711 319.08 178.861 317.85 177.14C318.271 176.198 318.191 175.077 318.202 174.019C318.248 170.552 319.543 167.241 320.138 163.826C320.746 160.352 320.634 156.791 319.809 153.362C319.512 152.072 319.056 150.824 318.451 149.646C319.768 150.525 321.438 151.565 323.016 152.559V152.536ZM326.674 353.464C326.674 353.464 329.246 351.731 331.742 350.153C332.58 356.238 333.372 362.565 333.932 368.286C333.036 366.298 332.412 364.946 332.412 364.946C331.495 363.843 330.945 362.482 330.84 361.051C330.742 358.821 326.674 353.488 326.674 353.488V353.464ZM311.423 142.718C312.001 142.799 312.822 143.533 313.596 144.411C312.88 143.833 312.157 143.256 311.418 142.712L311.423 142.718ZM274.202 218.576C271.856 219.315 263.904 219.206 259.177 218.928C260.945 215.906 262.702 212.832 264.262 210.076C265.182 210.314 266.119 210.482 267.065 210.579L282.546 196.982C288.37 199.025 294.722 198.984 300.519 196.867L300.941 197.525C301.12 197.814 301.31 198.103 301.519 198.427L301.131 197.797C301.131 197.797 295.156 201.356 295.763 202.997C296.37 204.639 294.954 208.735 292.717 213.127C292.139 214.225 291.637 215.311 291.151 216.403C286.089 216.877 276.548 217.836 274.202 218.576ZM303.576 408.012L303.489 406.388C304.471 406.174 305.119 405.978 305.119 405.978C304.916 403.568 304.576 401.172 304.102 398.801C303.489 396.339 303.807 397.16 306.188 395.334C308.569 393.508 306.188 372.799 306.188 372.799C306.188 372.799 307.344 371.36 309.176 375.052C311.007 378.744 312.845 380.998 313.458 381.2C314.07 381.402 311.013 385.511 313.458 389.405C314.975 391.925 316.008 394.706 316.503 397.605C316.503 397.605 314.879 404.117 317.318 407.012C317.647 407.349 318.04 407.618 318.474 407.804C318.474 408.341 318.474 408.913 318.474 409.45C318.474 410.531 318.474 411.455 318.422 411.652C318.398 411.79 318.339 411.92 318.25 412.029C318.162 412.138 318.046 412.222 317.915 412.274C317.784 412.325 317.643 412.341 317.503 412.321C317.364 412.302 317.233 412.246 317.121 412.16C316.492 411.75 312.498 412.669 312.77 415.24C311.826 416.356 310.755 417.358 309.58 418.228L304.038 416.795L303.576 408.012Z" fill="url(#paint0_linear)"/>
<path d="M253.664 195.595C253.664 195.595 251.728 211.457 267.082 213.081L269.394 202.102L264.557 195.595L257.628 193.249L253.664 195.595Z" fill="#3A0F5B"/>
<path opacity="0.1" d="M257.628 193.249L253.664 195.59C253.664 195.59 251.728 211.451 267.082 213.075" fill="black"/>
<path d="M281.524 105.91C281.524 105.91 271.162 106.546 260.772 108.268C259.708 108.449 258.651 108.642 257.599 108.846C256.986 108.961 256.385 109.083 255.784 109.216C250.341 110.337 245.382 111.793 242.493 113.653C239.026 115.878 237.87 109.886 237.76 101.559C237.714 98.6298 237.812 95.4171 237.968 92.1697C238.17 88.4138 238.465 84.6117 238.777 81.1909C239.465 73.6098 240.257 67.7159 240.257 67.7159C240.257 67.7159 243.886 67.7159 248.734 67.5484L250.295 67.4906C251.814 67.4328 253.427 67.3519 255.051 67.2537C255.819 67.2132 256.593 67.167 257.362 67.1092C260.436 66.8896 263.47 66.5776 266.03 66.1731C268.758 65.734 270.971 65.1792 272.173 64.4396C277.663 61.1691 281.524 105.91 281.524 105.91Z" fill="#F8BDC5"/>
<path d="M327.691 164.479L325.668 177.902C325.668 177.902 321.259 183.392 321.837 186.443C322.415 189.494 327.5 324.324 327.5 324.324C327.5 324.324 337.469 381.264 334.007 388.585C330.546 395.906 333.805 412.992 333.805 412.992L354.551 409.739L361.486 160.816L327.691 164.479Z" fill="#474463"/>
<path opacity="0.1" d="M327.691 164.479L325.668 177.902C325.668 177.902 321.259 183.392 321.837 186.443C322.415 189.494 327.5 324.324 327.5 324.324C327.5 324.324 337.469 381.264 334.007 388.585C330.546 395.906 333.805 412.992 333.805 412.992L354.551 409.739L361.486 160.816L327.691 164.479Z" fill="black"/>
<path d="M373.454 416.448C372.795 417.54 372.847 420.753 373.032 423.486C373.194 425.838 373.454 427.837 373.454 427.837V441.664C373.454 441.664 351.286 433.939 339.081 425.803C334.048 422.446 332.615 419.325 332.892 416.829C333.296 413.276 337.168 410.959 339.081 410.959C340.907 410.959 346.675 407.775 351.402 404.961C355.117 402.759 358.203 400.789 358.203 400.789C358.203 400.789 374.673 414.414 373.454 416.448Z" fill="#575988"/>
<path opacity="0.1" d="M373.454 416.448C372.795 417.54 372.847 420.753 373.032 423.486C368.103 421.175 352.841 406.371 351.402 404.961C355.117 402.759 358.203 400.789 358.203 400.789C358.203 400.789 374.673 414.414 373.454 416.448Z" fill="black"/>
<path d="M419.014 173.834L413.727 193.359C413.727 193.359 410.675 199.253 410.259 202.102C409.843 204.951 407.006 209.221 407.006 209.221C405.722 212.031 405.029 215.076 404.972 218.166C404.769 223.661 400.927 249.079 396.633 253.35L395.616 269.824C395.616 269.824 391.571 272.666 394.396 276.758C397.222 280.849 396.228 291.4 396.228 291.4C396.228 291.4 392.362 294.451 394.807 297.502C397.251 300.553 395.616 309.503 395.616 309.503C395.616 309.503 393.379 312.346 394.396 313.976C395.413 315.605 393.391 357.498 393.391 357.498L388.502 378.034C388.502 378.034 386.26 395.12 385.035 400.205C383.809 405.29 383.815 411.588 383.815 411.588C383.815 411.588 378.528 422.775 374.662 422.168C370.796 421.562 352.089 403.25 352.089 403.25L354.73 341.422C354.73 341.422 356.967 315.189 355.545 310.104C354.123 305.019 353.106 279.6 353.106 279.6L350.257 239.539L321.814 194.798C321.814 194.798 319.751 181.78 325.645 177.92L326.714 170.887L327.679 164.497L361.445 160.833L413.103 147.416C413.103 147.416 417.084 149.872 419.17 156.003C420.598 160.134 421.147 165.959 419.014 173.834Z" fill="#474463"/>
<path d="M329.136 194.405C329.136 194.405 305.136 223.874 306.153 215.64C306.789 210.469 303.506 204.153 300.952 200.16C299.444 197.785 298.196 196.231 298.196 196.231C298.196 196.231 312.839 169.391 313.654 173.049C313.914 174.204 315.607 176.856 317.786 179.884C322.38 186.229 329.136 194.405 329.136 194.405Z" fill="#FFC1C8"/>
<path opacity="0.3" d="M373.454 438.787V441.676C373.454 441.676 351.286 433.95 339.081 425.814C334.048 422.457 332.615 419.337 332.892 416.841C339.63 420.25 352.164 426.751 355.961 429.68C359.186 432.165 367.519 436.1 373.454 438.787Z" fill="white"/>
<path d="M368.235 449.76C371.979 449.76 375.014 446.725 375.014 442.982C375.014 439.238 371.979 436.204 368.235 436.204C364.492 436.204 361.457 439.238 361.457 442.982C361.457 446.725 364.492 449.76 368.235 449.76Z" fill="#474463"/>
<path d="M298.993 440.243C302.737 440.243 305.772 437.208 305.772 433.465C305.772 429.722 302.737 426.687 298.993 426.687C295.249 426.687 292.214 429.722 292.214 433.465C292.214 437.208 295.249 440.243 298.993 440.243Z" fill="#474463"/>
<path d="M399.545 435.875C399.507 436.357 399.372 436.827 399.147 437.256L395.101 441.664L338.561 440.757L323.357 440.509C323.357 440.509 291.353 434.684 285.118 431.968C278.883 429.253 254.369 424.283 254.369 424.283C254.369 424.283 239.563 421.799 237.39 414.616C236.656 412.183 237.026 410.444 237.829 409.208C239.407 406.787 242.678 406.278 242.678 406.278C249.359 404.305 256.502 404.569 263.02 407.029L357.793 431.408L359.261 431.783C359.261 431.783 393.044 431.154 393.726 431.275C398.91 432.223 399.667 434.424 399.545 435.875Z" fill="#3A0F5B"/>
<path opacity="0.3" d="M399.545 435.875C393.859 435.135 383.942 434.043 381.388 435.094C381.388 435.094 363.352 432.864 338.538 440.757L323.357 440.509C323.357 440.509 291.353 434.684 285.118 431.968C278.883 429.253 254.369 424.283 254.369 424.283C254.369 424.283 239.563 421.799 237.39 414.616C236.656 412.184 237.026 410.444 237.829 409.208C238.841 412.155 240.788 416.425 243.897 417.621C248.78 419.499 268.85 423.324 268.85 423.324L308.574 433.049C308.574 433.049 331.511 438.024 340.439 434.782C344.097 433.465 350.962 432.292 357.776 431.373L359.244 431.749C359.244 431.749 393.027 431.119 393.709 431.24C398.91 432.223 399.667 434.424 399.545 435.875Z" fill="white"/>
<path d="M344.687 428.553C344.639 429.405 344.532 430.253 344.369 431.09C344.369 431.09 321.901 431.893 310.204 430.16C306.974 429.68 305.148 428.646 304.24 427.409C303.835 426.825 303.584 426.148 303.511 425.441C303.437 424.734 303.543 424.02 303.819 423.364C303.948 422.988 304.112 422.624 304.31 422.278C305.182 420.753 306.523 419.672 307.257 419.817C309.291 420.227 312.782 416.055 312.782 416.055C312.504 413.507 316.509 412.588 317.133 413.004C317.244 413.09 317.376 413.145 317.515 413.165C317.654 413.185 317.796 413.168 317.927 413.117C318.058 413.066 318.173 412.982 318.262 412.873C318.351 412.764 318.41 412.634 318.433 412.495C318.474 412.305 318.485 411.386 318.485 410.311C318.485 408.52 318.433 406.266 318.433 406.266L341.017 409.011L341.913 413.328C342.733 417.176 343.878 422.463 344.369 424.272C344.71 425.672 344.818 427.118 344.687 428.553Z" fill="#474463"/>
<path opacity="0.1" d="M344.687 428.553C344.638 429.405 344.532 430.253 344.369 431.09C344.369 431.09 321.901 431.893 310.204 430.16C306.974 429.68 305.148 428.646 304.24 427.409C307.24 427.23 311.14 427.132 313.556 427.721C317 428.577 337.602 428.577 344.687 428.553Z" fill="black"/>
<path d="M304.287 422.267C304.311 422.475 304.278 422.687 304.192 422.878C304.105 423.069 303.968 423.234 303.795 423.353C300.952 425.549 287.308 423.162 287.308 423.162C287.308 423.162 259.431 421.429 255.264 418.586C254.888 418.339 254.574 418.009 254.346 417.621C252.612 414.489 258.888 409.231 259.431 409.231C259.974 409.231 267.469 408.208 267.972 408.11C271.439 407.411 274.907 405.261 275.485 405.874C276.063 406.486 278.952 405.059 280.362 404.857C280.876 404.781 281.113 404.053 281.2 403.123C281.281 401.864 281.239 400.6 281.073 399.35L303.339 405.342L303.535 408.89L304.177 420.701L304.258 422.151C304.272 422.188 304.281 422.227 304.287 422.267Z" fill="#474463"/>
<path opacity="0.1" d="M287.331 423.162C287.331 423.162 259.454 421.429 255.287 418.586C254.911 418.339 254.597 418.009 254.369 417.621C260.015 418.083 269.428 418.863 271.127 419.297C273.572 419.874 287.308 420.718 287.308 420.718H304.2L304.281 422.168C305.015 426.259 287.331 423.162 287.331 423.162Z" fill="black"/>
<path d="M265.048 440.243C268.792 440.243 271.827 437.208 271.827 433.465C271.827 429.722 268.792 426.687 265.048 426.687C261.304 426.687 258.269 429.722 258.269 433.465C258.269 437.208 261.304 440.243 265.048 440.243Z" fill="#474463"/>
<path d="M338.671 454.313C342.415 454.313 345.449 451.278 345.449 447.535C345.449 443.792 342.415 440.757 338.671 440.757C334.927 440.757 331.892 443.792 331.892 447.535C331.892 451.278 334.927 454.313 338.671 454.313Z" fill="#474463"/>
<path d="M269.729 202.917C269.729 202.917 268.446 205.228 266.516 208.66C261.893 216.819 253.577 231.282 250 235.859C244.914 242.365 245.325 236.269 239.829 222.644C235.749 212.509 248.307 200.912 255.022 195.642C257.333 193.81 258.951 192.753 258.951 192.753L269.729 202.917Z" fill="#F8BDC5"/>
<path d="M294.335 218.576C294.335 218.576 277.455 219.997 274.202 221.014C270.948 222.031 256.917 221.419 255.709 221.014C254.501 220.61 230.484 226.099 241.47 231.588C252.456 237.078 259.385 231.588 259.385 231.588C259.385 231.588 273.624 230.774 277.299 233.016C280.974 235.258 294.381 234.033 294.381 234.033L294.335 218.576Z" fill="#FFC1C8"/>
<path opacity="0.1" d="M259.269 94.117C261.35 99.4388 260.049 104.073 257.599 108.829C251.462 109.984 245.689 111.573 242.476 113.636C233.322 119.536 240.239 67.6755 240.239 67.6755C240.239 67.6755 244.666 67.6755 250.277 67.4501C248.578 75.2046 255.016 83.2538 259.269 94.117Z" fill="black"/>
<path d="M259.789 92.9613C259.778 101.479 256.632 109.694 250.95 116.041C245.269 122.387 237.45 126.42 228.984 127.37C220.519 128.321 212 126.122 205.053 121.193C198.105 116.265 193.215 108.951 191.316 100.648C189.416 92.3448 190.64 83.6331 194.754 76.1745C198.868 68.7159 205.583 63.0325 213.62 60.2084C221.656 57.3843 230.452 57.6172 238.327 60.8627C246.203 64.1081 252.609 70.139 256.322 77.8048C258.61 82.5294 259.796 87.7118 259.789 92.9613Z" fill="#F8BDC5"/>
<path opacity="0.1" d="M419.182 155.985C418.084 157.583 416.44 158.723 414.559 159.192C406.624 161.428 350.691 174.851 347.033 174.037C343.802 173.32 329.939 171.327 326.743 170.87L327.708 164.479L361.474 160.816L413.131 147.399C413.131 147.399 417.096 149.854 419.182 155.985Z" fill="black"/>
<path opacity="0.1" d="M281.523 105.91C274.912 106.307 268.325 107.04 261.789 108.106C261.881 107.809 261.869 107.488 261.754 107.199L275.276 105.529C275.276 105.529 273.3 73.7484 266.03 66.1326C268.758 65.6935 270.971 65.1388 272.173 64.3991C277.663 61.1691 281.523 105.91 281.523 105.91Z" fill="black"/>
<path d="M263.834 58.1817C263.834 58.1817 275.837 57.1011 277.461 55.0672C279.085 53.0332 290.683 52.4265 290.683 52.4265C290.683 52.4265 296.375 51.4095 297.618 49.9823C298.86 48.555 329.748 46.7291 332.799 48.3586C335.851 49.988 338.7 50.9992 340.532 51.2073C342.363 51.4153 356.597 61.5735 358.018 61.5735C359.44 61.5735 398.471 98.3871 398.471 98.3871C398.471 98.3871 402.516 107.742 404.169 108.147C405.821 108.551 420.442 145.567 420.442 145.567C420.442 145.567 422.476 154.512 414.547 156.754C406.619 158.996 350.679 172.413 347.021 171.598C343.363 170.783 326.073 168.345 326.073 168.345C326.073 168.345 326.275 168.345 325.871 166.109C325.466 163.873 324.854 164.479 325.663 162.445C326.472 160.411 327.292 160.614 326.275 159.394C325.258 158.175 326.275 157.563 323.022 155.529C319.768 153.495 316.087 151.259 315.902 150.652C315.717 150.045 312.851 145.971 311.429 145.769C310.008 145.567 270.139 134.38 270.139 134.38L260.783 131.329C260.783 131.329 256.31 128.278 257.316 126.452C258.321 124.626 261.783 108.106 261.783 108.106L276.086 106.344C276.086 106.344 273.953 71.9051 265.944 66.1268C257.934 60.3485 263.834 58.1817 263.834 58.1817Z" fill="#3A0F5B"/>
<path opacity="0.1" d="M269.729 202.917C269.729 202.917 268.446 205.228 266.516 208.66C266.215 198.051 258.795 195.994 255.022 195.642C257.333 193.81 258.951 192.753 258.951 192.753L269.729 202.917Z" fill="black"/>
<path d="M259.789 125.84L260.772 131.329C260.772 131.329 264.638 136.01 264.638 137.431C264.638 138.853 269.111 142.92 270.336 145.157C271.561 147.393 275.826 147.803 274.196 151.669C272.566 155.535 263.216 185.021 263.216 185.021L253.658 195.595C253.658 195.595 269.521 194.168 267.076 213.081L287.62 195.168L303.709 165.901C303.709 165.901 288.048 136.212 287.441 133.773C286.834 131.335 259.789 125.84 259.789 125.84Z" fill="#3A0F5B"/>
<path opacity="0.1" d="M307.355 136.01C307.355 136.01 320.369 126.857 320.369 125.84C320.369 124.823 307.355 136.01 307.355 136.01Z" fill="black"/>
<path opacity="0.1" d="M329.136 147.399C329.136 147.399 336.07 145.769 336.648 142.112C337.226 138.454 329.136 147.399 329.136 147.399Z" fill="black"/>
<path opacity="0.1" d="M334.81 156.754C334.81 156.754 344.577 151.917 344.166 151.079C343.756 150.242 334.81 156.754 334.81 156.754Z" fill="black"/>
<path opacity="0.1" d="M387.08 125.776C387.08 125.776 383.035 128.417 384.237 130.89C385.439 133.363 387.08 125.776 387.08 125.776Z" fill="black"/>
<path opacity="0.1" d="M399.06 126.857C399.06 126.857 387.537 137.836 390.143 138.044C392.749 138.252 399.06 126.857 399.06 126.857Z" fill="black"/>
<path opacity="0.1" d="M372.847 297.074C372.847 297.074 387.693 299.923 388.097 300.94C388.502 301.957 372.847 297.074 372.847 297.074Z" fill="black"/>
<path opacity="0.1" d="M378.135 306.833C378.135 306.833 386.063 311.716 386.266 313.138C386.468 314.559 378.135 306.833 378.135 306.833Z" fill="black"/>
<path opacity="0.1" d="M376.303 317.818C376.303 317.818 377.522 323.308 379.556 324.122C381.59 324.937 376.303 317.818 376.303 317.818Z" fill="black"/>
<path opacity="0.1" d="M256.357 77.6257C256.357 77.6835 256.357 77.747 256.328 77.8048C256.05 79.6134 255.311 81.5723 253.612 82.1732C252.585 82.462 251.488 82.3611 250.531 81.8901C247.642 80.6246 245.07 77.5852 241.985 78.3191C240.517 78.6658 239.488 79.781 238.76 81.1505C238.255 82.1362 237.867 83.1776 237.604 84.2534C237.026 86.5185 236.564 88.9801 237.448 91.1354C237.594 91.4879 237.767 91.828 237.968 92.1523C238.789 93.464 239.945 94.5792 240.754 95.9025C241.759 97.555 242.019 100.034 240.453 101.166C240.06 101.425 239.615 101.592 239.149 101.657C238.683 101.722 238.209 101.683 237.76 101.542C236.613 101.182 235.51 100.693 234.472 100.086C232.426 99.017 229.849 98.3525 227.907 99.589C227.237 100.005 226.699 100.606 226.058 101.045C224.725 101.871 223.143 102.2 221.591 101.975C217.915 101.6 216.54 99.2712 213.732 97.4684C211.674 96.1394 207.375 95.5731 206.15 98.2889C205.364 100.022 206.531 102.207 205.763 103.975C204.994 105.743 202.549 106.286 201.417 107.927C199.926 110.088 201.313 113.214 200.221 115.612C200.053 115.984 199.829 116.327 199.556 116.629C193.432 110.031 190.106 101.316 190.276 92.3158C190.447 83.3158 194.101 74.7327 200.471 68.3713C206.84 62.01 215.428 58.3662 224.429 58.2062C233.43 58.0463 242.143 61.3826 248.734 67.5137L250.295 67.4559C251.814 67.3981 253.427 67.3172 255.051 67.219C255.434 68.0319 255.735 68.8819 255.946 69.7556C256.575 72.3301 256.714 74.9998 256.357 77.6257Z" fill="black"/>
<path d="M205.323 97.4799C204.532 99.2134 205.699 101.398 204.936 103.16C204.173 104.922 201.711 105.471 200.59 107.112C199.094 109.279 200.481 112.405 199.394 114.797C198.146 117.531 194.378 117.958 191.489 117.161C189.02 116.456 186.755 115.174 184.88 113.421C183.005 111.667 181.574 109.493 180.705 107.078C178.746 101.502 180.012 95.3651 179.503 89.477C179.287 86.9538 178.743 84.4694 177.885 82.0865C177.047 79.7752 175.903 77.4986 175.631 75.0428C175.437 72.9591 175.872 70.865 176.879 69.0306C177.886 67.1962 179.42 65.7058 181.283 64.7516C183.664 63.596 186.594 63.2666 188.328 61.2847C189.657 59.7476 189.94 57.6039 190.558 55.6682C192.228 50.4677 197.215 46.2264 202.694 46.2784C207.074 46.3131 211.362 48.896 215.644 47.879C218.066 47.3012 220.267 45.5677 222.764 45.8162C223.96 46.0042 225.105 46.4306 226.133 47.0701C232.78 50.6597 239.104 54.8163 245.036 59.4934C246.263 60.55 247.606 61.4631 249.04 62.215C249.964 62.5749 250.865 62.9897 251.739 63.4573C253.606 64.613 254.582 66.8145 255.114 68.9525C255.752 71.5253 255.897 74.1957 255.542 76.8225C255.287 78.6773 254.559 80.7575 252.797 81.3758C251.767 81.663 250.667 81.558 249.711 81.0811C246.821 79.8272 244.256 76.7878 241.17 77.5159C238.65 78.0937 237.436 80.9482 236.778 83.4502C236.2 85.7153 235.726 88.1769 236.622 90.338C237.361 92.1292 238.933 93.4409 239.921 95.0993C240.91 96.7576 241.193 99.2365 239.621 100.363C237.887 101.617 235.535 100.282 233.634 99.2885C231.6 98.2196 229.011 97.5551 227.075 98.7858C226.41 99.2019 225.873 99.8028 225.226 100.248C223.891 101.065 222.314 101.392 220.764 101.172C217.083 100.797 215.708 98.468 212.905 96.6652C210.842 95.3246 206.554 94.7584 205.323 97.4799Z" fill="#474463"/>
<path opacity="0.1" d="M317.792 179.855C317.636 180.722 316.445 180.82 316.202 181.664C313.891 189.817 308.806 197.15 300.958 200.155C299.45 197.78 298.201 196.225 298.201 196.225C298.201 196.225 312.845 169.385 313.66 173.043C313.92 174.181 315.613 176.828 317.792 179.855Z" fill="black"/>
<path d="M318.225 174.239C318.226 179.549 316.653 184.74 313.703 189.155C310.754 193.571 306.561 197.013 301.655 199.045C296.749 201.078 291.351 201.611 286.142 200.575C280.934 199.54 276.149 196.984 272.394 193.23C268.638 189.475 266.081 184.692 265.044 179.484C264.008 174.276 264.539 168.878 266.571 163.972C268.603 159.067 272.044 154.874 276.46 151.923C280.875 148.973 286.066 147.399 291.376 147.399C294.905 147.386 298.402 148.071 301.665 149.415C304.928 150.759 307.893 152.736 310.388 155.231C312.884 157.725 314.861 160.689 316.206 163.952C317.551 167.214 318.237 170.71 318.225 174.239Z" fill="#FFC1C8"/>
<path opacity="0.1" d="M303.385 405.359L303.581 408.907C301.229 409.427 296.757 410.109 294.15 408.514C290.781 406.451 285.806 405.949 281.246 403.14C281.327 401.882 281.285 400.618 281.119 399.367L303.385 405.359Z" fill="black"/>
<path opacity="0.1" d="M341.913 413.339C341.757 414.131 341.612 414.616 341.612 414.616C341.612 414.616 323.669 412.779 318.497 410.3C318.497 408.508 318.445 406.255 318.445 406.255L341.029 409L341.913 413.339Z" fill="black"/>
<path d="M337.862 332.663C336.643 335.916 336.03 336.528 337.255 338.152C338.48 339.776 337.862 348.322 335.92 349.131C333.978 349.94 326.674 354.822 326.674 354.822C326.674 354.822 330.719 360.109 330.841 362.334C330.947 363.755 331.497 365.108 332.412 366.2C332.412 366.2 338.677 379.623 339.925 383.893C341.173 388.163 342.317 394.872 342.317 394.872C342.317 394.872 340.127 400.974 341.641 404.435C343.155 407.896 341.641 412.975 341.641 412.975C341.641 412.975 319.791 410.739 317.37 407.867C314.949 404.995 316.561 398.535 316.561 398.535C316.062 395.656 315.027 392.897 313.51 390.399C311.065 386.534 314.088 382.471 313.51 382.263C312.932 382.055 311.065 379.825 309.228 376.167C307.39 372.51 306.246 373.925 306.246 373.925C306.246 373.925 308.627 394.467 306.246 396.299C303.865 398.131 303.541 397.316 304.154 399.766C304.628 402.118 304.968 404.494 305.171 406.885C305.171 406.885 297.849 409.121 294.191 406.885C290.533 404.649 285.026 404.238 280.189 400.783C275.352 397.327 282.379 391.428 283.598 390.613C284.818 389.798 283.194 378.005 283.194 378.005L281.564 366.414C281.564 366.414 287.054 367.633 285.251 363.16C283.448 358.688 281.362 343.231 280.345 340.793C279.328 338.354 283.812 335.095 283.194 333.471C282.575 331.848 285.835 322.493 285.835 322.493C285.835 322.493 286.043 314.767 288.071 313.317C288.845 312.774 289.348 311.086 289.683 309.22C290.039 307.017 290.249 304.794 290.313 302.563C290.313 302.563 336.885 299.31 344.409 303.783C347.796 305.793 347.559 309.497 346.143 313.247C344.409 317.824 340.85 322.493 339.954 324.186C338.272 327.306 339.081 329.409 337.862 332.663Z" fill="#575988"/>
<path opacity="0.1" d="M346.085 313.247C340.306 314.871 332.609 317.258 331.355 318.627C329.321 320.869 322.403 306.019 322.403 306.019C322.403 306.019 322.814 317.182 313.66 312.514C305.737 308.469 292.948 309 289.643 309.22C289.998 307.017 290.209 304.794 290.273 302.563C290.273 302.563 336.845 299.31 344.369 303.783C347.755 305.793 347.518 309.497 346.085 313.247Z" fill="black"/>
<path d="M322.403 190.308C322.403 190.308 326.448 185.426 327.286 187.257C328.124 189.089 332.898 192.747 332.898 192.747C332.898 192.747 334.267 197.017 336.677 197.629C339.087 198.242 357.186 222.644 357.186 222.644L350.674 235.859L345.386 267.992C345.386 267.992 345.617 273.077 344.178 274.926C342.739 276.775 337.243 276.347 339.792 278.583C342.34 280.82 345.998 282.854 348.033 293.029C350.067 303.205 352.505 309.093 352.505 309.093C352.505 309.093 333.389 313.975 331.355 316.212C329.321 318.448 322.403 303.603 322.403 303.603C322.403 303.603 322.814 314.761 313.66 310.098C304.506 305.435 288.845 306.857 288.845 306.857V294.838C288.845 294.838 291.897 290.157 290.273 286.904C288.649 283.651 291.382 277.549 291.382 277.549C291.382 277.549 290.475 271.245 288.845 267.587C287.216 263.93 287.828 246.641 287.828 246.641C287.828 246.641 286.592 235.454 287.719 229.757C288.675 224.818 290.363 220.051 292.729 215.611C294.965 211.255 296.381 207.187 295.774 205.557C295.167 203.928 301.143 200.403 301.143 200.403L304.454 205.759L305.298 208.961C305.298 208.961 322.814 196.41 322.403 190.308Z" fill="#DCE6F2"/>
<path d="M351.673 218.576C351.673 218.576 363.063 229.757 364.283 231.588C365.502 233.42 369.588 242.943 364.3 245.832C359.012 248.721 338.295 253.176 336.238 251.639C334.18 250.102 321.791 253.373 321.791 253.373C321.791 253.373 301.068 258.458 305.54 250.12C310.013 241.781 320.594 243.186 320.594 243.186C320.594 243.186 337.688 243.157 339.514 241.452C341.341 239.747 355.117 236.09 351.997 228.555C348.876 221.02 351.673 218.576 351.673 218.576Z" fill="#FFC1C8"/>
<path opacity="0.1" d="M318.225 268.604C318.225 268.604 291.694 291.585 294.335 291.585C296.976 291.585 318.225 268.604 318.225 268.604Z" fill="black"/>
<path opacity="0.1" d="M335.92 277.959C335.92 277.959 327.489 279.988 329.118 281.213C330.748 282.438 335.92 277.959 335.92 277.959Z" fill="black"/>
<path opacity="0.1" d="M306.188 222.233C306.188 222.233 316.711 223.175 314.856 226.469C313.001 229.763 306.188 222.233 306.188 222.233Z" fill="black"/>
<path opacity="0.1" d="M299.629 321.002C299.629 321.002 298.201 325.139 299.629 327.358C301.056 329.577 299.629 334.87 299.629 334.87V353.36C299.629 353.36 299.432 366.783 304.304 371.458L299.629 321.002Z" fill="black"/>
<path opacity="0.1" d="M285.696 378.623C285.696 378.623 288.539 382.789 288.949 384.315C289.36 385.84 285.696 378.623 285.696 378.623Z" fill="black"/>
<path opacity="0.1" d="M286.407 370.285C286.407 370.285 293.018 369.066 294.035 369.777C295.052 370.487 286.407 370.285 286.407 370.285Z" fill="black"/>
<path opacity="0.1" d="M284.477 395.195C284.477 395.195 282.541 395.398 286.407 397.507C290.273 399.616 297.797 402.285 297.895 401.372C297.993 400.459 284.477 395.195 284.477 395.195Z" fill="black"/>
<path opacity="0.1" d="M312.776 374.96C313.457 374.96 321.97 374.451 321.479 375.774C320.987 377.098 312.776 374.96 312.776 374.96Z" fill="black"/>
<path opacity="0.1" d="M324.339 363.062C324.339 363.062 326.269 359.711 326.98 361.132C327.691 362.554 324.339 363.062 324.339 363.062Z" fill="black"/>
<path opacity="0.1" d="M318.225 174.239C318.228 176.734 317.882 179.218 317.197 181.618C316.075 182.635 314.139 182.646 312.758 181.889C311.14 180.999 310.083 179.382 309.031 177.845C307.979 176.308 306.783 174.77 305.061 174.112C302.882 173.291 300.397 174.112 298.502 175.475C296.606 176.839 295.092 178.642 293.301 180.098C291.509 181.554 289.227 182.733 286.944 182.375C285.471 182.149 284.165 181.317 282.899 180.514C281.165 179.422 279.304 177.723 277.403 176.989C275.502 176.255 273.936 177.567 272.127 177.567C270.688 178.087 269.122 179.272 269.411 180.768C269.566 181.324 269.816 181.848 270.151 182.317C270.731 183.461 270.961 184.751 270.81 186.025C270.658 187.299 270.134 188.5 269.301 189.476C266.906 186.014 265.359 182.036 264.784 177.865C264.21 173.694 264.625 169.447 265.996 165.466C267.367 161.485 269.654 157.882 272.675 154.948C275.695 152.015 279.363 149.832 283.382 148.578C287.402 147.323 291.66 147.032 295.813 147.726C299.966 148.421 303.897 150.083 307.289 152.577C310.681 155.072 313.439 158.329 315.34 162.086C317.241 165.843 318.231 169.994 318.231 174.204L318.225 174.239Z" fill="black"/>
<path d="M272.121 176.787C270.682 177.307 269.116 178.492 269.399 179.994C269.56 180.546 269.812 181.068 270.145 181.537C271.832 184.547 270.405 188.87 267.255 190.268C266.762 190.525 266.198 190.614 265.649 190.522C265.214 190.387 264.817 190.149 264.493 189.829C262.799 188.315 261.631 186.301 261.159 184.079C260.662 181.768 260.968 179.318 260.714 176.943C260.46 174.568 259.645 172.228 259.362 169.836C259.161 168.653 259.287 167.439 259.726 166.323C260.107 165.586 260.598 164.912 261.182 164.323C262.806 162.515 264.499 160.666 265.314 158.372C266.602 154.72 265.666 150.068 268.486 147.393C269.792 146.168 271.619 145.711 273.237 144.937C274.76 144.128 276.219 143.203 277.6 142.169C282.83 138.575 289.186 135.813 295.404 137.084C297.889 137.686 300.268 138.66 302.46 139.974C306.533 142.218 310.401 144.817 314.018 147.74C315.582 148.897 316.949 150.3 318.063 151.894C318.894 153.259 319.491 154.753 319.832 156.315C320.662 159.721 320.776 163.263 320.167 166.716C319.589 170.102 318.277 173.389 318.225 176.828C318.225 177.983 318.318 179.231 317.722 180.225C316.769 181.808 314.405 181.959 312.787 181.08C311.169 180.202 310.112 178.573 309.066 177.036C308.02 175.499 306.818 173.962 305.096 173.309C302.917 172.482 300.432 173.309 298.537 174.666C296.641 176.024 295.133 177.833 293.336 179.289C291.538 180.745 289.29 181.924 286.979 181.566C285.505 181.34 284.199 180.514 282.934 179.711C281.2 178.613 279.339 176.914 277.444 176.186C275.548 175.458 273.924 176.787 272.121 176.787Z" fill="#794F6A"/>
<path d="M333.793 218.576C333.793 218.576 303.899 246.231 309.996 260.058C316.093 273.886 342.936 249.484 342.936 249.484L352.505 227.341L333.793 218.576Z" fill="#F8BDC5"/>
<g opacity="0.1">
<path opacity="0.1" d="M267.244 188.627C266.752 188.884 266.19 188.973 265.643 188.881C265.206 188.747 264.809 188.507 264.487 188.182C262.793 186.67 261.624 184.658 261.147 182.438C260.656 180.098 260.962 177.671 260.708 175.296C260.454 172.921 259.633 170.587 259.356 168.189C259.356 168.073 259.356 167.952 259.327 167.831C259.264 168.492 259.274 169.159 259.356 169.818C259.633 172.211 260.454 174.522 260.708 176.926C260.962 179.33 260.656 181.728 261.147 184.062C261.622 186.284 262.792 188.298 264.487 189.811C264.811 190.133 265.207 190.371 265.643 190.505C266.19 190.597 266.752 190.508 267.244 190.251C269.729 189.147 271.133 186.24 270.804 183.582C270.683 184.655 270.294 185.68 269.671 186.562C269.049 187.443 268.214 188.154 267.244 188.627Z" fill="black"/>
<path opacity="0.1" d="M320.126 165.08C319.548 168.466 318.237 171.754 318.19 175.192C318.19 176.348 318.283 177.596 317.682 178.59C316.734 180.173 314.371 180.323 312.753 179.445C311.134 178.567 310.077 176.943 309.025 175.4C307.973 173.857 306.783 172.326 305.055 171.673C302.882 170.853 300.397 171.673 298.502 173.037C296.606 174.401 295.092 176.198 293.301 177.66C291.509 179.121 289.227 180.294 286.944 179.942C285.47 179.711 284.164 178.885 282.899 178.081C281.165 176.984 279.304 175.29 277.409 174.557C275.513 173.823 273.942 175.134 272.133 175.134C270.694 175.66 269.128 176.839 269.405 178.347C269.441 178.51 269.493 178.669 269.561 178.821C270.127 177.835 271.046 177.1 272.133 176.764C273.936 176.764 275.531 175.47 277.409 176.186C279.287 176.903 281.183 178.613 282.899 179.711C284.153 180.514 285.459 181.34 286.944 181.566C289.256 181.924 291.521 180.763 293.301 179.289C295.081 177.816 296.612 175.995 298.502 174.666C300.392 173.337 302.882 172.482 305.055 173.309C306.789 173.961 307.979 175.516 309.025 177.036C310.071 178.555 311.134 180.167 312.753 181.08C314.371 181.993 316.734 181.808 317.682 180.225C318.26 179.231 318.173 177.989 318.19 176.828C318.237 173.389 319.531 170.102 320.126 166.715C320.431 164.976 320.555 163.21 320.496 161.446C320.459 162.664 320.336 163.879 320.126 165.08Z" fill="black"/>
</g>
<path opacity="0.1" d="M297.999 77.8453C297.999 77.8453 287.019 97.7746 302.044 107.944C317.069 118.114 318.52 117.097 318.52 117.097C318.52 117.097 318.312 119.536 318.52 120.148C318.728 120.761 322.565 122.176 322.565 122.176C322.565 122.176 327.24 129.688 333.949 132.959C340.659 136.229 341.884 143.937 341.884 143.937C341.884 143.937 341.884 146.584 345.351 149.022C348.818 151.461 351.488 158.58 351.488 158.58V165.092C351.488 166.109 352.708 169.137 350.067 169.46C347.426 169.784 349.656 175.868 349.656 175.868C349.656 175.868 346.813 179.335 347.42 180.953C348.027 182.571 346.201 185.83 346.201 185.83C346.201 185.83 343.964 189.083 344.167 189.696C344.369 190.308 341.728 192.545 342.335 193.966C342.941 195.387 339.289 197.219 339.896 198.849C340.503 200.478 337.295 201.287 337.295 201.287L328.506 221.627C328.506 221.627 346.998 225.672 351.771 235.859L375.083 193.151C375.083 193.151 388.097 161.226 388.508 159.192C388.918 157.158 385.659 149.837 385.659 149.837L369.796 120.946L345.998 87.391C345.998 87.391 327.084 47.1394 297.999 77.8453Z" fill="black"/>
<path opacity="0.1" d="M321.479 86.2527C321.479 86.2527 292.908 96.278 307.956 106.448C323.004 116.618 324.432 115.595 324.432 115.595C324.432 115.595 324.229 118.039 324.432 118.646C324.634 119.253 328.477 120.68 328.477 120.68C328.477 120.68 333.158 128.192 339.867 131.462C346.576 134.733 347.801 142.441 347.801 142.441C347.801 142.441 347.801 145.087 351.269 147.526C354.736 149.964 357.371 157.083 357.371 157.083V163.589C357.371 164.606 358.59 167.634 355.944 167.964C353.297 168.293 355.539 174.372 355.539 174.372C355.539 174.372 352.69 177.839 353.303 179.451C353.915 181.063 352.083 184.334 352.083 184.334C352.083 184.334 349.847 187.587 350.049 188.199C350.252 188.812 347.605 191.048 348.217 192.469C348.83 193.891 345.166 195.723 345.779 197.352C346.391 198.982 343.172 199.79 343.172 199.79L334.389 220.124C334.389 220.124 349.622 220.91 354.43 231.103L380.96 191.678C380.96 191.678 393.98 159.753 394.385 157.719C394.789 155.685 391.547 148.341 391.547 148.341L375.684 119.449L339.497 98.5778C339.497 98.5778 350.564 55.541 321.479 86.2527Z" fill="black"/>
<path d="M299.629 77.8453C299.629 77.8453 288.649 97.7746 303.674 107.944C318.699 118.114 320.149 117.097 320.149 117.097C320.149 117.097 319.947 119.536 320.149 120.148C320.352 120.761 324.195 122.176 324.195 122.176C324.195 122.176 328.875 129.688 335.585 132.959C342.294 136.229 343.519 143.937 343.519 143.937C343.519 143.937 343.519 146.584 346.986 149.022C350.454 151.461 353.118 158.58 353.118 158.58V165.092C353.118 166.109 354.337 169.137 351.691 169.46C349.044 169.784 351.286 175.868 351.286 175.868C351.286 175.868 348.437 179.335 349.05 180.953C349.662 182.571 347.83 185.83 347.83 185.83C347.83 185.83 345.594 189.083 345.796 189.696C345.998 190.308 343.352 192.545 343.964 193.966C344.577 195.387 340.913 197.219 341.525 198.849C342.138 200.478 338.919 201.287 338.919 201.287L330.135 221.627C330.135 221.627 348.593 225.671 353.395 235.859L376.707 193.151C376.707 193.151 389.727 161.226 390.132 159.192C390.536 157.158 387.283 149.837 387.283 149.837L371.42 120.946L347.628 87.4026C347.628 87.4026 328.708 47.1394 299.629 77.8453Z" fill="#3A0F5B"/>
<g opacity="0.1">
<path opacity="0.1" d="M179.503 87.8533C179.29 85.3278 178.746 82.8412 177.885 80.4571C177.047 78.1457 175.903 75.8691 175.631 73.4133C175.631 73.3382 175.631 73.2688 175.631 73.1937C175.571 73.8086 175.571 74.4279 175.631 75.0428C175.903 77.4986 177.047 79.7579 177.885 82.0865C178.746 84.4686 179.29 86.9533 179.503 89.477C179.584 90.4246 179.619 91.3838 179.63 92.3661C179.648 90.8349 179.63 89.3383 179.503 87.8533Z" fill="black"/>
<path opacity="0.1" d="M199.394 113.174C198.152 115.901 194.378 116.335 191.489 115.531C189.022 114.824 186.758 113.542 184.884 111.791C183.009 110.039 181.577 107.867 180.705 105.454C179.902 102.971 179.512 100.373 179.549 97.7631C179.515 100.947 179.636 104.09 180.705 107.078C181.577 109.492 183.009 111.664 184.883 113.417C186.758 115.17 189.022 116.453 191.489 117.161C194.378 117.958 198.152 117.531 199.394 114.797C199.92 113.642 199.868 112.301 199.845 110.984C199.834 111.736 199.681 112.479 199.394 113.174Z" fill="black"/>
<path opacity="0.1" d="M255.542 75.1872C255.293 77.0363 254.559 79.1165 252.797 79.7348C251.769 80.0217 250.672 79.9188 249.717 79.4458C246.827 78.1862 244.255 75.1468 241.17 75.8806C238.65 76.4585 237.442 79.3072 236.778 81.8149C236.296 83.3995 236.086 85.0545 236.159 86.7092C236.27 85.6031 236.477 84.5087 236.778 83.4386C237.442 80.9366 238.65 78.1053 241.17 77.5043C244.255 76.7763 246.804 79.8157 249.717 81.0695C250.671 81.5466 251.769 81.6516 252.797 81.3642C254.559 80.746 255.293 78.6658 255.542 76.8109C255.7 75.6296 255.758 74.4369 255.715 73.2457C255.686 73.8929 255.628 74.5458 255.542 75.1872Z" fill="black"/>
<path opacity="0.1" d="M239.621 98.728C237.887 99.9819 235.535 98.6471 233.634 97.6475C231.6 96.5785 229.011 95.914 227.075 97.1448C226.41 97.5608 225.873 98.1618 225.226 98.6067C223.894 99.4304 222.314 99.7578 220.764 99.5312C217.083 99.1556 215.708 96.827 212.905 95.0241C210.848 93.7009 206.548 93.1346 205.323 95.8504C205.029 96.65 204.948 97.512 205.086 98.3525C205.124 98.052 205.204 97.7583 205.323 97.4799C206.554 94.7583 210.848 95.3246 212.905 96.6536C215.708 98.4565 217.083 100.785 220.764 101.161C222.315 101.383 223.893 101.053 225.226 100.23C225.873 99.7912 226.41 99.1903 227.075 98.7743C229.028 97.5608 231.6 98.1964 233.634 99.277C235.535 100.271 237.876 101.588 239.621 100.352C240.638 99.6237 240.881 98.3293 240.655 97.0523C240.537 97.7223 240.167 98.3217 239.621 98.728Z" fill="black"/>
<path opacity="0.1" d="M204.936 101.536C204.144 103.351 201.712 103.848 200.59 105.483C199.752 106.696 199.822 108.21 199.851 109.73C199.84 108.804 200.097 107.895 200.59 107.112C201.712 105.477 204.144 104.974 204.936 103.16C205.213 102.371 205.289 101.524 205.156 100.698C205.12 100.986 205.046 101.268 204.936 101.536Z" fill="black"/>
</g>
</g>
<defs>
<linearGradient id="paint0_linear" x1="298.121" y1="453.787" x2="298.121" y2="41.91" gradientUnits="userSpaceOnUse">
<stop stop-color="#808080" stop-opacity="0.25"/>
<stop offset="0.54" stop-color="#808080" stop-opacity="0.12"/>
<stop offset="1" stop-color="#808080" stop-opacity="0.1"/>
</linearGradient>
<clipPath id="clip0">
<rect width="634" height="457" fill="white"/>
</clipPath>
</defs>
</svg>
