<svg width="638" height="480" viewBox="0 0 638 480" fill="none" xmlns="http://www.w3.org/2000/svg">
<g clip-path="url(#clip0)">
<path d="M503.957 308C428.817 308 369.957 294.383 369.957 277C369.957 266.578 390.813 257.279 427.177 251.489C427.307 251.467 427.44 251.472 427.568 251.502C427.696 251.532 427.817 251.587 427.924 251.664C428.031 251.742 428.121 251.839 428.19 251.951C428.26 252.063 428.306 252.188 428.326 252.318C428.347 252.448 428.342 252.581 428.311 252.709C428.28 252.837 428.225 252.958 428.147 253.065C428.069 253.171 427.971 253.261 427.859 253.33C427.746 253.398 427.621 253.444 427.491 253.464C393.236 258.919 371.957 267.937 371.957 277C371.957 292.72 432.405 306 503.957 306C575.508 306 635.957 292.72 635.957 277C635.957 267.899 614.541 258.859 580.067 253.407C579.806 253.365 579.572 253.221 579.416 253.007C579.261 252.792 579.197 252.525 579.238 252.264C579.279 252.002 579.423 251.768 579.637 251.612C579.851 251.456 580.118 251.391 580.38 251.432C616.971 257.218 637.957 266.538 637.957 277C637.957 294.383 579.097 308 503.957 308Z" fill="#CCCCCC"/>
<path d="M437.478 313.838C444.277 325.48 454.013 335.133 465.714 341.83C477.414 348.527 490.668 352.034 504.15 352C517.631 351.966 530.867 348.392 542.534 341.636C554.201 334.88 563.888 325.179 570.628 313.503C526.284 316.055 481.834 316.167 437.478 313.838Z" fill="#E6E6E6"/>
<path d="M577.999 292.123C581.276 280.631 581.833 268.535 579.627 256.791C577.421 245.047 572.511 233.977 565.287 224.459C558.063 214.94 548.722 207.233 538.005 201.949C527.287 196.664 515.487 193.947 503.538 194.011C491.588 194.076 479.818 196.921 469.158 202.321C458.498 207.721 449.242 215.528 442.121 225.124C435 234.72 430.21 245.842 428.131 257.61C426.052 269.377 426.74 281.467 430.141 292.922C479.254 299.051 528.955 298.782 577.999 292.123Z" fill="#E6E6E6"/>
<path d="M119.457 9C119.456 7.37287 119.015 5.77629 118.179 4.38014C117.343 2.98399 116.145 1.84051 114.711 1.07135C113.277 0.302191 111.662 -0.0638572 110.036 0.0121444C108.411 0.088146 106.837 0.603355 105.481 1.50296C104.125 2.40256 103.038 3.6529 102.337 5.12094C101.635 6.58898 101.344 8.21979 101.496 9.83986C101.647 11.4599 102.235 13.0086 103.197 14.3212C104.158 15.6338 105.458 16.6611 106.957 17.2939V64H113.957V17.2939C115.587 16.6053 116.979 15.4512 117.957 13.976C118.935 12.5009 119.457 10.77 119.457 9Z" fill="#CCCCCC"/>
<path d="M169.96 233H169.957C167.266 232.997 164.604 232.452 162.129 231.397C159.654 230.342 157.416 228.799 155.551 226.861C153.686 224.922 152.23 222.627 151.271 220.113C150.313 217.599 149.87 214.918 149.971 212.229C150.372 201.626 159.552 193 170.435 193H225.38L270.592 172.985C271.805 172.45 273.18 172.418 274.417 172.895C275.653 173.373 276.65 174.321 277.188 175.532L289.333 202.965C289.868 204.178 289.9 205.553 289.422 206.789C288.945 208.026 287.996 209.022 286.785 209.561L242.253 229.274C237.843 231.234 233.078 232.27 228.252 232.321L169.96 233Z" fill="#CCCCCC"/>
<path d="M36.7739 338.343C36.5132 338.343 36.2531 338.32 35.9963 338.276L6.42617 333.23H6.42642C5.8347 333.129 5.26916 332.911 4.76309 332.588C4.25701 332.265 3.82066 331.844 3.4797 331.35C3.13874 330.856 2.90008 330.299 2.77776 329.712C2.65545 329.124 2.65197 328.518 2.76751 327.929L25.913 209.878C26.7846 204.78 29.6454 200.237 33.8663 197.249C38.0872 194.261 43.3224 193.071 48.4201 193.943C53.5178 194.815 58.0605 197.675 61.0489 201.896C64.0372 206.117 65.2264 211.352 64.3549 216.45L41.1694 334.706C40.9751 335.73 40.4296 336.653 39.6271 337.317C38.8246 337.981 37.8154 338.344 36.7739 338.343Z" fill="#CCCCCC"/>
<path d="M20.9567 364C30.8978 364 38.9567 355.941 38.9567 346C38.9567 336.059 30.8978 328 20.9567 328C11.0156 328 2.95669 336.059 2.95669 346C2.95669 355.941 11.0156 364 20.9567 364Z" fill="#E6E6E6"/>
<path d="M108.28 191.677C145.283 191.677 175.28 161.68 175.28 124.677C175.28 87.674 145.283 57.6771 108.28 57.6771C71.2764 57.6771 41.2795 87.674 41.2795 124.677C41.2795 161.68 71.2764 191.677 108.28 191.677Z" fill="#E6E6E6"/>
<path d="M108.28 191.677C145.283 191.677 175.28 161.68 175.28 124.677C175.28 87.674 145.283 57.6771 108.28 57.6771C71.2764 57.6771 41.2795 87.674 41.2795 124.677C41.2795 161.68 71.2764 191.677 108.28 191.677Z" fill="#E6E6E6"/>
<path d="M108.28 175.677C136.446 175.677 159.28 152.844 159.28 124.677C159.28 96.5106 136.446 73.6771 108.28 73.6771C80.113 73.6771 57.2795 96.5106 57.2795 124.677C57.2795 152.844 80.113 175.677 108.28 175.677Z" fill="#F71857"/>
<path d="M114.242 146.086C110.936 145.994 106.822 145.88 103.652 143.564C102.708 142.846 101.933 141.931 101.38 140.882C100.827 139.833 100.51 138.676 100.452 137.491C100.395 136.65 100.533 135.806 100.855 135.027C101.178 134.247 101.677 133.553 102.312 132.998C103.968 131.599 106.385 131.271 108.991 132.037L106.291 112.311L108.273 112.04L111.446 135.23L109.791 134.47C107.873 133.591 105.24 133.143 103.603 134.526C103.202 134.887 102.888 135.336 102.689 135.839C102.489 136.341 102.407 136.882 102.451 137.421C102.499 138.303 102.737 139.163 103.148 139.944C103.559 140.726 104.133 141.409 104.832 141.949C107.299 143.751 110.578 143.983 114.298 144.087L114.242 146.086Z" fill="#2F2E41"/>
<path d="M96.4921 114.012H85.7205V116.012H96.4921V114.012Z" fill="#2F2E41"/>
<path d="M130.492 114.012H119.721V116.012H130.492V114.012Z" fill="#2F2E41"/>
<path opacity="0.2" d="M73.9567 125C73.9576 112.813 78.3212 101.03 86.2577 91.7819C94.1943 82.5341 105.179 76.4331 117.225 74.5832C109.947 73.3537 102.489 73.7188 95.3655 75.6532C88.2424 77.5877 81.6241 81.0456 75.9679 85.7878C70.3117 90.53 65.7524 96.4436 62.605 103.12C59.4576 109.796 57.7971 117.077 57.7382 124.457C57.6792 131.838 59.2233 139.144 62.2638 145.87C65.3042 152.596 69.7685 158.581 75.3483 163.413C80.9281 168.245 87.4903 171.808 94.5816 173.856C101.673 175.904 109.124 176.388 116.421 175.275C104.546 173.258 93.7682 167.104 85.9959 157.902C78.2237 148.7 73.9589 137.045 73.9567 125Z" fill="black"/>
<path d="M159.279 338.5H57.2794C52.9049 338.495 48.7109 336.755 45.6177 333.662C42.5244 330.569 40.7844 326.375 40.7794 322V207C40.7844 202.625 42.5244 198.431 45.6177 195.338C48.7109 192.245 52.9049 190.505 57.2794 190.5H72.7794V195C72.7829 198.049 73.9956 200.972 76.1515 203.128C78.3074 205.284 81.2305 206.497 84.2794 206.5H132.279C135.328 206.497 138.251 205.284 140.407 203.128C142.563 200.972 143.776 198.049 143.779 195V190.5H159.279C163.654 190.505 167.848 192.245 170.941 195.338C174.035 198.431 175.774 202.625 175.779 207V322C175.774 326.375 174.035 330.569 170.941 333.662C167.848 336.755 163.654 338.495 159.279 338.5Z" fill="#E6E6E6"/>
<path d="M172.965 449H132.957V402.811L80.7057 322.695L114.21 300.844L166.233 380.611C169.958 386.318 171.995 392.962 172.111 399.776L172.965 449Z" fill="#E6E6E6"/>
<path d="M102.457 479.5H63.4567V362.5H102.457V479.5Z" fill="#E6E6E6"/>
<path d="M151.279 373.5H65.2794C63.0259 373.497 60.8653 372.601 59.2718 371.008C57.6783 369.414 56.782 367.254 56.7794 365V333C56.782 330.746 57.6783 328.586 59.2718 326.992C60.8653 325.399 63.0259 324.503 65.2794 324.5H151.279C153.533 324.503 155.694 325.399 157.287 326.992C158.881 328.586 159.777 330.746 159.779 333V365C159.777 367.254 158.881 369.414 157.287 371.008C155.694 372.601 153.533 373.497 151.279 373.5Z" fill="#E6E6E6"/>
<path d="M179.957 467.5H133.457V436.5H179.957C184.068 436.5 188.01 438.133 190.917 441.04C193.824 443.947 195.457 447.889 195.457 452C195.457 456.111 193.824 460.053 190.917 462.96C188.01 465.867 184.068 467.5 179.957 467.5Z" fill="#CCCCCC"/>
<path d="M109.957 479.5H63.4567V448.5H109.957C114.068 448.5 118.01 450.133 120.917 453.04C123.824 455.947 125.457 459.889 125.457 464C125.457 468.111 123.824 472.053 120.917 474.96C118.01 477.867 114.068 479.5 109.957 479.5Z" fill="#CCCCCC"/>
<path d="M156.957 241.5H119.957C119.028 241.5 118.138 241.131 117.482 240.475C116.825 239.819 116.457 238.928 116.457 238C116.457 237.072 116.825 236.181 117.482 235.525C118.138 234.869 119.028 234.5 119.957 234.5H156.957C157.885 234.5 158.775 234.869 159.432 235.525C160.088 236.181 160.457 237.072 160.457 238C160.457 238.928 160.088 239.819 159.432 240.475C158.775 241.131 157.885 241.5 156.957 241.5Z" fill="white"/>
<path d="M156.957 254H119.957C119.028 254 118.138 253.631 117.482 252.975C116.825 252.319 116.457 251.428 116.457 250.5C116.457 249.572 116.825 248.681 117.482 248.025C118.138 247.369 119.028 247 119.957 247H156.957C157.885 247 158.775 247.369 159.432 248.025C160.088 248.681 160.457 249.572 160.457 250.5C160.457 251.428 160.088 252.319 159.432 252.975C158.775 253.631 157.885 254 156.957 254Z" fill="white"/>
<path d="M220 480H0.999987C0.73477 480 0.480431 479.895 0.292894 479.707C0.105358 479.52 -1.33514e-05 479.265 -1.33514e-05 479C-1.33514e-05 478.735 0.105358 478.48 0.292894 478.293C0.480431 478.105 0.73477 478 0.999987 478H220C220.265 478 220.52 478.105 220.707 478.293C220.895 478.48 221 478.735 221 479C221 479.265 220.895 479.52 220.707 479.707C220.52 479.895 220.265 480 220 480Z" fill="#3F3D56"/>
<path d="M291.957 202C301.898 202 309.957 193.941 309.957 184C309.957 174.059 301.898 166 291.957 166C282.016 166 273.957 174.059 273.957 184C273.957 193.941 282.016 202 291.957 202Z" fill="#E6E6E6"/>
<path d="M297.457 256.5C295.866 256.498 294.341 255.865 293.216 254.741C292.091 253.616 291.458 252.091 291.457 250.5V34.5C291.457 32.9087 292.089 31.3826 293.214 30.2574C294.339 29.1321 295.865 28.5 297.457 28.5C299.048 28.5 300.574 29.1321 301.699 30.2574C302.825 31.3826 303.457 32.9087 303.457 34.5V250.5C303.455 252.091 302.822 253.616 301.697 254.741C300.573 255.865 299.047 256.498 297.457 256.5Z" fill="#3F3D56"/>
<path d="M479.617 30.34C474.347 25.73 456.247 11.38 432.897 8.76001C415.427 6.81001 395.017 11.42 374.847 31.6C358.667 47.7801 343.407 55.45 329.487 54.41C315.277 53.3401 305.827 43.24 301.457 37.31C301.15 36.8861 300.715 36.5718 300.217 36.4134C299.718 36.2549 299.182 36.2608 298.687 36.43C298.181 36.5887 297.74 36.9057 297.429 37.3343C297.117 37.7628 296.952 38.2802 296.957 38.81V113.47C296.958 113.943 297.093 114.407 297.346 114.806C297.599 115.206 297.96 115.527 298.387 115.73C303.837 118.31 323.466 126.88 343.227 126.88C354.817 126.88 366.466 123.93 375.307 115.08C375.397 114.99 375.477 114.91 375.567 114.83C391.227 99.59 425.747 102.72 450.937 107.7C461.357 109.76 470.177 112.13 475.407 113.65C476.076 113.843 476.782 113.878 477.467 113.752C478.152 113.626 478.799 113.342 479.356 112.923C479.912 112.504 480.364 111.962 480.675 111.338C480.986 110.714 481.147 110.027 481.147 109.33V33.73C481.147 33.0887 481.011 32.4547 480.747 31.8701C480.483 31.2856 480.098 30.764 479.617 30.34Z" fill="#F71857"/>
<path d="M519.957 243C524.927 243 528.957 238.971 528.957 234C528.957 229.029 524.927 225 519.957 225C514.986 225 510.957 229.029 510.957 234C510.957 238.971 514.986 243 519.957 243Z" fill="white"/>
<path d="M503.957 342C508.927 342 512.957 337.971 512.957 333C512.957 328.029 508.927 324 503.957 324C498.986 324 494.957 328.029 494.957 333C494.957 337.971 498.986 342 503.957 342Z" fill="white"/>
<path d="M474.957 280C483.241 280 489.957 273.284 489.957 265C489.957 256.716 483.241 250 474.957 250C466.672 250 459.957 256.716 459.957 265C459.957 273.284 466.672 280 474.957 280Z" fill="white"/>
</g>
<defs>
<clipPath id="clip0">
<rect width="637.957" height="480" fill="white"/>
</clipPath>
</defs>
</svg>
