<svg width="728" height="806" viewBox="0 0 728 806" fill="none" xmlns="http://www.w3.org/2000/svg">
<path d="M720.634 715.027C376.353 705.195 67.2349 236.806 1 -44.669L806.364 -152.215L879.447 395.075C859.108 530.061 1064.91 724.858 720.634 715.027Z" fill="white" stroke="black"/>
<g clip-path="url(#clip0)">
<path opacity="0.1" d="M672.282 518.587C651.218 545.363 659.402 584.48 672.787 615.807C677.268 626.296 682.337 637.393 680.446 648.64C678.133 662.395 665.856 672.453 652.965 677.783C629.466 687.5 601.345 685.184 579.753 671.754C561.093 660.148 547.73 641.273 528.751 630.195C496.991 611.656 456.565 618.657 422.078 631.427C397.679 640.462 371.004 652.212 346.759 642.77C329.7 636.126 317.908 619.955 311.483 602.814C308.381 594.538 306.129 585.581 300.205 579.021C296.684 575.121 292.087 572.353 287.379 570.019C244.387 548.706 190.088 560.12 148.33 536.481C120.128 520.516 102.074 490.401 94.0796 458.999C86.0855 427.597 87.0167 394.669 89.0463 362.33C90.4887 339.347 93.0766 314.811 107.764 297.074C123.301 278.31 149.965 271.332 174.067 274.899C198.168 278.465 220.014 291.177 239.233 306.149C263.253 324.86 285.529 348.16 315.02 355.74C335.103 360.902 356.23 358.078 376.943 357.101C411.571 355.466 446.213 359.101 480.651 363.082C513.618 366.892 546.824 371.086 578.231 381.809C600.457 389.397 618.275 403.171 639.262 412.794C652.942 419.067 667.859 420.799 680.811 428.788C696.766 438.63 711.394 455.748 707.306 475.779C703.419 494.824 683.462 504.376 672.282 518.587Z" fill="#6C63FF"/>
<path d="M490.09 356.121C490.09 356.121 456.231 346.095 453.994 374.613C451.757 403.131 462.942 450.103 453.994 465.201C445.046 480.299 413.115 502.112 429.919 504.066C446.723 506.021 455.113 508.817 450.079 518.882C445.046 528.947 418.76 538.454 424.353 545.723C429.945 552.992 432.742 561.939 427.149 570.886C421.556 579.833 401.982 585.425 405.337 591.576C408.693 597.727 420.997 601.082 414.845 607.792C408.693 614.502 390.859 629.766 397.818 629.683" stroke="#535461" stroke-width="3" stroke-miterlimit="10"/>
<path d="M539.552 337.121H468.148C464.142 337.121 460.894 340.368 460.894 344.374V369.705C460.894 373.71 464.142 376.957 468.148 376.957H539.552C543.558 376.957 546.805 373.71 546.805 369.705V344.374C546.805 340.368 543.558 337.121 539.552 337.121Z" fill="#6C63FF"/>
<path opacity="0.1" d="M539.957 370.843H467.742V371.59H539.957V370.843Z" fill="black"/>
<path opacity="0.3" d="M539.957 343.346H467.742V370.733H539.957V343.346Z" fill="black"/>
<path opacity="0.1" d="M484.551 367.57C490.052 367.57 494.512 363.111 494.512 357.611C494.512 352.111 490.052 347.652 484.551 347.652C479.05 347.652 474.59 352.111 474.59 357.611C474.59 363.111 479.05 367.57 484.551 367.57Z" fill="black"/>
<path opacity="0.1" d="M523.149 367.57C528.65 367.57 533.109 363.111 533.109 357.611C533.109 352.111 528.65 347.652 523.149 347.652C517.647 347.652 513.188 352.111 513.188 357.611C513.188 363.111 517.647 367.57 523.149 367.57Z" fill="black"/>
<path d="M511.319 376.956H496.379V385.673H511.319V376.956Z" fill="#6C63FF"/>
<path d="M534.977 383.182H472.723V432.977H534.977V383.182Z" fill="#6C63FF"/>
<path d="M536.222 442.936H471.478V449.161H536.222V442.936Z" fill="#6C63FF"/>
<path d="M482.061 464.1V471.569V482.772V488.997V492.732H493.267V488.997V482.772V471.569V464.1V455.385H482.061V464.1Z" fill="#6C63FF"/>
<path d="M515.678 455.385V464.1V471.569V482.772V488.997V492.732H526.884V488.997V482.772V471.569V464.1V455.385H515.678Z" fill="#6C63FF"/>
<path d="M464.243 394.386V405.9C461.167 406.438 458.302 407.819 455.966 409.89C453.799 411.896 452.115 414.366 451.038 417.114C449.665 420.643 448.846 424.364 448.611 428.143C448.259 433.084 448.49 438.05 449.3 442.938H436.849C436.33 436.991 436.44 431.006 437.175 425.082C437.763 420.186 439.111 415.411 441.171 410.93C444.778 403.365 449.909 399.262 454.416 397.033C457.47 395.471 460.818 394.57 464.243 394.386Z" fill="#6C63FF"/>
<path opacity="0.3" d="M493.267 455.385H482.061V464.099H493.267V455.385Z" fill="black"/>
<path opacity="0.3" d="M493.267 471.569H482.061V482.773H493.267V471.569Z" fill="black"/>
<path opacity="0.3" d="M493.267 488.997H482.061V492.732H493.267V488.997Z" fill="black"/>
<path opacity="0.3" d="M526.884 455.385H515.678V464.099H526.884V455.385Z" fill="black"/>
<path opacity="0.3" d="M526.884 471.569H515.678V482.773H526.884V471.569Z" fill="black"/>
<path opacity="0.3" d="M526.884 488.997H515.678V492.732H526.884V488.997Z" fill="black"/>
<path opacity="0.3" d="M464.243 394.386V405.9C461.167 406.438 458.302 407.819 455.966 409.89L454.416 397.033C457.47 395.471 460.818 394.57 464.243 394.386Z" fill="black"/>
<path opacity="0.3" d="M451.038 417.114C449.665 420.643 448.846 424.364 448.611 428.143L437.175 425.082C437.763 420.186 439.111 415.411 441.171 410.93L451.038 417.114Z" fill="black"/>
<path d="M543.456 394.386V405.9C546.532 406.438 549.398 407.819 551.734 409.89C553.9 411.896 555.585 414.366 556.662 417.114C558.035 420.643 558.853 424.364 559.088 428.143C559.441 433.084 559.21 438.05 558.399 442.938H570.85C571.369 436.991 571.26 431.006 570.524 425.082C569.937 420.186 568.589 415.411 566.528 410.93C562.921 403.365 557.791 399.262 553.283 397.033C550.229 395.471 546.881 394.57 543.456 394.386Z" fill="#6C63FF"/>
<path opacity="0.3" d="M543.456 394.386V405.9C546.532 406.438 549.398 407.819 551.734 409.89L553.283 397.033C550.229 395.471 546.881 394.57 543.456 394.386Z" fill="black"/>
<path opacity="0.3" d="M556.662 417.114C558.035 420.643 558.853 424.364 559.088 428.143L570.524 425.082C569.937 420.186 568.589 415.411 566.528 410.93L556.662 417.114Z" fill="black"/>
<path opacity="0.1" d="M511.319 376.956H496.379V377.988H511.319V376.956Z" fill="black"/>
<path opacity="0.1" d="M536.083 392.054V412.902C535.338 412.098 534.925 411.043 534.926 409.947V395.006C534.925 393.911 535.338 392.857 536.083 392.054Z" fill="black"/>
<path opacity="0.1" d="M472.944 393.429V409.035C472.869 410.022 472.46 410.954 471.783 411.676V390.788C472.46 391.51 472.869 392.442 472.944 393.429Z" fill="black"/>
<path opacity="0.1" d="M531.864 432.978H475.836V433.716H531.864V432.978Z" fill="black"/>
<path opacity="0.1" d="M501.981 449.162H474.59V449.734H501.981V449.162Z" fill="black"/>
<path opacity="0.1" d="M531.864 449.162H504.474V449.734H531.864V449.162Z" fill="black"/>
<path d="M481.933 300.255H477.646V337.121H481.933V300.255Z" fill="#6C63FF"/>
<path d="M531.096 300.255H526.808V337.121H531.096V300.255Z" fill="#6C63FF"/>
<path opacity="0.1" d="M479.647 305.399C482.33 305.399 484.506 303.224 484.506 300.541C484.506 297.858 482.33 295.683 479.647 295.683C476.963 295.683 474.787 297.858 474.787 300.541C474.787 303.224 476.963 305.399 479.647 305.399Z" fill="black"/>
<path d="M479.647 305.113C482.33 305.113 484.506 302.938 484.506 300.255C484.506 297.572 482.33 295.397 479.647 295.397C476.963 295.397 474.787 297.572 474.787 300.255C474.787 302.938 476.963 305.113 479.647 305.113Z" fill="#6C63FF"/>
<path opacity="0.1" d="M529.095 305.399C531.778 305.399 533.954 303.224 533.954 300.541C533.954 297.858 531.778 295.683 529.095 295.683C526.411 295.683 524.236 297.858 524.236 300.541C524.236 303.224 526.411 305.399 529.095 305.399Z" fill="black"/>
<path d="M529.095 305.113C531.778 305.113 533.954 302.938 533.954 300.255C533.954 297.572 531.778 295.397 529.095 295.397C526.411 295.397 524.236 297.572 524.236 300.255C524.236 302.938 526.411 305.113 529.095 305.113Z" fill="#6C63FF"/>
<path opacity="0.5" d="M427.989 513.847C426.077 515.761 425.641 518.389 424.962 520.826C423.022 527.784 418.457 534.203 412.094 538.917C407.433 542.37 401.185 546.194 402.29 551.346C402.554 552.577 403.252 553.726 403.435 554.967C404.228 560.341 396.012 563.173 392.832 567.875C390.462 571.378 391.095 575.718 391.8 579.708C392.661 584.592 393.704 589.802 397.711 593.398C398.793 594.368 400.082 595.21 400.836 596.38C402.526 599.001 401.057 602.437 402.594 605.125C404.643 608.71 411.096 608.865 414.841 606.448C418.586 604.031 420.317 600.058 421.977 596.332C426.462 586.263 431.977 576.16 441.299 568.828C450.237 561.797 463.24 556.343 464.774 546.11C465.431 541.722 463.765 536.914 466.31 533.048C467.512 531.221 469.522 529.867 470.884 528.122C474.939 522.922 471.92 515.399 465.982 511.706C457.016 506.13 435.787 506.04 427.989 513.847Z" fill="#DEE3F3"/>
<path d="M585.129 326.898L545.626 339.239L547.127 344.042L586.63 331.702L585.129 326.898Z" fill="#6C63FF"/>
<path d="M602.716 513.858C602.716 513.858 581.059 509.528 575.284 503.753C569.508 497.979 543.52 487.874 540.632 495.092C537.745 502.31 501.649 526.851 526.194 531.181C550.739 535.512 583.947 536.956 591.166 534.068C598.385 531.181 602.716 513.858 602.716 513.858Z" fill="#A8A8A8"/>
<path opacity="0.2" d="M526.194 528.5C550.739 532.831 583.947 534.274 591.166 531.387C596.663 529.188 600.484 518.624 601.994 513.708C602.451 513.805 602.716 513.858 602.716 513.858C602.716 513.858 598.385 531.181 591.166 534.068C583.947 536.956 550.739 535.512 526.194 531.181C519.109 529.931 517.083 526.995 517.846 523.28C518.452 525.704 520.921 527.569 526.194 528.5Z" fill="black"/>
<path d="M650.811 325.074C650.425 324.113 649.81 323.26 649.019 322.591C643.208 317.295 633.808 318.9 626.593 315.665C624.931 314.92 623.226 313.886 621.421 314.169C618.9 314.565 616.557 317.434 614.36 316.161L614.517 316.64C614.465 316.614 614.412 316.589 614.36 316.558C614.898 318.199 615.437 319.84 615.976 321.48C616.596 323.37 617.25 325.314 618.457 326.888C616.673 328.444 615.307 330.422 614.485 332.642C613.663 334.862 613.411 337.252 613.751 339.595C614.092 341.937 615.015 344.157 616.435 346.051C617.855 347.945 619.728 349.452 621.882 350.436C621.958 350.601 622.033 350.766 622.107 350.933C622.175 350.964 622.246 350.991 622.315 351.02C622.794 352.121 623.151 353.271 623.381 354.449C621.511 354.707 618.251 356.775 615.044 359.829L608.631 359.609C604.487 359.471 600.478 358.108 597.109 355.693L577.932 341.908C576.565 342.042 575.277 342.611 574.258 343.532C571.876 341.051 569.855 338.459 570.028 336.941C570.028 336.941 561.11 320.253 557.867 328.597C554.624 336.941 563.947 345.683 563.947 345.683L569.862 353.344C569.629 354.687 569.481 356.043 569.42 357.404C576.716 365.749 602.254 373.298 602.254 373.298L606.236 373.491C606.244 373.564 606.251 373.626 606.258 373.687C606.014 374.731 605.894 375.801 605.902 376.874C605.905 377.028 605.907 377.19 605.91 377.351C605.909 377.457 605.901 377.564 605.902 377.669C606.105 390.98 607.929 431.708 607.929 431.708C608.284 431.55 608.651 431.405 609.024 431.269L608.74 434.887C608.74 434.887 591.715 437.271 579.148 442.039C566.582 446.807 566.177 452.37 566.177 452.37V501.455C562.586 503.297 556.923 505.718 554.016 504.422C550.86 503.016 549.127 504.198 548.814 505.431V505.431C548.75 505.673 548.745 505.927 548.8 506.172L548.804 506.187C548.831 506.297 548.872 506.402 548.925 506.502L548.937 506.525C548.995 506.628 549.067 506.723 549.151 506.806C550.367 507.998 576.716 518.329 582.796 516.74C582.984 516.691 583.168 516.629 583.348 516.554C583.406 516.53 583.458 516.498 583.515 516.472C583.627 516.419 583.741 516.367 583.846 516.305C583.908 516.268 583.964 516.223 584.024 516.183C584.115 516.122 584.208 516.063 584.293 515.995C584.352 515.948 584.406 515.894 584.462 515.844C584.54 515.774 584.62 515.706 584.693 515.631C584.746 515.575 584.793 515.514 584.844 515.456C584.913 515.377 584.983 515.299 585.047 515.215C585.093 515.154 585.134 515.088 585.177 515.025C585.238 514.935 585.301 514.847 585.357 514.753C585.396 514.688 585.431 514.619 585.467 514.552C585.522 514.452 585.577 514.353 585.626 514.248C585.658 514.181 585.687 514.111 585.717 514.042C585.765 513.932 585.813 513.821 585.857 513.707C585.882 513.639 585.905 513.569 585.929 513.5C585.971 513.379 586.013 513.257 586.051 513.131C586.07 513.066 586.087 512.999 586.105 512.933C586.142 512.798 586.178 512.664 586.21 512.526C586.224 512.465 586.237 512.403 586.25 512.341C586.281 512.194 586.311 512.047 586.337 511.897C586.347 511.842 586.355 511.786 586.364 511.73C586.39 511.57 586.414 511.409 586.434 511.246C586.44 511.2 586.445 511.153 586.45 511.106C586.471 510.932 586.489 510.757 586.503 510.581C586.506 510.544 586.509 510.507 586.512 510.47C586.526 510.282 586.538 510.093 586.547 509.904C586.548 509.878 586.549 509.853 586.55 509.828C586.558 509.625 586.564 509.423 586.567 509.221L586.567 509.183C586.558 506.812 586.296 504.449 585.784 502.135L587.255 460.317C595.217 460.441 603.18 460.147 611.11 459.438L611.983 479.39C611.983 479.39 611.983 492.502 616.442 498.462C620.258 503.563 624.667 526.122 625.859 532.522C624.221 535.645 621.087 539.508 615.631 539.389C615.631 539.389 605.364 538.501 605.943 541.325L605.944 541.33C605.96 541.403 605.982 541.476 606.009 541.546L606.015 541.564C606.047 541.646 606.085 541.725 606.127 541.801L606.136 541.817C606.177 541.89 606.225 541.965 606.278 542.042C606.289 542.058 606.3 542.073 606.311 542.089C606.371 542.172 606.436 542.257 606.511 542.345L606.529 542.367C606.598 542.446 606.674 542.528 606.754 542.612C606.777 542.635 606.799 542.658 606.823 542.682C606.914 542.774 607.011 542.868 607.118 542.965C612.388 547.733 643.196 548.528 643.196 548.528L643.196 548.509L643.196 548.497L643.195 548.437L643.195 548.42C643.195 548.39 643.194 548.352 643.194 548.309L643.194 548.293C643.176 546.914 642.992 539.673 641.147 534.223H641.574C641.574 534.223 637.115 494.091 633.467 489.323C633.467 489.323 632.498 468.162 634.686 454.9C634.82 454.851 634.956 454.804 635.088 454.754C645.308 450.938 646.033 441.54 644.98 434.635C646.914 435.256 648.06 435.682 648.06 435.682C648.06 435.682 648.025 435.381 647.959 434.85C648.023 434.873 648.06 434.887 648.06 434.887C648.06 434.887 647.865 433.625 647.544 431.655C646.814 426.241 645.397 416.779 643.889 412.312C643.646 411.33 643.412 410.49 643.196 409.854C642.325 407.17 641.727 404.404 641.411 401.6C640.998 397.966 640.789 394.312 640.785 390.655C640.818 385.768 641.192 380.889 641.905 376.054C642.524 371.831 643.081 367.028 643.034 363.674C643.077 362.506 642.995 361.337 642.79 360.186C642.249 357.71 639.86 356.099 637.376 355.075C637.216 355.009 637.052 354.955 636.89 354.893C636.951 353.955 637.03 352.891 637.133 351.77C637.431 351.976 637.768 352.12 638.123 352.192C638.478 352.264 638.844 352.262 639.199 352.188C640.267 351.955 641.032 351.063 641.715 350.225C645.308 345.813 648.997 341.215 650.377 335.734C650.928 333.286 651.183 330.781 651.136 328.272C651.137 328.135 651.137 327.998 651.136 327.86C651.191 326.92 651.081 325.977 650.811 325.074Z" fill="url(#paint0_linear)"/>
<path d="M618.101 346.581C618.101 346.581 623.544 354.744 622.377 358.632C621.211 362.519 635.207 360.186 635.207 360.186C635.207 360.186 635.596 345.026 638.318 341.527C641.039 338.029 618.101 346.581 618.101 346.581Z" fill="#F7C4A7"/>
<path d="M582.137 351.829C582.137 351.829 570.862 342.499 571.251 339.001C571.251 339.001 562.697 322.674 559.587 330.837C556.476 339.001 565.419 347.553 565.419 347.553L576.305 361.936L582.137 351.829Z" fill="#F7C4A7"/>
<path d="M570.667 498.187C570.667 498.187 560.17 504.795 555.893 502.852C551.616 500.908 550.061 504.018 551.228 505.184C552.394 506.35 577.666 516.457 583.498 514.902C589.329 513.347 586.363 500.613 586.363 500.613L570.667 498.187Z" fill="#535461"/>
<path d="M626.265 526.564C626.265 526.564 623.738 537.254 614.99 537.06C614.99 537.06 601.771 535.894 606.825 540.559C611.88 545.223 641.428 546.001 641.428 546.001C641.428 546.001 641.428 530.063 635.985 526.564C630.542 523.066 626.265 526.564 626.265 526.564Z" fill="#535461"/>
<path d="M610.324 451.15L611.491 478.361C611.491 478.361 611.491 491.19 615.768 497.021C620.044 502.852 625.099 532.007 625.099 532.007H639.873C639.873 532.007 635.596 492.744 632.097 488.08C632.097 488.08 630.542 453.482 635.985 445.708L610.324 451.15Z" fill="#575988"/>
<path opacity="0.1" d="M610.324 451.15L611.491 478.361C611.491 478.361 611.491 491.19 615.768 497.021C620.044 502.852 625.099 532.007 625.099 532.007H639.873C639.873 532.007 635.596 492.744 632.097 488.08C632.097 488.08 630.542 453.482 635.985 445.708L610.324 451.15Z" fill="black"/>
<path d="M641.039 426.66C641.039 426.66 649.982 448.04 633.652 454.26C617.323 460.48 587.774 459.702 587.774 459.702L586.219 504.795C586.219 504.795 567.946 507.128 567.557 501.297V451.927C567.557 451.927 567.946 446.485 579.999 441.82C592.051 437.156 608.381 434.823 608.381 434.823L609.158 424.716L641.039 426.66Z" fill="#575988"/>
<path opacity="0.1" d="M626.711 356.227C629.817 355.884 632.958 356.328 635.846 357.519C638.229 358.521 640.52 360.096 641.039 362.519C641.654 365.388 640.973 371.822 640.19 377.265C638.939 385.8 638.779 394.46 639.716 403.035C640.117 406.607 640.67 409.721 641.428 411.11C643.761 415.387 646.094 435.601 646.094 435.601C646.094 435.601 620.433 425.882 607.603 431.713C607.603 431.713 605.853 391.868 605.659 378.846C605.509 368.762 618.295 357.271 622.572 356.882C625.078 356.654 624.221 356.486 626.711 356.227Z" fill="black"/>
<path d="M626.711 355.45C629.817 355.107 632.958 355.551 635.846 356.741C638.229 357.744 640.52 359.319 641.039 361.741C641.654 364.61 640.973 371.045 640.19 376.488C638.939 385.023 638.779 393.683 639.716 402.258C640.019 405 640.593 407.704 641.428 410.333C643.178 415.581 646.094 434.823 646.094 434.823C646.094 434.823 620.433 425.105 607.603 430.936C607.603 430.936 605.853 391.091 605.659 378.068C605.509 367.985 618.295 356.493 622.572 356.105C625.078 355.877 624.221 355.708 626.711 355.45Z" fill="#E14B5A"/>
<path opacity="0.1" d="M633.652 376.902L606.048 375.347C606.048 375.347 604.291 361.816 608.276 361.955L635.596 362.908C635.596 362.908 641.428 369.905 633.652 376.902Z" fill="black"/>
<path d="M633.652 376.125L602.16 374.57C602.16 374.57 577.666 367.184 570.667 359.02C570.667 359.02 571.056 344.637 578.832 343.86L597.225 357.345C600.44 359.703 604.291 361.038 608.276 361.177L635.596 362.13C635.596 362.13 641.428 369.127 633.652 376.125Z" fill="#E14B5A"/>
<path opacity="0.1" d="M635.013 348.33C635.475 344.644 637.147 343.421 638.318 341.916C641.039 338.417 618.1 346.969 618.1 346.969C619.283 348.791 620.32 350.704 621.201 352.689C623.033 353.532 625.026 353.968 627.043 353.967C630.425 353.967 632.594 350.326 635.013 348.33Z" fill="black"/>
<path d="M627.043 353.578C634.773 353.578 641.039 347.312 641.039 339.584C641.039 331.855 634.773 325.589 627.043 325.589C619.313 325.589 613.046 331.855 613.046 339.584C613.046 347.312 619.313 353.578 627.043 353.578Z" fill="#F7C4A7"/>
<path opacity="0.1" d="M618.204 329.775C616.713 328.147 615.997 325.975 615.321 323.875L613.771 319.059C615.878 320.305 618.126 317.498 620.543 317.111C622.274 316.834 623.91 317.845 625.504 318.574C632.424 321.739 641.44 320.169 647.013 325.35C647.775 326.009 648.364 326.842 648.732 327.779C648.992 328.668 649.097 329.595 649.044 330.52C649.089 332.973 648.845 335.423 648.316 337.82C646.992 343.181 643.454 347.68 640.008 351.997C639.353 352.817 638.619 353.688 637.595 353.917C635.594 354.364 634.046 352.202 633.272 350.304C632.246 347.79 631.49 345.175 631.016 342.502C630.896 341.359 630.583 340.244 630.092 339.205C628.887 337.07 625.918 335.049 624.112 333.395C622.337 331.769 619.862 331.585 618.204 329.775Z" fill="black"/>
<path d="M618.204 329.386C616.713 327.758 615.997 325.587 615.321 323.486L613.771 318.671C615.878 319.916 618.126 317.109 620.543 316.722C622.274 316.445 623.91 317.457 625.504 318.186C632.424 321.351 641.44 319.78 647.013 324.961C647.775 325.62 648.364 326.454 648.732 327.391C648.992 328.28 649.097 329.206 649.044 330.131C649.089 332.584 648.845 335.035 648.316 337.431C646.992 342.793 643.454 347.292 640.008 351.608C639.353 352.428 638.619 353.3 637.595 353.528C635.594 353.975 634.046 351.813 633.272 349.915C632.246 347.402 631.49 344.786 631.016 342.114C630.896 340.97 630.583 339.856 630.092 338.816C628.887 336.681 625.918 334.66 624.112 333.006C622.337 331.38 619.862 331.196 618.204 329.386Z" fill="#632652"/>
<path d="M630.736 343.665C631.381 343.665 631.903 342.534 631.903 341.139C631.903 339.743 631.381 338.612 630.736 338.612C630.092 338.612 629.57 339.743 629.57 341.139C629.57 342.534 630.092 343.665 630.736 343.665Z" fill="#F7C4A7"/>
<path opacity="0.1" d="M637.735 408.584C637.735 408.584 636.957 410.916 633.069 410.527C629.181 410.139 617.906 409.361 617.906 410.527" fill="black"/>
<path opacity="0.5" d="M606.825 540.17C606.291 539.758 605.896 539.192 605.694 538.548C605.592 539.053 605.904 539.709 606.825 540.559C611.88 545.223 641.428 546.001 641.428 546.001C641.428 546.001 641.428 545.863 641.424 545.612C641.237 545.607 611.864 544.82 606.825 540.17Z" fill="white"/>
<path opacity="0.5" d="M583.498 514.125C577.666 515.68 552.394 505.573 551.228 504.406C551.072 504.249 550.96 504.053 550.904 503.838C550.837 504.071 550.831 504.318 550.888 504.554C550.944 504.79 551.062 505.007 551.228 505.184C552.394 506.35 577.666 516.457 583.498 514.902C586.499 514.102 587.168 510.341 587.113 506.878C587.056 510.107 586.276 513.384 583.498 514.125Z" fill="white"/>
<path d="M361.711 543.918C360.347 536.333 359.511 528.664 359.207 520.964V520.964C358.94 514.622 356.716 508.518 352.841 503.491C348.966 498.463 343.63 494.757 337.565 492.882C335.356 492.203 332.92 491.568 330.235 490.998C306.674 485.994 299.516 490.363 298.703 490.937C298.017 489.682 297.421 488.381 296.919 487.042C296.879 486.906 296.842 486.767 296.804 486.63C301.467 481.657 304.307 475.253 304.863 468.46C308.793 464.475 311.089 459.668 311.089 454.492C311.089 450.041 309.389 445.863 306.414 442.246V435.222C306.414 431.205 305.622 427.227 304.085 423.516C302.547 419.804 300.294 416.432 297.453 413.592C294.612 410.751 291.239 408.498 287.527 406.96C283.815 405.423 279.836 404.632 275.819 404.632H273.337C269.32 404.632 265.341 405.423 261.629 406.96C257.917 408.498 254.544 410.751 251.703 413.592C248.862 416.432 246.609 419.804 245.071 423.516C243.534 427.227 242.742 431.205 242.742 435.222V442.804C240.061 446.116 238.571 450.232 238.512 454.492C238.512 459.559 240.715 464.272 244.495 468.207C245.011 475.249 247.983 481.887 252.891 486.965C253.057 488.113 253.227 489.35 253.394 490.654L211.24 499.567C211.24 499.567 194.989 500.235 184.525 521.826C175.667 540.105 158.034 587.097 152.832 601.087H152.832L152.832 601.087C151.889 603.623 151.354 605.076 151.354 605.076C151.354 605.076 151.526 604.901 151.857 604.603C151.53 605.488 151.354 605.966 151.354 605.966C151.354 605.966 151.61 605.708 152.096 605.282C151.357 611.137 151.252 621.186 158.923 622.438C165.353 623.488 181.916 623.919 194.432 624.095V624.107H195.3C203.594 624.219 209.905 624.219 209.905 624.219V624.107H344.483V622.728C344.484 621.476 344.232 620.236 343.741 619.084C343.806 619.009 343.868 618.934 343.929 618.859C344.649 619.809 345.128 620.92 345.325 622.096C345.31 622.211 345.289 622.325 345.262 622.438C345.262 622.438 345.29 622.366 345.341 622.232C345.374 622.599 345.347 622.969 345.262 623.328C345.262 623.328 362.528 578.847 362.344 552.287C362.394 549.483 362.182 546.682 361.711 543.918ZM254.085 496.66C253.862 495.391 253.72 494.11 253.657 492.824L253.659 492.788C253.807 494.037 253.951 495.332 254.085 496.66ZM201.779 592.203V602.804L195.132 604.224L201.779 592.203Z" fill="url(#paint1_linear)"/>
<path d="M273.887 408.91H273.887C282.001 408.91 289.783 412.133 295.521 417.87C301.259 423.607 304.482 431.387 304.482 439.501V452.55H243.292V439.501C243.292 431.387 246.515 423.607 252.253 417.87C257.991 412.133 265.773 408.91 273.887 408.91Z" fill="#E14B5A"/>
<path d="M274.101 480.787C293.362 480.787 308.975 470.06 308.975 456.828C308.975 443.596 293.362 432.869 274.101 432.869C254.841 432.869 239.227 443.596 239.227 456.828C239.227 470.06 254.841 480.787 274.101 480.787Z" fill="#E14B5A"/>
<path d="M251.743 480.038C251.743 480.038 259.017 518.115 251.743 528.383C244.469 538.652 273.994 542.716 273.994 542.716L304.589 531.592L308.868 504.211C308.868 504.211 290.254 493.729 294.106 472.551L251.743 480.038Z" fill="#F7C4A7"/>
<path d="M342.031 608.389C342.031 608.389 343.956 616.732 333.473 618.229C327.282 619.14 320.985 619.065 314.818 618.007L312.505 597.051H336.896L342.031 608.389Z" fill="#F7C4A7"/>
<path d="M156.885 597.71C156.885 597.71 152.255 616.518 162.739 618.229C173.223 619.94 211.734 619.94 211.734 619.94V597.693L194.3 601.416L177.93 585.713L156.885 597.71Z" fill="#F7C4A7"/>
<path opacity="0.1" d="M253.99 492.338L213.018 501.002C213.018 501.002 197.399 501.644 187.343 522.394C177.288 543.144 155.465 602.399 155.465 602.399C155.465 602.399 174.078 583.574 195.902 603.683L210.45 577.371L207.241 619.085H319.994V599.404C319.994 599.404 343.528 612.025 341.817 619.085C341.817 619.085 361.956 567.203 357.625 543.624C356.314 536.335 355.51 528.964 355.219 521.564V521.564C354.961 515.47 352.824 509.604 349.1 504.772C345.376 499.94 340.248 496.379 334.419 494.577C332.297 493.924 329.956 493.314 327.375 492.766C303.199 487.632 296.994 492.766 296.994 492.766C296.994 492.766 292.311 508.002 292.394 514.907C292.501 523.784 279.771 529.667 279.771 529.667C279.771 529.667 260.943 525.175 260.087 521.538C259.231 517.901 252.492 496.617 253.99 492.338Z" fill="black"/>
<path d="M253.99 491.483L213.018 500.146C213.018 500.146 197.399 500.788 187.343 521.538C177.288 542.288 155.465 601.543 155.465 601.543C155.465 601.543 174.078 582.719 195.902 602.827L210.45 576.515L207.241 618.229H319.994V598.549C319.994 598.549 343.528 611.17 341.817 618.229C341.817 618.229 361.956 566.347 357.625 542.768C356.314 535.48 355.51 528.109 355.219 520.709V520.709C354.961 514.614 352.824 508.748 349.1 503.917C345.376 499.085 340.248 495.524 334.419 493.722C332.297 493.069 329.956 492.459 327.375 491.91C303.199 486.776 296.994 491.91 296.994 491.91C296.994 491.91 292.311 507.146 292.394 514.051C292.501 522.929 279.771 528.811 279.771 528.811C279.771 528.811 260.943 524.319 260.087 520.682C259.231 517.046 252.492 495.761 253.99 491.483Z" fill="#575988"/>
<path opacity="0.1" d="M295.864 489.665C294.143 484.792 293.757 479.548 294.747 474.476L252.385 481.963C252.385 481.963 252.996 485.164 253.687 489.96C256.425 492.8 259.712 495.054 263.348 496.584C266.984 498.115 270.894 498.89 274.839 498.862C278.784 498.834 282.682 498.005 286.297 496.424C289.911 494.843 293.166 492.543 295.864 489.665Z" fill="black"/>
<path d="M303.092 467.845C303.092 475.499 300.074 482.846 294.694 488.291C289.313 493.737 282.003 496.843 274.347 496.936C266.692 497.028 259.308 494.101 253.797 488.788C248.286 483.474 245.091 476.203 244.905 468.551C244.899 468.315 244.897 468.08 244.897 467.845C244.896 462.397 246.424 457.059 249.308 452.437C252.191 447.816 256.315 444.096 261.208 441.702C262.081 441.276 262.978 440.892 263.898 440.551C268.687 438.791 273.853 438.311 278.885 439.16C278.888 439.162 278.892 439.163 278.896 439.163C285.341 440.26 291.228 443.497 295.607 448.352C299.985 453.206 302.599 459.394 303.027 465.917C303.07 466.555 303.092 467.197 303.092 467.845Z" fill="#F7C4A7"/>
<g opacity="0.1">
<path opacity="0.1" d="M263.857 441.233C263.87 441.224 263.884 441.216 263.898 441.208C262.978 441.548 262.081 441.932 261.208 442.359C256.315 444.753 252.191 448.473 249.308 453.094C246.424 457.716 244.896 463.054 244.897 468.502C244.897 468.737 244.899 468.972 244.905 469.208C245.809 469.184 246.699 468.97 247.515 468.581C254.61 465.271 258.866 455.142 260.536 448.079C261.136 445.55 261.709 442.701 263.857 441.233Z" fill="black"/>
<path opacity="0.1" d="M286.129 442.051C283.827 440.993 281.394 440.242 278.896 439.82C280.945 440.291 282.776 441.44 284.09 443.082C284.734 443.958 285.269 444.91 285.681 445.916C281.808 444.223 277.614 443.392 273.389 443.48C269.163 443.567 265.007 444.571 261.208 446.423C263.035 450.426 268.699 452.61 272.479 454.071C276.619 455.669 280.808 457.13 285.045 458.454C283.797 457.44 282.55 456.427 281.303 455.416C284.118 455.863 286.935 456.311 289.752 456.76C289.843 455.078 289.644 453.394 289.162 451.78C290.77 453.084 292.927 453.521 294.683 454.629C297.976 456.704 299.345 460.709 301.14 464.161C301.556 465.112 302.205 465.942 303.027 466.574C302.68 461.344 300.927 456.304 297.953 451.988C294.979 447.671 290.894 444.238 286.129 442.051Z" fill="black"/>
</g>
<path d="M263.857 440.577C263.87 440.567 263.884 440.559 263.898 440.551C262.978 440.891 262.081 441.275 261.208 441.702C256.315 444.096 252.191 447.816 249.308 452.437C246.424 457.059 244.896 462.397 244.897 467.845C244.897 468.08 244.899 468.315 244.905 468.551C245.809 468.527 246.699 468.313 247.515 467.924C254.61 464.615 258.866 454.486 260.536 447.422C261.136 444.893 261.709 442.044 263.857 440.577Z" fill="#632652"/>
<path d="M286.129 441.394C283.827 440.336 281.394 439.585 278.896 439.163C280.945 439.634 282.776 440.783 284.09 442.425C284.734 443.301 285.269 444.253 285.681 445.259C281.808 443.566 277.614 442.735 273.389 442.823C269.163 442.91 265.007 443.914 261.208 445.766C263.035 449.769 268.699 451.953 272.479 453.414C276.619 455.012 280.808 456.473 285.045 457.797C283.797 456.783 282.55 455.77 281.303 454.759C284.118 455.206 286.935 455.654 289.752 456.103C289.843 454.421 289.644 452.737 289.162 451.123C290.77 452.427 292.927 452.864 294.683 453.972C297.976 456.047 299.345 460.052 301.14 463.504C301.556 464.455 302.205 465.285 303.027 465.917C302.68 460.687 300.927 455.648 297.953 451.331C294.979 447.014 290.894 443.581 286.129 441.394Z" fill="#632652"/>
<path opacity="0.1" d="M241.58 463.047C241.58 463.047 271.534 425.825 306.194 463.047L303.199 454.704C303.199 454.704 286.938 430.959 275.385 436.093C263.831 441.227 252.492 444.864 252.492 444.864L241.58 463.047Z" fill="black"/>
<path d="M241.58 462.39C241.58 462.39 271.534 425.168 306.194 462.39L303.199 454.047C303.199 454.047 286.938 430.302 275.385 435.436C263.831 440.57 252.492 444.207 252.492 444.207L241.58 462.39Z" fill="#E14B5A"/>
<path opacity="0.1" d="M216.976 542.609C216.976 542.609 210.557 559.722 219.543 575.125C228.529 590.527 211.627 596.944 211.627 596.944" fill="black"/>
<path opacity="0.1" d="M320.956 527.207C320.956 527.207 332.082 541.325 324.808 553.947C317.533 566.568 317.961 596.944 317.961 596.944" fill="black"/>
<path d="M207.134 609.565H330.798C333.522 609.565 336.134 610.647 338.06 612.573C339.986 614.498 341.068 617.11 341.068 619.833H196.864C196.864 617.11 197.946 614.498 199.872 612.573C201.798 610.647 204.41 609.565 207.134 609.565H207.134Z" fill="#535461"/>
<path d="M225.736 538.972H312.196C317.981 538.972 323.529 541.27 327.619 545.36C331.71 549.45 334.008 554.997 334.008 560.781V611.918H203.925V560.781C203.925 554.997 206.223 549.45 210.313 545.36C214.404 541.27 219.952 538.972 225.736 538.972Z" fill="#535461"/>
<path d="M268.859 586.355C273.113 586.355 276.561 582.907 276.561 578.654C276.561 574.401 273.113 570.953 268.859 570.953C264.605 570.953 261.157 574.401 261.157 578.654C261.157 582.907 264.605 586.355 268.859 586.355Z" fill="white"/>
<path opacity="0.1" d="M243.292 445.595C243.292 445.595 272.732 416.176 304.482 445.058" stroke="black" stroke-miterlimit="10"/>
<path d="M311.922 443.721H308.965V460.473H311.922V443.721Z" fill="#6A5C99"/>
<path d="M305.023 454.56C307.724 454.56 310.314 455.633 312.224 457.543C314.134 459.453 315.207 462.043 315.207 464.743V465.4C315.207 468.101 314.134 470.691 312.224 472.6C310.314 474.51 307.724 475.583 305.023 475.583V454.56Z" fill="#FFD037"/>
<path d="M305.351 453.575H305.351C304.081 453.575 303.051 454.604 303.051 455.874V474.269C303.051 475.539 304.081 476.568 305.351 476.568H305.351C306.621 476.568 307.651 475.539 307.651 474.269V455.874C307.651 454.604 306.621 453.575 305.351 453.575Z" fill="#6A5C99"/>
<path d="M235.551 460.801H238.508V444.049H235.551V460.801Z" fill="#6A5C99"/>
<path d="M242.45 475.911C239.749 475.911 237.158 474.839 235.248 472.929C233.338 471.019 232.265 468.429 232.265 465.729V465.072C232.265 462.371 233.338 459.781 235.248 457.871C237.158 455.962 239.749 454.889 242.45 454.889V475.911Z" fill="#FFD037"/>
<path d="M242.121 476.897H242.121C243.392 476.897 244.421 475.867 244.421 474.598V456.203C244.421 454.933 243.392 453.903 242.121 453.903H242.121C240.851 453.903 239.822 454.933 239.822 456.203V474.598C239.822 475.867 240.851 476.897 242.121 476.897Z" fill="#6A5C99"/>
<path d="M308.615 425.815C304.611 417.492 295.892 407.429 277.096 406.626L277.098 406.603L276.872 406.614L276.857 406.613L276.857 406.614L270.198 406.931L270.199 406.964C251.527 407.823 242.849 417.847 238.858 426.143C236.204 431.764 234.796 437.891 234.73 444.106L237.029 444.049L239.328 443.997C239.429 438.457 240.705 433.002 243.072 427.993C248.142 417.584 257.468 412.047 270.792 411.537L270.791 411.532L276.681 411.206L276.681 411.208C290.005 411.719 299.331 417.255 304.4 427.664C306.767 432.674 308.044 438.129 308.144 443.668L310.443 443.721L312.742 443.777C312.676 437.562 311.268 431.435 308.615 425.815Z" fill="#FFD037"/>
<path d="M413.664 619.969H100.037V704.16H413.664V619.969Z" fill="#D6D6E3"/>
<path opacity="0.1" d="M413.664 625.635H100.037V636.564H413.664V625.635Z" fill="black"/>
<path d="M434.699 618.754H79V629.683H434.699V618.754Z" fill="#D6D6E3"/>
<path d="M322.565 591.576C322.565 591.576 335.988 616.18 369.544 609.47C403.1 602.76 386.882 671.539 386.882 671.539C386.882 671.539 381.391 704.349 385.255 704.16" stroke="#535461" stroke-width="3" stroke-miterlimit="10"/>
</g>
<defs>
<linearGradient id="paint0_linear" x1="599.95" y1="548.528" x2="599.95" y2="314.122" gradientUnits="userSpaceOnUse">
<stop stop-color="#808080" stop-opacity="0.25"/>
<stop offset="0.53514" stop-color="#808080" stop-opacity="0.12"/>
<stop offset="1" stop-color="#808080" stop-opacity="0.1"/>
</linearGradient>
<linearGradient id="paint1_linear" x1="75195.5" y1="152286" x2="75195.5" y2="66056.3" gradientUnits="userSpaceOnUse">
<stop stop-color="#808080" stop-opacity="0.25"/>
<stop offset="0.53514" stop-color="#808080" stop-opacity="0.12"/>
<stop offset="1" stop-color="#808080" stop-opacity="0.1"/>
</linearGradient>
<clipPath id="clip0">
<rect width="629" height="430.161" fill="white" transform="translate(79 274)"/>
</clipPath>
</defs>
</svg>
