<svg width="247" height="247" viewBox="0 0 247 247" fill="none" xmlns="http://www.w3.org/2000/svg">
<g clip-path="url(#clip0)">
<path d="M237.221 54.4994L125.073 0.359157C124.079 -0.12037 122.921 -0.12037 121.927 0.359157L9.77918 54.4994C8.52874 55.1029 7.73419 56.3693 7.73419 57.7577V189.241C7.73419 190.63 8.52874 191.896 9.77918 192.5L121.927 246.64C122.424 246.88 122.962 247 123.5 247C124.038 247 124.576 246.88 125.073 246.64L237.221 192.5C238.471 191.896 239.266 190.63 239.266 189.241V57.7582C239.266 56.3688 238.471 55.1034 237.221 54.4994ZM123.5 7.63553L227.325 57.7577L197.229 72.2873C197.038 72.1421 196.837 72.008 196.616 71.9014L93.4958 22.1202L123.5 7.63553ZM85.3245 26.2112L188.999 76.2605L167.765 86.5115L64.1336 36.4824L85.3245 26.2112ZM191.425 83.1244V121.017L171.591 130.592V92.6995L191.425 83.1244ZM232.029 186.971L127.118 237.617V114.169L152.143 102.088C153.942 101.219 154.697 99.0564 153.828 97.2565C152.959 95.4575 150.796 94.7021 148.996 95.5714L123.5 107.88L113.468 103.037C111.668 102.167 109.505 102.923 108.636 104.722C107.767 106.521 108.522 108.685 110.321 109.553L119.882 114.169V237.617L14.9705 186.97V63.5222L94.8596 102.089C95.3666 102.334 95.9026 102.45 96.4299 102.45C97.7749 102.45 99.0668 101.697 99.6906 100.404C100.559 98.6049 99.8049 96.4417 98.0055 95.5728L19.6746 57.7577L55.6175 40.406L164.304 92.8756C164.32 92.8978 164.338 92.9176 164.354 92.9393V136.357C164.354 137.602 164.995 138.759 166.049 139.422C166.635 139.789 167.303 139.975 167.973 139.975C168.509 139.975 169.047 139.856 169.546 139.615L196.616 126.547C197.866 125.943 198.661 124.677 198.661 123.288V79.6317L232.029 63.5227V186.971Z" fill="white"/>
<path d="M44.8295 172.938L28.3717 164.993C26.5713 164.123 24.4091 164.879 23.5402 166.678C22.6714 168.478 23.4259 170.641 25.2253 171.51L41.6832 179.455C42.1902 179.7 42.7261 179.815 43.2534 179.815C44.5984 179.815 45.8904 179.062 46.5141 177.769C47.3834 175.97 46.6289 173.807 44.8295 172.938Z" fill="white"/>
<path d="M59.9761 163.078L28.3944 147.832C26.5945 146.963 24.4318 147.718 23.5629 149.517C22.6946 151.317 23.4491 153.48 25.2485 154.349L56.8303 169.595C57.3373 169.84 57.8733 169.956 58.4006 169.956C59.7455 169.956 61.0375 169.203 61.6612 167.91C62.5301 166.11 61.7756 163.947 59.9761 163.078Z" fill="white"/>
</g>
<defs>
<clipPath id="clip0">
<rect width="247" height="247" fill="white"/>
</clipPath>
</defs>
</svg>
