<svg width="242" height="242" viewBox="0 0 242 242" fill="none" xmlns="http://www.w3.org/2000/svg">
<path d="M124.207 149.93C123.303 148.024 121.023 147.211 119.117 148.116C116.015 149.588 112.763 150.805 109.452 151.731C108.067 152.119 107.017 153.251 106.735 154.662L102.693 174.871C102.294 176.867 100.527 178.316 98.4921 178.316H87.4655C85.4303 178.316 83.6639 176.868 83.2645 174.871L79.2224 154.662C78.9402 153.251 77.89 152.119 76.5056 151.731C71.8272 150.422 67.3124 148.551 63.0864 146.171C61.8324 145.465 60.2882 145.523 59.0915 146.321L41.9407 157.754C40.2476 158.883 37.9741 158.657 36.5344 157.219L28.7375 149.421C27.2983 147.982 27.0737 145.709 28.202 144.015L39.6355 126.864C40.4339 125.667 40.492 124.123 39.7854 122.869C37.4046 118.643 35.5338 114.128 34.225 109.45C33.8375 108.065 32.7054 107.015 31.2946 106.733L11.0847 102.691C9.08918 102.292 7.64049 100.525 7.64049 98.4902V87.4636C7.64049 85.4284 9.08871 83.662 11.0847 83.2626L31.2946 79.2205C32.7054 78.9383 33.8375 77.8881 34.225 76.5037C35.5343 71.8253 37.4051 67.3105 39.7854 63.0845C40.4915 61.831 40.4334 60.2868 39.6355 59.0896L28.2029 41.9407C27.0742 40.2472 27.2992 37.9741 28.7384 36.5344L36.5354 28.7375C37.9746 27.2983 40.2486 27.0737 41.9416 28.202L59.0924 39.6355C60.2892 40.4339 61.8338 40.4915 63.0873 39.7854C67.3133 37.4051 71.8282 35.5343 76.5065 34.225C77.8919 33.8375 78.9416 32.7054 79.2233 31.2946L83.2655 11.0847C83.6644 9.08918 85.4312 7.64049 87.4665 7.64049H98.4931C100.528 7.64049 102.295 9.08871 102.694 11.0847L106.736 31.2946C107.018 32.7054 108.069 33.8375 109.453 34.225C114.131 35.5343 118.646 37.4051 122.872 39.7854C124.126 40.4915 125.67 40.4334 126.867 39.6355L144.018 28.202C145.711 27.0733 147.984 27.2987 149.424 28.7375L157.221 36.5344C158.66 37.9737 158.885 40.2472 157.757 41.9407L146.323 59.0915C145.525 60.2887 145.467 61.8324 146.173 63.0864C148.553 67.3124 150.424 71.8272 151.734 76.5056C152.121 77.8909 153.253 78.9407 154.664 79.2224L174.874 83.2645C176.869 83.6635 178.318 85.4303 178.318 87.4655V98.4921C178.318 100.527 176.87 102.294 174.874 102.693L154.664 106.735C153.253 107.017 152.121 108.068 151.734 109.453C150.784 112.847 149.531 116.176 148.009 119.348C147.096 121.25 147.898 123.532 149.801 124.445C151.703 125.359 153.986 124.556 154.898 122.653C156.272 119.79 157.451 116.814 158.416 113.778L176.373 110.187C181.926 109.075 185.958 104.157 185.958 98.4916V87.465C185.958 81.7998 181.926 76.8818 176.37 75.7701L158.414 72.1789C157.236 68.4713 155.744 64.8669 153.955 61.417L164.113 46.179C167.256 41.4652 166.629 35.1363 162.623 31.1301L154.826 23.3331C150.819 19.3269 144.491 18.7011 139.777 21.8429L124.539 32.0012C121.089 30.2131 117.485 28.72 113.777 27.5422L110.186 9.58594C109.076 4.03176 104.157 0 98.4921 0H87.4655C81.8003 0 76.8823 4.03176 75.7706 9.58736L72.1793 27.5436C68.4718 28.7214 64.8673 30.2141 61.4174 32.0026L46.1804 21.8443C41.4671 18.7021 35.1377 19.3279 31.1315 23.3346L23.3346 31.1315C19.3288 35.1377 18.7021 41.4661 21.8443 46.1804L32.0026 61.4184C30.2146 64.8683 28.7214 68.4723 27.5436 72.1803L9.58689 75.7715C4.03176 76.8823 0 81.8007 0 87.466V98.4926C0 104.158 4.03176 109.076 9.58736 110.188L27.5436 113.779C28.721 117.486 30.2141 121.09 32.0026 124.541L21.8443 139.779C18.7021 144.492 19.3283 150.821 23.3346 154.828L31.1315 162.624C35.1377 166.631 41.4666 167.257 46.1804 164.115L61.4184 153.956C64.8683 155.744 68.4723 157.238 72.1803 158.415L75.7715 176.373C76.8823 181.926 81.8007 185.959 87.466 185.959H98.4926C104.158 185.959 109.076 181.927 110.188 176.371L113.779 158.415C116.723 157.48 119.613 156.342 122.394 155.021C124.301 154.116 125.113 151.837 124.207 149.93Z" fill="white"/>
<path d="M126.076 114.211C126.634 114.497 127.229 114.633 127.816 114.633C129.204 114.633 130.543 113.874 131.219 112.555C134.301 106.545 135.93 99.7759 135.93 92.9795C135.93 69.2961 116.662 50.0278 92.9786 50.0278C81.7114 50.0278 71.0643 54.3583 62.998 62.2228C61.4869 63.6956 61.4562 66.1152 62.929 67.6258C64.4018 69.1364 66.8208 69.168 68.3319 67.6948C74.9628 61.2307 83.7154 57.6702 92.9776 57.6702C112.447 57.6702 128.287 73.5099 128.287 92.98C128.287 98.649 126.986 104.062 124.419 109.068C123.456 110.945 124.198 113.248 126.076 114.211Z" fill="white"/>
<path d="M57.2117 76.6294C55.2157 75.9427 53.0424 77.0038 52.3556 78.9993C50.8115 83.4886 50.0283 88.1925 50.0283 92.9791C50.0283 116.663 69.2966 135.931 92.98 135.931C102.089 135.931 110.791 133.116 118.148 127.788C119.857 126.55 120.239 124.161 119.002 122.452C117.764 120.743 115.374 120.361 113.665 121.598C107.621 125.974 100.468 128.288 92.9795 128.288C73.5094 128.288 57.6697 112.448 57.6697 92.9781C57.6697 89.039 58.3125 85.1713 59.5811 81.4841C60.2674 79.489 59.2068 77.3152 57.2117 76.6294Z" fill="white"/>
<path d="M234.646 166.997L223.597 164.788C222.924 162.785 222.113 160.829 221.174 158.939L227.425 149.563C229.835 145.947 229.355 141.093 226.282 138.021L221.159 132.897C218.086 129.825 213.232 129.344 209.616 131.754L200.24 138.005C198.35 137.066 196.394 136.255 194.392 135.583L192.182 124.533C191.33 120.272 187.558 117.18 183.212 117.18H175.966C171.622 117.18 167.849 120.272 166.997 124.533L164.787 135.583C162.784 136.256 160.829 137.066 158.939 138.005L149.562 131.754C145.946 129.344 141.092 129.824 138.02 132.897L132.896 138.021C129.824 141.093 129.343 145.947 131.753 149.563L138.005 158.939C136.713 161.538 135.666 164.26 134.883 167.058C134.314 169.091 135.501 171.199 137.533 171.768C139.565 172.336 141.674 171.15 142.243 169.118C143.074 166.144 144.264 163.275 145.776 160.589C146.482 159.335 146.424 157.791 145.626 156.594L138.113 145.324C137.716 144.729 137.795 143.93 138.301 143.424L143.424 138.301C143.93 137.796 144.729 137.717 145.324 138.113L156.594 145.626C157.791 146.425 159.335 146.482 160.589 145.776C163.275 144.264 166.143 143.075 169.117 142.243C170.503 141.855 171.552 140.723 171.834 139.312L174.49 126.032C174.63 125.331 175.251 124.822 175.966 124.822H183.212C183.927 124.822 184.548 125.331 184.689 126.032L187.344 139.313C187.627 140.724 188.677 141.856 190.061 142.244C193.035 143.076 195.904 144.265 198.589 145.777C199.843 146.483 201.388 146.425 202.584 145.627L213.855 138.114C214.45 137.717 215.249 137.796 215.754 138.302L220.878 143.425C221.383 143.931 221.462 144.73 221.066 145.325L213.552 156.595C212.754 157.793 212.696 159.336 213.402 160.59C214.915 163.276 216.104 166.144 216.936 169.118C217.324 170.504 218.456 171.554 219.866 171.835L233.147 174.491C233.848 174.631 234.357 175.252 234.357 175.967V183.214C234.357 183.928 233.848 184.549 233.147 184.69L219.866 187.346C218.455 187.628 217.323 188.678 216.935 190.062C216.103 193.036 214.914 195.905 213.401 198.59C212.695 199.844 212.753 201.389 213.551 202.585L221.065 213.856C221.462 214.451 221.383 215.25 220.877 215.755L215.753 220.879C215.248 221.385 214.449 221.463 213.854 221.067L202.583 213.553C201.387 212.756 199.842 212.697 198.588 213.404C195.903 214.916 193.034 216.105 190.06 216.937C188.675 217.325 187.625 218.457 187.343 219.868L184.688 233.148C184.548 233.849 183.927 234.358 183.212 234.358H175.965C175.251 234.358 174.629 233.849 174.489 233.148L171.833 219.867C171.551 218.456 170.501 217.324 169.116 216.936C166.142 216.104 163.273 214.915 160.588 213.403C159.334 212.696 157.79 212.755 156.593 213.552L145.323 221.066C144.728 221.463 143.929 221.384 143.423 220.878L138.3 215.754C137.794 215.249 137.716 214.45 138.112 213.855L145.625 202.584C146.424 201.387 146.482 199.843 145.775 198.59C144.263 195.904 143.074 193.035 142.242 190.061C141.854 188.676 140.722 187.626 139.311 187.345L126.031 184.689C125.33 184.549 124.821 183.928 124.821 183.213V175.966C124.821 175.252 125.33 174.631 126.031 174.49L126.844 174.328C128.913 173.914 130.256 171.901 129.841 169.831C129.427 167.762 127.416 166.422 125.344 166.834L124.531 166.997C120.271 167.849 117.179 171.622 117.179 175.967V183.213C117.179 187.558 120.271 191.33 124.532 192.183L135.581 194.392C136.255 196.395 137.065 198.35 138.004 200.241L131.753 209.617C129.342 213.233 129.823 218.087 132.896 221.159L138.019 226.283C141.092 229.356 145.946 229.836 149.562 227.426L158.938 221.174C160.828 222.114 162.784 222.925 164.786 223.597L166.996 234.647C167.849 238.908 171.622 242 175.967 242H183.213C187.558 242 191.33 238.908 192.183 234.647L194.392 223.597C196.395 222.924 198.35 222.114 200.24 221.174L209.617 227.425C213.233 229.835 218.087 229.355 221.159 226.282L226.283 221.159C229.356 218.086 229.836 213.232 227.426 209.617L221.174 200.24C222.114 198.35 222.925 196.395 223.597 194.392L234.646 192.182C238.907 191.33 242 187.558 242 183.213V175.966C242 171.622 238.907 167.849 234.646 166.997Z" fill="white"/>
<path d="M179.589 165.834C187.175 165.834 193.345 172.004 193.345 179.59C193.345 181.7 195.056 183.41 197.166 183.41C199.276 183.41 200.987 181.699 200.987 179.59C200.987 167.791 191.388 158.191 179.589 158.191C167.79 158.191 158.191 167.791 158.191 179.59C158.191 191.388 167.79 200.988 179.589 200.988C184.368 200.988 188.889 199.446 192.662 196.531C194.332 195.241 194.64 192.841 193.35 191.171C192.06 189.501 189.659 189.192 187.99 190.483C185.566 192.355 182.661 193.345 179.589 193.345C172.004 193.345 165.833 187.175 165.833 179.59C165.834 172.004 172.004 165.834 179.589 165.834Z" fill="white"/>
<path d="M116.259 92.979C116.259 80.1426 105.815 69.6992 92.979 69.6992C80.1426 69.6992 69.6993 80.143 69.6993 92.979C69.6993 105.815 80.1426 116.259 92.979 116.259C105.815 116.259 116.259 105.815 116.259 92.979ZM77.3412 92.979C77.3412 84.3568 84.3569 77.3411 92.979 77.3411C101.601 77.3411 108.617 84.3568 108.617 92.979C108.617 101.601 101.602 108.617 92.979 108.617C84.3559 108.617 77.3412 101.601 77.3412 92.979Z" fill="white"/>
</svg>
