<svg width="629" height="431" viewBox="0 0 629 431" fill="none" xmlns="http://www.w3.org/2000/svg">
<g clip-path="url(#clip0)">
<path opacity="0.1" d="M593.282 244.587C572.218 271.363 580.402 310.48 593.787 341.807C598.268 352.296 603.337 363.393 601.446 374.64C599.133 388.395 586.856 398.453 573.965 403.783C550.466 413.5 522.345 411.184 500.753 397.754C482.093 386.148 468.73 367.273 449.751 356.195C417.991 337.656 377.565 344.657 343.078 357.427C318.679 366.462 292.004 378.212 267.759 368.77C250.7 362.126 238.908 345.955 232.483 328.814C229.381 320.538 227.129 311.581 221.205 305.021C217.684 301.121 213.087 298.353 208.379 296.019C165.387 274.706 111.088 286.12 69.3303 262.481C41.1284 246.516 23.0737 216.401 15.0796 184.999C7.08554 153.597 8.01667 120.669 10.0463 88.3298C11.4887 65.3474 14.0766 40.8114 28.7638 23.0737C44.3008 4.30966 70.9655 -2.66761 95.0668 0.898853C119.168 4.46531 141.014 17.1767 160.233 32.1485C184.253 50.8601 206.529 74.1605 236.02 81.7401C256.103 86.9019 277.23 84.0784 297.943 83.1007C332.571 81.466 367.213 85.1012 401.651 89.0816C434.618 92.8922 467.824 97.0861 499.231 107.809C521.457 115.397 539.275 129.171 560.262 138.794C573.942 145.067 588.859 146.799 601.811 154.788C617.766 164.63 632.394 181.748 628.306 201.779C624.419 220.824 604.462 230.376 593.282 244.587Z" fill="#6C63FF"/>
<path d="M411.09 82.121C411.09 82.121 377.231 72.0947 374.994 100.613C372.757 129.131 383.942 176.103 374.994 191.201C366.046 206.299 334.115 228.112 350.919 230.066C367.723 232.021 376.113 234.817 371.079 244.882C366.046 254.947 339.76 264.454 345.353 271.723C350.945 278.992 353.742 287.939 348.149 296.886C342.556 305.833 322.982 311.425 326.337 317.576C329.693 323.727 341.997 327.082 335.845 333.792C329.693 340.502 311.859 355.766 318.818 355.683" stroke="#535461" stroke-width="3" stroke-miterlimit="10"/>
<path d="M460.552 63.1211H389.148C385.142 63.1211 381.894 66.3681 381.894 70.3735V95.705C381.894 99.7104 385.142 102.957 389.148 102.957H460.552C464.558 102.957 467.805 99.7104 467.805 95.705V70.3735C467.805 66.3681 464.558 63.1211 460.552 63.1211Z" fill="#6C63FF"/>
<path opacity="0.1" d="M460.957 96.8434H388.742V97.5904H460.957V96.8434Z" fill="black"/>
<path opacity="0.3" d="M460.957 69.3455H388.742V96.733H460.957V69.3455Z" fill="black"/>
<path opacity="0.1" d="M405.551 93.5699C411.052 93.5699 415.512 89.1111 415.512 83.6108C415.512 78.1106 411.052 73.6518 405.551 73.6518C400.05 73.6518 395.59 78.1106 395.59 83.6108C395.59 89.1111 400.05 93.5699 405.551 93.5699Z" fill="black"/>
<path opacity="0.1" d="M444.149 93.5699C449.65 93.5699 454.109 89.1111 454.109 83.6108C454.109 78.1106 449.65 73.6518 444.149 73.6518C438.647 73.6518 434.188 78.1106 434.188 83.6108C434.188 89.1111 438.647 93.5699 444.149 93.5699Z" fill="black"/>
<path d="M432.319 102.956H417.379V111.673H432.319V102.956Z" fill="#6C63FF"/>
<path d="M455.977 109.182H393.723V158.977H455.977V109.182Z" fill="#6C63FF"/>
<path d="M457.222 168.936H392.478V175.161H457.222V168.936Z" fill="#6C63FF"/>
<path d="M403.061 190.1V197.569V208.772V214.997V218.732H414.267V214.997V208.772V197.569V190.1V181.385H403.061V190.1Z" fill="#6C63FF"/>
<path d="M436.678 181.385V190.1V197.569V208.772V214.997V218.732H447.884V214.997V208.772V197.569V190.1V181.385H436.678Z" fill="#6C63FF"/>
<path d="M385.243 120.386V131.9C382.167 132.438 379.302 133.819 376.966 135.89C374.799 137.896 373.115 140.366 372.038 143.114C370.665 146.643 369.846 150.364 369.611 154.143C369.259 159.084 369.49 164.05 370.3 168.938H357.849C357.33 162.991 357.44 157.006 358.175 151.082C358.763 146.186 360.111 141.411 362.171 136.93C365.778 129.365 370.909 125.262 375.416 123.033C378.47 121.471 381.818 120.57 385.243 120.386Z" fill="#6C63FF"/>
<path opacity="0.3" d="M414.267 181.385H403.061V190.099H414.267V181.385Z" fill="black"/>
<path opacity="0.3" d="M414.267 197.569H403.061V208.773H414.267V197.569Z" fill="black"/>
<path opacity="0.3" d="M414.267 214.997H403.061V218.732H414.267V214.997Z" fill="black"/>
<path opacity="0.3" d="M447.884 181.385H436.678V190.099H447.884V181.385Z" fill="black"/>
<path opacity="0.3" d="M447.884 197.569H436.678V208.773H447.884V197.569Z" fill="black"/>
<path opacity="0.3" d="M447.884 214.997H436.678V218.732H447.884V214.997Z" fill="black"/>
<path opacity="0.3" d="M385.243 120.386V131.9C382.167 132.438 379.302 133.819 376.966 135.89L375.416 123.033C378.47 121.471 381.818 120.57 385.243 120.386Z" fill="black"/>
<path opacity="0.3" d="M372.038 143.114C370.665 146.643 369.846 150.364 369.611 154.143L358.175 151.082C358.763 146.186 360.111 141.411 362.171 136.93L372.038 143.114Z" fill="black"/>
<path d="M464.456 120.386V131.9C467.532 132.438 470.398 133.819 472.734 135.89C474.9 137.896 476.585 140.366 477.662 143.114C479.035 146.643 479.853 150.364 480.088 154.143C480.441 159.084 480.21 164.05 479.399 168.938H491.85C492.369 162.991 492.26 157.006 491.524 151.082C490.937 146.186 489.589 141.411 487.528 136.93C483.921 129.365 478.791 125.262 474.283 123.033C471.229 121.471 467.881 120.57 464.456 120.386Z" fill="#6C63FF"/>
<path opacity="0.3" d="M464.456 120.386V131.9C467.532 132.438 470.398 133.819 472.734 135.89L474.283 123.033C471.229 121.471 467.881 120.57 464.456 120.386Z" fill="black"/>
<path opacity="0.3" d="M477.662 143.114C479.035 146.643 479.853 150.364 480.088 154.143L491.524 151.082C490.937 146.186 489.589 141.411 487.528 136.93L477.662 143.114Z" fill="black"/>
<path opacity="0.1" d="M432.319 102.956H417.379V103.988H432.319V102.956Z" fill="black"/>
<path opacity="0.1" d="M457.083 118.054V138.902C456.338 138.098 455.925 137.043 455.926 135.947V121.006C455.925 119.911 456.338 118.857 457.083 118.054Z" fill="black"/>
<path opacity="0.1" d="M393.944 119.429V135.035C393.869 136.022 393.46 136.954 392.783 137.676V116.788C393.46 117.51 393.869 118.442 393.944 119.429Z" fill="black"/>
<path opacity="0.1" d="M452.864 158.978H396.836V159.716H452.864V158.978Z" fill="black"/>
<path opacity="0.1" d="M422.981 175.162H395.59V175.734H422.981V175.162Z" fill="black"/>
<path opacity="0.1" d="M452.864 175.162H425.474V175.734H452.864V175.162Z" fill="black"/>
<path d="M402.933 26.2552H398.646V63.1211H402.933V26.2552Z" fill="#6C63FF"/>
<path d="M452.096 26.2552H447.808V63.1211H452.096V26.2552Z" fill="#6C63FF"/>
<path opacity="0.1" d="M400.647 31.3992C403.33 31.3992 405.506 29.2241 405.506 26.5409C405.506 23.8578 403.33 21.6826 400.647 21.6826C397.963 21.6826 395.787 23.8578 395.787 26.5409C395.787 29.2241 397.963 31.3992 400.647 31.3992Z" fill="black"/>
<path d="M400.647 31.1135C403.33 31.1135 405.506 28.9383 405.506 26.2552C405.506 23.572 403.33 21.3969 400.647 21.3969C397.963 21.3969 395.787 23.572 395.787 26.2552C395.787 28.9383 397.963 31.1135 400.647 31.1135Z" fill="#6C63FF"/>
<path opacity="0.1" d="M450.095 31.3992C452.778 31.3992 454.954 29.2241 454.954 26.5409C454.954 23.8578 452.778 21.6826 450.095 21.6826C447.411 21.6826 445.236 23.8578 445.236 26.5409C445.236 29.2241 447.411 31.3992 450.095 31.3992Z" fill="black"/>
<path d="M450.095 31.1135C452.778 31.1135 454.954 28.9383 454.954 26.2552C454.954 23.572 452.778 21.3969 450.095 21.3969C447.411 21.3969 445.236 23.572 445.236 26.2552C445.236 28.9383 447.411 31.1135 450.095 31.1135Z" fill="#6C63FF"/>
<path opacity="0.5" d="M348.989 239.847C347.077 241.761 346.641 244.389 345.962 246.826C344.022 253.784 339.457 260.203 333.094 264.917C328.433 268.37 322.185 272.194 323.29 277.346C323.554 278.577 324.252 279.726 324.435 280.967C325.228 286.341 317.012 289.173 313.832 293.875C311.462 297.378 312.095 301.718 312.8 305.708C313.661 310.592 314.704 315.802 318.711 319.398C319.793 320.368 321.082 321.21 321.836 322.38C323.526 325.001 322.057 328.437 323.594 331.125C325.643 334.71 332.096 334.865 335.841 332.448C339.586 330.031 341.317 326.058 342.977 322.332C347.462 312.263 352.977 302.16 362.299 294.828C371.237 287.797 384.24 282.343 385.774 272.11C386.431 267.722 384.765 262.914 387.31 259.048C388.512 257.221 390.522 255.867 391.884 254.122C395.939 248.922 392.92 241.399 386.982 237.706C378.016 232.13 356.787 232.04 348.989 239.847Z" fill="#DEE3F3"/>
<path d="M506.129 52.898L466.626 65.2388L468.127 70.0424L507.63 57.7017L506.129 52.898Z" fill="#6C63FF"/>
<path d="M523.716 239.858C523.716 239.858 502.059 235.528 496.284 229.753C490.508 223.979 464.52 213.874 461.632 221.092C458.745 228.31 422.649 252.851 447.194 257.181C471.739 261.512 504.947 262.956 512.166 260.068C519.385 257.181 523.716 239.858 523.716 239.858Z" fill="#A8A8A8"/>
<path opacity="0.2" d="M447.194 254.5C471.739 258.831 504.947 260.274 512.166 257.387C517.663 255.188 521.484 244.624 522.994 239.708C523.451 239.805 523.716 239.858 523.716 239.858C523.716 239.858 519.385 257.181 512.166 260.068C504.947 262.956 471.739 261.512 447.194 257.181C440.109 255.931 438.083 252.995 438.846 249.28C439.452 251.704 441.921 253.569 447.194 254.5Z" fill="black"/>
<path d="M571.811 51.0741C571.425 50.1127 570.81 49.2602 570.019 48.5907C564.208 43.2948 554.808 44.9001 547.593 41.6652C545.931 40.92 544.226 39.8862 542.421 40.1695C539.9 40.565 537.557 43.4338 535.36 42.161L535.517 42.6402C535.465 42.6145 535.412 42.5887 535.36 42.5583C535.898 44.1989 536.437 45.8395 536.976 47.4801C537.596 49.3697 538.25 51.3142 539.457 52.8877C537.673 54.4436 536.307 56.4219 535.485 58.6418C534.663 60.8617 534.411 63.2522 534.751 65.5948C535.092 67.9373 536.015 70.157 537.435 72.0509C538.855 73.9448 540.728 75.4525 542.882 76.4359C542.958 76.6006 543.033 76.766 543.107 76.9331C543.175 76.9639 543.246 76.9906 543.315 77.0204C543.794 78.1211 544.151 79.2707 544.381 80.4488C542.511 80.7073 539.251 82.775 536.044 85.8285L529.631 85.6092C525.487 85.471 521.478 84.1081 518.109 81.6926L498.932 67.908C497.565 68.0422 496.277 68.6113 495.258 69.5318C492.876 67.051 490.855 64.4592 491.028 62.9411C491.028 62.9411 482.11 46.2526 478.867 54.5969C475.624 62.9411 484.947 71.6827 484.947 71.6827L490.862 79.3437C490.629 80.6866 490.481 82.0429 490.42 83.4044C497.716 91.7487 523.254 99.2982 523.254 99.2982L527.236 99.491C527.244 99.5641 527.251 99.6259 527.258 99.6866C527.014 100.731 526.894 101.801 526.902 102.874C526.905 103.028 526.907 103.19 526.91 103.351C526.909 103.457 526.901 103.564 526.902 103.669C527.105 116.98 528.929 157.708 528.929 157.708C529.284 157.55 529.651 157.405 530.024 157.269L529.74 160.887C529.74 160.887 512.715 163.271 500.148 168.039C487.582 172.807 487.177 178.37 487.177 178.37V227.455C483.586 229.297 477.923 231.718 475.016 230.422C471.86 229.016 470.127 230.198 469.814 231.431V231.431C469.75 231.673 469.745 231.927 469.8 232.172L469.804 232.187C469.831 232.297 469.872 232.402 469.925 232.502L469.937 232.525C469.995 232.628 470.067 232.723 470.151 232.806C471.367 233.998 497.716 244.329 503.796 242.74C503.984 242.691 504.168 242.629 504.348 242.554C504.406 242.53 504.458 242.498 504.515 242.472C504.627 242.419 504.741 242.367 504.846 242.305C504.908 242.268 504.964 242.223 505.024 242.183C505.115 242.122 505.208 242.063 505.293 241.995C505.352 241.948 505.406 241.894 505.462 241.844C505.54 241.774 505.62 241.706 505.693 241.631C505.746 241.575 505.793 241.514 505.844 241.456C505.913 241.377 505.983 241.299 506.047 241.215C506.093 241.154 506.134 241.088 506.177 241.025C506.238 240.935 506.301 240.847 506.357 240.753C506.396 240.688 506.431 240.619 506.467 240.552C506.522 240.452 506.577 240.353 506.626 240.248C506.658 240.181 506.687 240.111 506.717 240.042C506.765 239.932 506.813 239.821 506.857 239.707C506.882 239.639 506.905 239.569 506.929 239.5C506.971 239.379 507.013 239.257 507.051 239.131C507.07 239.066 507.087 238.999 507.105 238.933C507.142 238.798 507.178 238.664 507.21 238.526C507.224 238.465 507.237 238.403 507.25 238.341C507.281 238.194 507.311 238.047 507.337 237.897C507.347 237.842 507.355 237.786 507.364 237.73C507.39 237.57 507.414 237.409 507.434 237.246C507.44 237.2 507.445 237.153 507.45 237.106C507.471 236.932 507.489 236.757 507.503 236.581C507.506 236.544 507.509 236.507 507.512 236.47C507.526 236.282 507.538 236.093 507.547 235.904C507.548 235.878 507.549 235.853 507.55 235.828C507.558 235.625 507.564 235.423 507.567 235.221L507.567 235.183C507.558 232.812 507.296 230.449 506.784 228.135L508.255 186.317C516.217 186.441 524.18 186.147 532.11 185.438L532.983 205.39C532.983 205.39 532.983 218.502 537.442 224.462C541.258 229.563 545.667 252.122 546.859 258.522C545.221 261.645 542.087 265.508 536.631 265.389C536.631 265.389 526.364 264.501 526.943 267.325L526.944 267.33C526.96 267.403 526.982 267.476 527.009 267.546L527.015 267.564C527.047 267.646 527.085 267.725 527.127 267.801L527.136 267.817C527.177 267.89 527.225 267.965 527.278 268.042C527.289 268.058 527.3 268.073 527.311 268.089C527.371 268.172 527.436 268.257 527.511 268.345L527.529 268.367C527.598 268.446 527.674 268.528 527.754 268.612C527.777 268.635 527.799 268.658 527.823 268.682C527.914 268.774 528.011 268.868 528.118 268.965C533.388 273.733 564.196 274.528 564.196 274.528L564.196 274.509L564.196 274.497L564.195 274.437L564.195 274.42C564.195 274.39 564.194 274.352 564.194 274.309L564.194 274.293C564.176 272.914 563.992 265.673 562.147 260.223H562.574C562.574 260.223 558.115 220.091 554.467 215.323C554.467 215.323 553.498 194.162 555.686 180.9C555.82 180.851 555.956 180.804 556.088 180.754C566.308 176.938 567.033 167.54 565.98 160.635C567.914 161.256 569.06 161.682 569.06 161.682C569.06 161.682 569.025 161.381 568.959 160.85C569.023 160.873 569.06 160.887 569.06 160.887C569.06 160.887 568.865 159.625 568.544 157.655C567.814 152.241 566.397 142.779 564.889 138.312C564.646 137.33 564.412 136.49 564.196 135.854C563.325 133.17 562.727 130.404 562.411 127.6C561.998 123.966 561.789 120.312 561.785 116.655C561.818 111.768 562.192 106.889 562.905 102.054C563.524 97.8309 564.081 93.0279 564.034 89.6741C564.077 88.506 563.995 87.3367 563.79 86.1859C563.249 83.7096 560.86 82.0995 558.376 81.075C558.216 81.009 558.052 80.9548 557.89 80.8934C557.951 79.9548 558.03 78.8914 558.133 77.7701C558.431 77.9763 558.768 78.1197 559.123 78.1916C559.478 78.2635 559.844 78.2624 560.199 78.1883C561.267 77.9545 562.032 77.0635 562.715 76.2252C566.308 71.8134 569.997 67.2147 571.377 61.7342C571.928 59.2863 572.183 56.7811 572.136 54.2724C572.137 54.1353 572.137 53.9978 572.136 53.86C572.191 52.9195 572.081 51.9768 571.811 51.0741Z" fill="url(#paint0_linear)"/>
<path d="M539.101 72.5808C539.101 72.5808 544.544 80.7442 543.377 84.6315C542.211 88.5188 556.207 86.1864 556.207 86.1864C556.207 86.1864 556.596 71.0258 559.318 67.5272C562.039 64.0286 539.101 72.5808 539.101 72.5808Z" fill="#F7C4A7"/>
<path d="M503.137 77.8287C503.137 77.8287 491.862 68.4991 492.251 65.0005C492.251 65.0005 483.697 48.6737 480.587 56.8371C477.476 65.0005 486.419 73.5526 486.419 73.5526L497.305 87.9358L503.137 77.8287Z" fill="#F7C4A7"/>
<path d="M491.667 224.187C491.667 224.187 481.17 230.795 476.893 228.852C472.616 226.908 471.061 230.018 472.228 231.184C473.394 232.35 498.666 242.457 504.498 240.902C510.329 239.347 507.363 226.613 507.363 226.613L491.667 224.187Z" fill="#535461"/>
<path d="M547.265 252.564C547.265 252.564 544.738 263.254 535.99 263.06C535.99 263.06 522.771 261.894 527.825 266.559C532.88 271.223 562.428 272.001 562.428 272.001C562.428 272.001 562.428 256.063 556.985 252.564C551.542 249.066 547.265 252.564 547.265 252.564Z" fill="#535461"/>
<path d="M531.324 177.15L532.491 204.361C532.491 204.361 532.491 217.19 536.768 223.021C541.044 228.852 546.099 258.007 546.099 258.007H560.873C560.873 258.007 556.596 218.744 553.097 214.08C553.097 214.08 551.542 179.482 556.985 171.708L531.324 177.15Z" fill="#575988"/>
<path opacity="0.1" d="M531.324 177.15L532.491 204.361C532.491 204.361 532.491 217.19 536.768 223.021C541.044 228.852 546.099 258.007 546.099 258.007H560.873C560.873 258.007 556.596 218.744 553.097 214.08C553.097 214.08 551.542 179.482 556.985 171.708L531.324 177.15Z" fill="black"/>
<path d="M562.039 152.66C562.039 152.66 570.982 174.04 554.652 180.26C538.323 186.48 508.774 185.702 508.774 185.702L507.219 230.795C507.219 230.795 488.946 233.128 488.557 227.297V177.927C488.557 177.927 488.946 172.485 500.999 167.82C513.051 163.156 529.381 160.823 529.381 160.823L530.158 150.716L562.039 152.66Z" fill="#575988"/>
<path opacity="0.1" d="M547.711 82.2274C550.817 81.8841 553.958 82.3282 556.846 83.5187C559.229 84.521 561.52 86.0963 562.039 88.5188C562.654 91.3879 561.973 97.8223 561.19 103.265C559.939 111.8 559.779 120.46 560.716 129.035C561.117 132.607 561.67 135.721 562.428 137.11C564.761 141.387 567.094 161.601 567.094 161.601C567.094 161.601 541.433 151.882 528.603 157.713C528.603 157.713 526.853 117.868 526.659 104.846C526.509 94.7621 539.295 83.2709 543.572 82.8822C546.078 82.6544 545.221 82.4858 547.711 82.2274Z" fill="black"/>
<path d="M547.711 81.4499C550.817 81.1067 553.958 81.5508 556.846 82.7412C559.229 83.7435 561.52 85.3188 562.039 87.7414C562.654 90.6105 561.973 97.0449 561.19 102.488C559.939 111.023 559.779 119.683 560.716 128.258C561.019 131 561.593 133.704 562.428 136.333C564.178 141.581 567.094 160.823 567.094 160.823C567.094 160.823 541.433 151.105 528.603 156.936C528.603 156.936 526.853 117.091 526.659 104.068C526.509 93.9847 539.295 82.4935 543.572 82.1048C546.078 81.8769 545.221 81.7083 547.711 81.4499Z" fill="#E14B5A"/>
<path opacity="0.1" d="M554.652 102.902L527.048 101.347C527.048 101.347 525.291 87.8157 529.276 87.9547L556.596 88.9076C556.596 88.9076 562.428 95.9047 554.652 102.902Z" fill="black"/>
<path d="M554.652 102.125L523.16 100.57C523.16 100.57 498.666 93.1836 491.667 85.0202C491.667 85.0202 492.056 70.6371 499.832 69.8596L518.225 83.3455C521.44 85.7031 525.291 87.0382 529.276 87.1772L556.596 88.1301C556.596 88.1301 562.428 95.1273 554.652 102.125Z" fill="#E14B5A"/>
<path opacity="0.1" d="M556.013 74.3301C556.475 70.6438 558.147 69.4211 559.318 67.916C562.039 64.4174 539.1 72.9695 539.1 72.9695C540.283 74.7914 541.32 76.7039 542.201 78.6891C544.033 79.5325 546.026 79.9684 548.043 79.9667C551.425 79.9667 553.594 76.3265 556.013 74.3301Z" fill="black"/>
<path d="M548.043 79.578C555.773 79.578 562.039 73.3125 562.039 65.5836C562.039 57.8547 555.773 51.5892 548.043 51.5892C540.313 51.5892 534.046 57.8547 534.046 65.5836C534.046 73.3125 540.313 79.578 548.043 79.578Z" fill="#F7C4A7"/>
<path opacity="0.1" d="M539.204 55.7745C537.713 54.1469 536.997 51.9754 536.321 49.8746L534.771 45.0595C536.878 46.3047 539.126 43.4981 541.543 43.1111C543.274 42.834 544.91 43.8454 546.504 44.5745C553.424 47.7393 562.44 46.1687 568.013 51.3498C568.775 52.0086 569.364 52.8424 569.732 53.7794C569.992 54.6683 570.097 55.5951 570.044 56.5196C570.089 58.9731 569.845 61.4233 569.316 63.8196C567.992 69.1814 564.454 73.6804 561.008 77.9966C560.353 78.8166 559.619 79.6884 558.595 79.9171C556.594 80.3638 555.046 78.2017 554.272 76.304C553.246 73.7903 552.49 71.1752 552.016 68.5023C551.896 67.3591 551.583 66.2443 551.092 65.205C549.887 63.0696 546.918 61.049 545.112 59.3948C543.337 57.7691 540.862 57.5852 539.204 55.7745Z" fill="black"/>
<path d="M539.204 55.3858C537.713 53.7581 536.997 51.5867 536.321 49.4859L534.771 44.6708C536.878 45.916 539.126 43.1094 541.543 42.7224C543.274 42.4453 544.91 43.4567 546.504 44.1857C553.424 47.3506 562.44 45.78 568.013 50.9611C568.775 51.6199 569.364 52.4536 569.732 53.3907C569.992 54.2796 570.097 55.2063 570.044 56.1309C570.089 58.5844 569.845 61.0346 569.316 63.4309C567.992 68.7927 564.454 73.2917 561.008 77.6079C560.353 78.4279 559.619 79.2997 558.595 79.5284C556.594 79.9751 555.046 77.8129 554.272 75.9153C553.246 73.4016 552.49 70.7865 552.016 68.1136C551.896 66.9703 551.583 65.8556 551.092 64.8162C549.887 62.6809 546.918 60.6602 545.112 59.0061C543.337 57.3803 540.862 57.1964 539.204 55.3858Z" fill="#632652"/>
<path d="M551.736 69.6653C552.381 69.6653 552.903 68.534 552.903 67.1385C552.903 65.743 552.381 64.6118 551.736 64.6118C551.092 64.6118 550.57 65.743 550.57 67.1385C550.57 68.534 551.092 69.6653 551.736 69.6653Z" fill="#F7C4A7"/>
<path opacity="0.1" d="M558.735 134.584C558.735 134.584 557.957 136.916 554.069 136.527C550.181 136.139 538.906 135.361 538.906 136.527" fill="black"/>
<path opacity="0.5" d="M527.825 266.17C527.291 265.758 526.896 265.192 526.694 264.548C526.592 265.053 526.904 265.709 527.825 266.559C532.88 271.223 562.428 272.001 562.428 272.001C562.428 272.001 562.428 271.863 562.424 271.612C562.237 271.607 532.864 270.82 527.825 266.17Z" fill="white"/>
<path opacity="0.5" d="M504.498 240.125C498.666 241.68 473.394 231.573 472.228 230.406C472.072 230.249 471.96 230.053 471.904 229.838C471.837 230.071 471.831 230.318 471.888 230.554C471.944 230.79 472.062 231.007 472.228 231.184C473.394 232.35 498.666 242.457 504.498 240.902C507.499 240.102 508.168 236.341 508.113 232.878C508.056 236.107 507.276 239.384 504.498 240.125Z" fill="white"/>
<path d="M282.711 269.918C281.347 262.333 280.511 254.664 280.207 246.964V246.964C279.94 240.622 277.716 234.518 273.841 229.491C269.966 224.463 264.63 220.757 258.565 218.882C256.356 218.203 253.92 217.568 251.235 216.998C227.674 211.994 220.516 216.363 219.703 216.937C219.017 215.682 218.421 214.381 217.919 213.042C217.879 212.906 217.842 212.767 217.804 212.63C222.467 207.657 225.307 201.253 225.863 194.46C229.793 190.475 232.089 185.668 232.089 180.492C232.089 176.041 230.389 171.863 227.414 168.246V161.222C227.414 157.205 226.622 153.227 225.085 149.516C223.547 145.804 221.294 142.432 218.453 139.592C215.612 136.751 212.239 134.498 208.527 132.96C204.815 131.423 200.836 130.632 196.819 130.632H194.337C190.32 130.632 186.341 131.423 182.629 132.96C178.917 134.498 175.544 136.751 172.703 139.592C169.862 142.432 167.609 145.804 166.071 149.516C164.534 153.227 163.742 157.205 163.742 161.222V168.804C161.061 172.116 159.571 176.232 159.512 180.492C159.512 185.559 161.715 190.272 165.495 194.207C166.011 201.249 168.983 207.887 173.891 212.965C174.057 214.113 174.227 215.35 174.394 216.654L132.24 225.567C132.24 225.567 115.989 226.235 105.525 247.826C96.667 266.105 79.0342 313.097 73.8318 327.087H73.8317L73.8317 327.087C72.8889 329.623 72.3536 331.076 72.3536 331.076C72.3536 331.076 72.5262 330.901 72.8573 330.603C72.5299 331.488 72.3536 331.966 72.3536 331.966C72.3536 331.966 72.6095 331.708 73.0957 331.282C72.3574 337.137 72.252 347.186 79.923 348.438C86.3531 349.488 102.916 349.919 115.432 350.095V350.107H116.3C124.594 350.219 130.905 350.219 130.905 350.219V350.107H265.483V348.728C265.484 347.476 265.232 346.236 264.741 345.084C264.806 345.009 264.868 344.934 264.929 344.859C265.649 345.809 266.128 346.92 266.325 348.096C266.31 348.211 266.289 348.325 266.262 348.438C266.262 348.438 266.29 348.366 266.341 348.232C266.374 348.599 266.347 348.969 266.262 349.328C266.262 349.328 283.528 304.847 283.344 278.287C283.394 275.483 283.182 272.682 282.711 269.918ZM175.085 222.66C174.862 221.391 174.72 220.11 174.657 218.824L174.659 218.788C174.807 220.037 174.951 221.332 175.085 222.66ZM122.779 318.203V328.804L116.132 330.224L122.779 318.203Z" fill="url(#paint1_linear)"/>
<path d="M194.887 134.91H194.887C203.001 134.91 210.783 138.133 216.521 143.87C222.259 149.607 225.482 157.387 225.482 165.501V178.55H164.292V165.501C164.292 157.387 167.515 149.607 173.253 143.87C178.991 138.133 186.773 134.91 194.887 134.91Z" fill="#E14B5A"/>
<path d="M195.101 206.787C214.362 206.787 229.975 196.06 229.975 182.828C229.975 169.596 214.362 158.869 195.101 158.869C175.841 158.869 160.227 169.596 160.227 182.828C160.227 196.06 175.841 206.787 195.101 206.787Z" fill="#E14B5A"/>
<path d="M172.743 206.038C172.743 206.038 180.017 244.115 172.743 254.383C165.469 264.652 194.994 268.716 194.994 268.716L225.589 257.592L229.868 230.211C229.868 230.211 211.254 219.729 215.106 198.551L172.743 206.038Z" fill="#F7C4A7"/>
<path d="M263.031 334.389C263.031 334.389 264.956 342.732 254.473 344.229C248.282 345.14 241.985 345.065 235.818 344.007L233.505 323.051H257.896L263.031 334.389Z" fill="#F7C4A7"/>
<path d="M77.8852 323.71C77.8852 323.71 73.2554 342.518 83.7391 344.229C94.2227 345.94 132.734 345.94 132.734 345.94V323.693L115.3 327.416L98.9297 311.713L77.8852 323.71Z" fill="#F7C4A7"/>
<path opacity="0.1" d="M174.99 218.338L134.018 227.002C134.018 227.002 118.399 227.644 108.343 248.394C98.2877 269.144 76.4646 328.399 76.4646 328.399C76.4646 328.399 95.0784 309.574 116.902 329.683L131.45 303.371L128.241 345.085H240.994V325.404C240.994 325.404 264.528 338.025 262.817 345.085C262.817 345.085 282.956 293.203 278.625 269.624C277.314 262.335 276.51 254.964 276.219 247.564V247.564C275.961 241.47 273.824 235.604 270.1 230.772C266.376 225.94 261.248 222.379 255.419 220.577C253.297 219.924 250.956 219.314 248.375 218.766C224.199 213.632 217.994 218.766 217.994 218.766C217.994 218.766 213.311 234.002 213.394 240.907C213.501 249.784 200.771 255.667 200.771 255.667C200.771 255.667 181.943 251.175 181.087 247.538C180.231 243.901 173.492 222.617 174.99 218.338Z" fill="black"/>
<path d="M174.99 217.483L134.018 226.146C134.018 226.146 118.399 226.788 108.343 247.538C98.2877 268.288 76.4646 327.543 76.4646 327.543C76.4646 327.543 95.0784 308.719 116.902 328.827L131.45 302.515L128.241 344.229H240.994V324.549C240.994 324.549 264.528 337.17 262.817 344.229C262.817 344.229 282.956 292.347 278.625 268.768C277.314 261.48 276.51 254.109 276.219 246.709V246.709C275.961 240.614 273.824 234.748 270.1 229.917C266.376 225.085 261.248 221.524 255.419 219.722C253.297 219.069 250.956 218.459 248.375 217.91C224.199 212.776 217.994 217.91 217.994 217.91C217.994 217.91 213.311 233.146 213.394 240.051C213.501 248.929 200.771 254.811 200.771 254.811C200.771 254.811 181.943 250.319 181.087 246.682C180.231 243.046 173.492 221.761 174.99 217.483Z" fill="#575988"/>
<path opacity="0.1" d="M216.864 215.665C215.143 210.792 214.757 205.548 215.747 200.476L173.385 207.963C173.385 207.963 173.996 211.164 174.687 215.96C177.425 218.8 180.712 221.054 184.348 222.584C187.984 224.115 191.894 224.89 195.839 224.862C199.784 224.834 203.682 224.005 207.297 222.424C210.911 220.843 214.166 218.543 216.864 215.665Z" fill="black"/>
<path d="M224.092 193.845C224.092 201.499 221.074 208.846 215.694 214.291C210.313 219.737 203.003 222.843 195.347 222.936C187.692 223.028 180.308 220.101 174.797 214.788C169.286 209.474 166.091 202.203 165.905 194.551C165.899 194.315 165.897 194.08 165.897 193.845C165.896 188.397 167.424 183.059 170.308 178.437C173.191 173.816 177.315 170.096 182.208 167.702C183.081 167.276 183.978 166.892 184.898 166.551C189.687 164.791 194.853 164.311 199.885 165.16C199.888 165.162 199.892 165.163 199.896 165.163C206.341 166.26 212.228 169.497 216.607 174.352C220.985 179.206 223.599 185.394 224.027 191.917C224.07 192.555 224.092 193.197 224.092 193.845Z" fill="#F7C4A7"/>
<g opacity="0.1">
<path opacity="0.1" d="M184.857 167.233C184.87 167.224 184.884 167.216 184.898 167.208C183.978 167.548 183.081 167.932 182.208 168.359C177.315 170.753 173.191 174.473 170.308 179.094C167.424 183.716 165.896 189.054 165.897 194.502C165.897 194.737 165.899 194.972 165.905 195.208C166.809 195.184 167.699 194.97 168.515 194.581C175.61 191.271 179.866 181.142 181.536 174.079C182.136 171.55 182.709 168.701 184.857 167.233Z" fill="black"/>
<path opacity="0.1" d="M207.129 168.051C204.827 166.993 202.394 166.242 199.896 165.82C201.945 166.291 203.776 167.44 205.09 169.082C205.734 169.958 206.269 170.91 206.681 171.916C202.808 170.223 198.614 169.392 194.389 169.48C190.163 169.567 186.007 170.571 182.208 172.423C184.035 176.426 189.699 178.61 193.479 180.071C197.619 181.669 201.808 183.13 206.045 184.454C204.797 183.44 203.55 182.427 202.303 181.416C205.118 181.863 207.935 182.311 210.752 182.76C210.843 181.078 210.644 179.394 210.162 177.78C211.77 179.084 213.927 179.521 215.683 180.629C218.976 182.704 220.345 186.709 222.14 190.161C222.556 191.112 223.205 191.942 224.027 192.574C223.68 187.344 221.927 182.304 218.953 177.988C215.979 173.671 211.894 170.238 207.129 168.051Z" fill="black"/>
</g>
<path d="M184.857 166.577C184.87 166.567 184.884 166.559 184.898 166.551C183.978 166.891 183.081 167.275 182.208 167.702C177.315 170.096 173.191 173.816 170.308 178.437C167.424 183.059 165.896 188.397 165.897 193.845C165.897 194.08 165.899 194.315 165.905 194.551C166.809 194.527 167.699 194.313 168.515 193.924C175.61 190.615 179.866 180.486 181.536 173.422C182.136 170.893 182.709 168.044 184.857 166.577Z" fill="#632652"/>
<path d="M207.129 167.394C204.827 166.336 202.394 165.585 199.896 165.163C201.945 165.634 203.776 166.783 205.09 168.425C205.734 169.301 206.269 170.253 206.681 171.259C202.808 169.566 198.614 168.735 194.389 168.823C190.163 168.91 186.007 169.914 182.208 171.766C184.035 175.769 189.699 177.953 193.479 179.414C197.619 181.012 201.808 182.473 206.045 183.797C204.797 182.783 203.55 181.77 202.303 180.759C205.118 181.206 207.935 181.654 210.752 182.103C210.843 180.421 210.644 178.737 210.162 177.123C211.77 178.427 213.927 178.864 215.683 179.972C218.976 182.047 220.345 186.052 222.14 189.504C222.556 190.455 223.205 191.285 224.027 191.917C223.68 186.687 221.927 181.648 218.953 177.331C215.979 173.014 211.894 169.581 207.129 167.394Z" fill="#632652"/>
<path opacity="0.1" d="M162.58 189.047C162.58 189.047 192.534 151.825 227.194 189.047L224.199 180.704C224.199 180.704 207.938 156.959 196.385 162.093C184.831 167.227 173.492 170.864 173.492 170.864L162.58 189.047Z" fill="black"/>
<path d="M162.58 188.39C162.58 188.39 192.534 151.168 227.194 188.39L224.199 180.047C224.199 180.047 207.938 156.302 196.385 161.436C184.831 166.57 173.492 170.207 173.492 170.207L162.58 188.39Z" fill="#E14B5A"/>
<path opacity="0.1" d="M137.976 268.609C137.976 268.609 131.557 285.722 140.543 301.125C149.529 316.527 132.627 322.944 132.627 322.944" fill="black"/>
<path opacity="0.1" d="M241.956 253.207C241.956 253.207 253.082 267.325 245.808 279.947C238.533 292.568 238.961 322.944 238.961 322.944" fill="black"/>
<path d="M128.134 335.565H251.798C254.522 335.565 257.134 336.647 259.06 338.573C260.986 340.498 262.068 343.11 262.068 345.833H117.864C117.864 343.11 118.946 340.498 120.872 338.573C122.798 336.647 125.41 335.565 128.134 335.565H128.134Z" fill="#535461"/>
<path d="M146.736 264.972H233.196C238.981 264.972 244.529 267.27 248.619 271.36C252.71 275.45 255.008 280.997 255.008 286.781V337.918H124.925V286.781C124.925 280.997 127.223 275.45 131.313 271.36C135.404 267.27 140.952 264.972 146.736 264.972Z" fill="#535461"/>
<path d="M189.859 312.355C194.113 312.355 197.561 308.907 197.561 304.654C197.561 300.401 194.113 296.953 189.859 296.953C185.605 296.953 182.157 300.401 182.157 304.654C182.157 308.907 185.605 312.355 189.859 312.355Z" fill="white"/>
<path opacity="0.1" d="M164.292 171.595C164.292 171.595 193.732 142.176 225.482 171.058" stroke="black" stroke-miterlimit="10"/>
<path d="M232.922 169.721H229.965V186.473H232.922V169.721Z" fill="#6A5C99"/>
<path d="M226.023 180.56C228.724 180.56 231.314 181.633 233.224 183.543C235.134 185.453 236.207 188.043 236.207 190.743V191.4C236.207 194.101 235.134 196.691 233.224 198.6C231.314 200.51 228.724 201.583 226.023 201.583V180.56Z" fill="#FFD037"/>
<path d="M226.351 179.575H226.351C225.081 179.575 224.051 180.604 224.051 181.874V200.269C224.051 201.539 225.081 202.568 226.351 202.568H226.351C227.621 202.568 228.651 201.539 228.651 200.269V181.874C228.651 180.604 227.621 179.575 226.351 179.575Z" fill="#6A5C99"/>
<path d="M156.551 186.801H159.508V170.049H156.551V186.801Z" fill="#6A5C99"/>
<path d="M163.45 201.911C160.749 201.911 158.158 200.839 156.248 198.929C154.338 197.019 153.265 194.429 153.265 191.729V191.072C153.265 188.371 154.338 185.781 156.248 183.871C158.158 181.962 160.749 180.889 163.45 180.889V201.911Z" fill="#FFD037"/>
<path d="M163.121 202.897H163.121C164.392 202.897 165.421 201.867 165.421 200.598V182.203C165.421 180.933 164.392 179.903 163.121 179.903H163.121C161.851 179.903 160.822 180.933 160.822 182.203V200.598C160.822 201.867 161.851 202.897 163.121 202.897Z" fill="#6A5C99"/>
<path d="M229.615 151.815C225.611 143.492 216.892 133.429 198.096 132.626L198.098 132.603L197.872 132.614L197.857 132.613L197.857 132.614L191.198 132.931L191.199 132.964C172.527 133.823 163.849 143.847 159.858 152.143C157.204 157.764 155.796 163.891 155.73 170.106L158.029 170.049L160.328 169.997C160.429 164.457 161.705 159.002 164.072 153.993C169.142 143.584 178.468 138.047 191.792 137.537L191.791 137.532L197.681 137.206L197.681 137.208C211.005 137.719 220.331 143.255 225.4 153.664C227.767 158.674 229.044 164.129 229.144 169.668L231.443 169.721L233.742 169.777C233.676 163.562 232.268 157.435 229.615 151.815Z" fill="#FFD037"/>
<path d="M334.664 345.969H21.0371V430.16H334.664V345.969Z" fill="#D6D6E3"/>
<path opacity="0.1" d="M334.664 351.635H21.0371V362.564H334.664V351.635Z" fill="black"/>
<path d="M355.699 344.754H0V355.683H355.699V344.754Z" fill="#D6D6E3"/>
<path d="M243.565 317.576C243.565 317.576 256.988 342.18 290.544 335.47C324.1 328.76 307.882 397.539 307.882 397.539C307.882 397.539 302.391 430.349 306.255 430.16" stroke="#535461" stroke-width="3" stroke-miterlimit="10"/>
</g>
<defs>
<linearGradient id="paint0_linear" x1="520.95" y1="274.528" x2="520.95" y2="40.1216" gradientUnits="userSpaceOnUse">
<stop stop-color="#808080" stop-opacity="0.25"/>
<stop offset="0.53514" stop-color="#808080" stop-opacity="0.12"/>
<stop offset="1" stop-color="#808080" stop-opacity="0.1"/>
</linearGradient>
<linearGradient id="paint1_linear" x1="75116.5" y1="152012" x2="75116.5" y2="65782.3" gradientUnits="userSpaceOnUse">
<stop stop-color="#808080" stop-opacity="0.25"/>
<stop offset="0.53514" stop-color="#808080" stop-opacity="0.12"/>
<stop offset="1" stop-color="#808080" stop-opacity="0.1"/>
</linearGradient>
<clipPath id="clip0">
<rect width="629" height="430.161" fill="white"/>
</clipPath>
</defs>
</svg>
