<svg width="231" height="231" viewBox="0 0 231 231" fill="none" xmlns="http://www.w3.org/2000/svg">
<path d="M73.9287 212.313H80.6822V230.776H73.9287V212.313Z" fill="white"/>
<path d="M150.318 212.313H157.071V230.776H150.318V212.313Z" fill="white"/>
<path d="M209.289 157.217H198.917V151.319C205.371 146.844 209.612 139.387 209.612 130.956V118.122C209.612 104.466 198.502 93.3555 184.845 93.3555C171.19 93.3555 160.08 104.466 160.08 118.122V130.956C160.08 139.387 164.318 146.844 170.774 151.319V157.216H160.399C150.06 157.216 141.284 164.526 139.174 174.36H132.949V164.974C141.425 159.318 147.02 149.671 147.02 138.739V121.853C147.02 104.473 132.881 90.333 115.5 90.333C98.1193 90.333 83.9797 104.473 83.9797 121.853V138.739C83.9797 149.671 89.5752 159.316 98.0506 164.974V174.36H91.8258C89.7162 164.526 80.9395 157.216 70.6013 157.216H60.2262V151.319C66.6818 146.844 70.9203 139.387 70.9203 130.956V118.122C70.9203 104.466 59.8102 93.3555 46.1552 93.3555C32.4985 93.3555 21.3884 104.466 21.3884 118.122V130.956C21.3884 139.387 25.6287 146.844 32.0826 151.319V157.217H21.7109C9.73897 157.217 0 166.956 0 178.928V230.776H6.75524V178.928C6.75524 170.68 13.4629 163.971 21.7109 163.971H32.4245C33.8308 170.257 39.4511 174.972 46.1552 174.972C52.8594 174.972 58.4796 170.257 59.886 163.971H70.6013C77.2174 163.971 82.9028 168.315 84.8415 174.36H83.3364C68.1728 174.36 55.836 186.697 55.836 201.861V230.776H62.5913V201.861C62.5913 190.421 71.8967 181.115 83.3364 181.115H98.3096C99.7266 189.323 106.892 195.588 115.5 195.588C124.108 195.588 131.273 189.323 132.69 181.115H147.664C159.103 181.115 168.409 190.421 168.409 201.861V230.776H175.164V201.861C175.164 186.697 162.827 174.36 147.664 174.36H146.159C148.097 168.315 153.784 163.971 160.399 163.971H171.114C172.52 170.257 178.141 174.972 184.845 174.972C191.549 174.972 197.169 170.257 198.576 163.971H209.289C217.537 163.971 224.245 170.68 224.245 178.928V230.776H231V178.928C231 166.956 221.261 157.217 209.289 157.217ZM46.1552 100.111C55.9858 100.111 63.9959 108.027 64.1598 117.819C61.8211 114.569 58.0531 112.606 53.982 112.606H38.3267C34.2573 112.606 30.4893 114.571 28.1507 117.819C28.3128 108.027 36.3246 100.111 46.1552 100.111ZM53.4727 160.899C53.4727 164.935 50.1893 168.217 46.1552 168.217C42.1211 168.217 38.8378 164.935 38.8378 160.899V154.618C41.1518 155.333 43.6086 155.721 46.1552 155.721C48.7019 155.721 51.1587 155.333 53.4727 154.618V160.899ZM46.1552 148.968C36.4973 148.968 28.593 141.326 28.1648 131.772L33.2352 122.396C34.2468 120.523 36.1977 119.36 38.3267 119.36H53.982C56.111 119.36 58.0637 120.523 59.0753 122.396L64.1457 131.772C63.7175 141.326 55.8131 148.968 46.1552 148.968ZM90.7331 121.853C90.7331 108.197 101.843 97.0865 115.5 97.0865C129.157 97.0865 140.267 108.197 140.267 121.853V125.396L139.379 123.757C136.679 118.764 131.476 115.662 125.799 115.662H105.201C99.5239 115.662 94.3214 118.764 91.6196 123.757L90.7331 125.396V121.853ZM126.194 178.139C126.194 184.038 121.397 188.835 115.5 188.835C109.603 188.835 104.806 184.038 104.806 178.139V168.389C108.147 169.598 111.748 170.259 115.5 170.259C119.252 170.259 122.853 169.598 126.194 168.389V178.139ZM115.5 163.506C102.118 163.506 91.1878 152.834 90.7543 139.557L97.5624 126.97C99.0798 124.16 102.007 122.416 105.201 122.416H125.799C128.993 122.416 131.92 124.162 133.438 126.97L140.246 139.557C139.812 152.834 128.882 163.506 115.5 163.506ZM184.845 100.111C194.675 100.111 202.687 108.027 202.849 117.819C200.511 114.569 196.743 112.606 192.673 112.606H177.018C172.947 112.606 169.179 114.571 166.84 117.819C167.004 108.027 175.014 100.111 184.845 100.111ZM192.162 160.899C192.162 164.935 188.879 168.217 184.845 168.217C180.811 168.217 177.527 164.935 177.527 160.899V154.618C179.841 155.333 182.298 155.721 184.845 155.721C187.391 155.721 189.848 155.333 192.162 154.618V160.899ZM184.845 148.968C175.187 148.968 167.283 141.326 166.854 131.772L171.925 122.396C172.938 120.523 174.889 119.36 177.018 119.36H192.673C194.802 119.36 196.753 120.523 197.765 122.396L202.835 131.772C202.407 141.326 194.503 148.968 184.845 148.968Z" fill="white"/>
<path d="M210.496 186.872H217.25V230.776H210.496V186.872Z" fill="white"/>
<path d="M13.7502 186.872H20.5036V230.776H13.7502V186.872Z" fill="white"/>
<path d="M30.8454 74.2742L41.8374 54.4861H61.2395V0.451172H0.451172V54.4861H19.8516L30.8454 74.2742ZM7.20465 7.20641H54.4861V47.7326H37.8632L30.8454 60.3654L23.8258 47.7326H7.20465V7.20641Z" fill="white"/>
<path d="M170.21 0.451172V54.4861H189.612L200.606 74.2742L211.598 54.4861H231V0.451172H170.21ZM224.245 47.7326H207.624L200.606 60.3654L193.586 47.7326H176.965V7.20641H224.245V47.7326Z" fill="white"/>
<path d="M115.726 74.2742L126.718 54.4861H163.906V0.451172H67.5436V54.4861H104.732L115.726 74.2742ZM74.2989 7.20641H157.152V47.7326H122.743L115.726 60.3654L108.706 47.7326H74.2989V7.20641Z" fill="white"/>
<path d="M28.593 18.4629H46.6046V25.2181H28.593V18.4629Z" fill="white"/>
<path d="M15.0843 18.4629H21.8395V25.2181H15.0843V18.4629Z" fill="white"/>
<path d="M15.0843 31.9717H33.0959V38.7269H15.0843V31.9717Z" fill="white"/>
<path d="M39.8512 31.9717H46.6046V38.7269H39.8512V31.9717Z" fill="white"/>
<path d="M198.354 18.4629H216.365V25.2181H198.354V18.4629Z" fill="white"/>
<path d="M184.845 18.4629H191.6V25.2181H184.845V18.4629Z" fill="white"/>
<path d="M184.845 31.9717H202.856V38.7269H184.845V31.9717Z" fill="white"/>
<path d="M209.612 31.9717H216.365V38.7269H209.612V31.9717Z" fill="white"/>
<path d="M122.479 16.2124H129.234V22.9659H122.479V16.2124Z" fill="white"/>
<path d="M135.988 16.2124H147.246V22.9659H135.988V16.2124Z" fill="white"/>
<path d="M84.2053 16.2124H115.726V22.9659H84.2053V16.2124Z" fill="white"/>
<path d="M140.491 30.1704H147.246V36.9257H140.491V30.1704Z" fill="white"/>
<path d="M84.2053 30.1704H102.217V36.9257H84.2053V30.1704Z" fill="white"/>
<path d="M108.97 30.1704H133.737V36.9257H108.97V30.1704Z" fill="white"/>
</svg>
