<svg width="238" height="238" viewBox="0 0 238 238" fill="none" xmlns="http://www.w3.org/2000/svg">
<path d="M119 0C116.325 0 114.156 2.16897 114.156 4.84326C114.156 7.51754 116.325 9.68651 119 9.68651C179.275 9.68651 228.313 58.7245 228.313 119C228.313 179.275 179.275 228.313 119 228.313C58.7245 228.313 9.68651 179.276 9.68651 119C9.68651 77.9901 32.3223 40.7794 68.7605 21.8883C71.1353 20.6573 72.062 17.7344 70.831 15.3596C69.6 12.9848 66.6763 12.0581 64.3023 13.2891C24.6393 33.8519 0 74.3585 0 119C0 184.617 53.3832 237.999 119 237.999C184.616 237.999 237.999 184.616 237.999 119C237.999 53.3832 184.617 0 119 0Z" fill="white"/>
<path d="M165.65 57.6959C152.148 47.4064 136.017 41.9683 119 41.9683C76.5242 41.9683 41.9676 76.5249 41.9676 119C41.9676 161.476 76.5242 196.032 119 196.032C139.575 196.032 158.92 188.02 173.469 173.47C175.361 171.579 175.361 168.512 173.469 166.621C171.578 164.729 168.511 164.729 166.62 166.621C153.9 179.341 136.988 186.346 119 186.346C81.8655 186.346 51.6541 156.135 51.6541 119C51.6541 81.8654 81.8647 51.6548 119 51.6548C148.781 51.6548 175.377 71.605 183.678 100.171C184.424 102.74 187.111 104.216 189.68 103.47C192.249 102.724 193.726 100.036 192.979 97.4679C188.42 81.7766 178.714 67.6512 165.65 57.6959Z" fill="white"/>
<path d="M175.788 104.341C173.896 102.45 170.83 102.45 168.939 104.341C167.048 106.233 167.048 109.299 168.939 111.19L187.158 129.41C188.066 130.318 189.298 130.828 190.583 130.828C191.868 130.828 193.1 130.318 194.008 129.41L212.227 111.19C214.118 109.299 214.118 106.233 212.227 104.341C210.335 102.45 207.268 102.45 205.377 104.341L190.583 119.136L175.788 104.341Z" fill="white"/>
</svg>
