<svg width="29" height="30" viewBox="0 0 29 30" fill="none" xmlns="http://www.w3.org/2000/svg">
<path d="M24.5547 4.44141C21.9121 1.73438 18.3027 0.1875 14.4355 0.1875C6.57227 0.1875 0.126953 6.63281 0.126953 14.4961C0.126953 17.0742 0.835938 19.5234 2.06055 21.6504L0.0625 29.0625L7.60352 27.1289C9.73047 28.2246 12.0508 28.8691 14.4355 28.8691C22.3633 28.8691 28.9375 22.4238 28.9375 14.5605C28.9375 10.6934 27.2617 7.14844 24.5547 4.44141ZM14.4355 26.4199C12.3086 26.4199 10.2461 25.8398 8.37695 24.7441L7.99023 24.4863L3.47852 25.7109L4.70312 21.3281L4.38086 20.877C3.2207 18.9434 2.57617 16.752 2.57617 14.4961C2.57617 7.98633 7.92578 2.63672 14.5 2.63672C17.6582 2.63672 20.623 3.86133 22.8789 6.11719C25.1348 8.37305 26.4883 11.3379 26.4883 14.5605C26.4883 21.0703 21.0098 26.4199 14.4355 26.4199ZM21.0098 17.5254C20.623 17.332 18.8828 16.4941 18.5605 16.3652C18.2383 16.2363 17.9805 16.1719 17.7227 16.5586C17.5293 16.8809 16.8203 17.7188 16.627 17.9766C16.3691 18.1699 16.1758 18.2344 15.8535 18.041C13.7266 17.0098 12.373 16.1719 10.9551 13.7871C10.5684 13.1426 11.3418 13.207 11.9863 11.8535C12.1152 11.5957 12.0508 11.4023 11.9863 11.209C11.9219 11.0156 11.1484 9.27539 10.8906 8.56641C10.5684 7.85742 10.3105 7.92188 10.0527 7.92188C9.85938 7.92188 9.60156 7.92188 9.4082 7.92188C9.15039 7.92188 8.76367 7.98633 8.44141 8.37305C8.11914 8.75977 7.2168 9.59766 7.2168 11.3379C7.2168 13.1426 8.44141 14.8184 8.63477 15.0762C8.82812 15.2695 11.1484 18.8789 14.7578 20.4258C17.0137 21.457 17.916 21.5215 19.0762 21.3281C19.7207 21.2637 21.1387 20.4902 21.4609 19.6523C21.7832 18.8145 21.7832 18.1055 21.6543 17.9766C21.5898 17.7832 21.332 17.7188 21.0098 17.5254Z" fill="white"/>
</svg>
